<?xml version="1.0" encoding="UTF-8"?>
<svg width="16px" height="13px" viewBox="0 0 16 13" version="1.1" xmlns="http://www.w3.org/2000/svg" xmlns:xlink="http://www.w3.org/1999/xlink">
    <!-- Generator: Sketch 63.1 (92452) - https://sketch.com -->
    <title>Icon — Twitter</title>
    <desc>Created with Sketch.</desc>
    <g id="Symbols" stroke="none" stroke-width="1" fill="none" fill-rule="evenodd">
        <g id="Organisms/Footer/Desktop/XL-Full" transform="translate(-1531.000000, -203.000000)" fill="#ffffff" fill-rule="nonzero">
            <g id="Navigation" transform="translate(318.000000, 42.000000)">
                <g id="Right" transform="translate(1151.000000, 0.000000)">
                    <g id="Social" transform="translate(0.000000, 121.000000)">
                        <g transform="translate(0.000000, 38.000000)" id="Atoms/Icons/Social/Twitter-—-Blue">
                            <g transform="translate(62.000000, 0.000000)">
                                <path d="M16,3.54922876 C15.4111111,3.81016993 14.7792418,3.98713725 14.1153464,4.06614379 C14.7932288,3.66020915 15.3121307,3.01633987 15.5580654,2.25147712 C14.9221961,2.62739869 14.2203137,2.90036601 13.4724444,3.04833987 C12.8735686,2.40946405 12.0217255,2.01152941 11.0768889,2.01152941 C9.26423529,2.01152941 7.7945098,3.4812549 7.7945098,5.29291503 C7.7945098,5.54985621 7.82350327,5.80081046 7.87950327,6.04078431 C5.15202614,5.90379085 2.7334902,4.59704575 1.11479739,2.61139869 C0.831843137,3.09532026 0.670875817,3.65918954 0.670875817,4.26109804 C0.670875817,5.39989542 1.25077124,6.40470588 2.13061438,6.99257516 C1.59270588,6.97458824 1.08679739,6.82661438 0.643895425,6.58065359 L0.643895425,6.62164706 C0.643895425,8.21134641 1.77568627,9.5380915 3.27639216,9.84005229 C3.00143791,9.91403922 2.71150327,9.95503268 2.41155556,9.95503268 C2.19960784,9.95503268 1.99464052,9.93403922 1.7936732,9.89403922 C2.2115817,11.1987974 3.42337255,12.1476078 4.85911111,12.1736209 C3.73631373,13.0534641 2.32057516,13.576366 0.782875817,13.576366 C0.517934641,13.576366 0.25696732,13.560366 2.61437908e-05,13.5313725 C1.45275817,14.4642092 3.17743791,15.0081046 5.03108497,15.0081046 C11.0689412,15.0081046 14.3693333,10.0070327 14.3693333,5.66985621 L14.3583268,5.24494118 C15.0031895,4.78499346 15.5610719,4.20711111 16,3.54922876 Z" id="Twitter"></path>
                            </g>
                        </g>
                    </g>
                </g>
            </g>
        </g>
    </g>
</svg>