<svg xmlns="http://www.w3.org/2000/svg" width="128" height="128" viewBox="0 0 128 128">
    <g fill="none" fill-rule="evenodd">
        <circle cx="64" cy="64" r="64" fill="#FEF6E2" opacity=".3"/>
        <path fill="#9C7E67" d="M65 73c4.283 0 7.868 2.992 8.777 7H101c1.105 0 2 .895 2 2s-.895 2-2 2H73.777c-.91 4.008-4.494 7-8.777 7-4.283 0-7.867-2.992-8.777-7H25c-1.105 0-2-.895-2-2s.895-2 2-2h31.223c.91-4.008 4.494-7 8.777-7zm0 4c-2.761 0-5 2.239-5 5s2.239 5 5 5 5-2.239 5-5-2.239-5-5-5zM39 53c4.283 0 7.868 2.992 8.777 7H104c1.105 0 2 .895 2 2s-.895 2-2 2H47.777c-.91 4.008-4.494 7-8.777 7-4.283 0-7.867-2.992-8.777-7H25c-1.105 0-2-.895-2-2s.895-2 2-2h5.223c.91-4.008 4.494-7 8.777-7zm0 4c-2.761 0-5 2.239-5 5s2.239 5 5 5 5-2.239 5-5-2.239-5-5-5zM85 34c4.283 0 7.868 2.992 8.777 7H101c1.105 0 2 .895 2 2s-.895 2-2 2h-7.223c-.91 4.008-4.494 7-8.777 7-4.283 0-7.867-2.992-8.777-7H25c-1.105 0-2-.895-2-2s.895-2 2-2h51.223c.91-4.008 4.494-7 8.777-7zm0 4c-2.761 0-5 2.239-5 5s2.239 5 5 5 5-2.239 5-5-2.239-5-5-5z"/>
    </g>
</svg>
