<svg xmlns="http://www.w3.org/2000/svg" width="128" height="128" viewBox="0 0 128 128">
    <g fill="none" fill-rule="evenodd">
        <circle cx="64" cy="64" r="64" fill="#FEF6E2" opacity=".3"/>
        <path fill-rule="nonzero" stroke="#9C7E67" stroke-width="4" d="M67.03 30c.58 0 1.118.2 1.541.54.415.334.72.803.847 1.349h0l1.088 6.414c1.848.452 3.63 1.121 5.327 1.967h0l1.685.864 5.18-3.69c.41-.295.895-.45 1.404-.45.594 0 1.154.214 1.599.601h0l4.619 4.61c.408.405.645.921.703 1.457.058.529-.057 1.076-.35 1.553h0l-3.806 5.337c.939 1.588 1.702 3.27 2.29 5.023h0l.573 1.779 6.254 1.06c.57.096 1.066.38 1.423.786.348.394.564.903.59 1.457h0l.003 6.51c0 .579-.2 1.117-.54 1.54-.334.415-.802.719-1.347.847h0l-6.472 1.085c-.435 1.779-1.097 3.508-1.923 5.17h0l-.85 1.666 3.681 5.17c.335.47.481 1.022.45 1.563-.032.532-.235 1.052-.603 1.473h0l-4.595 4.603c-.464.463-1.075.722-1.73.722-.45 0-.887-.118-1.267-.35h0l-5.356-3.819c-1.589.94-3.27 1.702-5.023 2.29h0l-1.779.573-1.06 6.254c-.097.572-.382 1.068-.788 1.43-.398.353-.911.575-1.47.611h0l-6.51.005c-.579 0-1.117-.199-1.54-.54-.415-.333-.719-.801-.847-1.347h0l-1.082-6.452c-1.74-.466-3.436-1.085-5.047-1.88h0l-1.643-.837-5.222 3.717c-.41.296-.895.45-1.404.45-.594 0-1.154-.213-1.6-.6h0L37.816 85.9c-.408-.404-.645-.92-.703-1.456-.058-.528.057-1.075.35-1.552h0l3.8-5.298c-.955-1.588-1.738-3.273-2.33-5.015h0l-.576-1.766-6.31-1.077c-.571-.096-1.068-.381-1.429-.787-.353-.398-.576-.911-.612-1.47h0L30 60.984c0-.58.2-1.118.54-1.541.334-.415.803-.72 1.349-.847h0l6.407-1.087c.456-1.8 1.082-3.529 1.899-5.188h0l.846-1.663-3.71-5.213c-.335-.47-.482-1.022-.45-1.563.03-.531.234-1.052.601-1.472h0l4.618-4.61c.453-.465 1.072-.717 1.723-.717.448 0 .885.119 1.265.349h0l5.333 3.829c1.588-.955 3.273-1.738 5.015-2.33h0l1.766-.576 1.077-6.31c.096-.571.381-1.068.787-1.429.398-.353.911-.576 1.47-.612h0zM64 52.182c-3.26 0-6.215 1.324-8.355 3.463-2.14 2.14-3.463 5.095-3.463 8.355 0 3.26 1.324 6.216 3.463 8.355 2.14 2.14 5.095 3.463 8.355 3.463 3.26 0 6.216-1.323 8.355-3.463 2.14-2.14 3.463-5.094 3.463-8.355 0-3.26-1.323-6.215-3.463-8.355-2.14-2.14-5.094-3.463-8.355-3.463z"/>
    </g>
</svg>
