<svg xmlns="http://www.w3.org/2000/svg" width="128" height="128" viewBox="0 0 128 128">
    <g fill="none" fill-rule="evenodd">
        <circle cx="64" cy="64" r="64" fill="#FEF6E2" opacity=".3"/>
        <g>
            <path fill="#9C7E67" d="M13 33c1.105 0 2 .895 2 2v24c0 1.105-.895 2-2 2H7.5C3.358 61 0 57.642 0 53.5v-13C0 36.358 3.358 33 7.5 33H13zm-2 4H8c-2.21 0-4 1.79-4 4v12c0 2.21 1.79 4 4 4h3V37zM57 33h-4v-8c0-11.598-9.402-21-21-21-11.48 0-20.81 9.213-20.997 20.65L11 25v8H7v-8l.003-.413C7.224 10.97 18.331 0 32 0c13.807 0 25 11.193 25 25v8zM35 61c4.418 0 8 3.582 8 8s-3.582 8-8 8-8-3.582-8-8 3.582-8 8-8zm0 4c-2.21 0-4 1.79-4 4s1.79 4 4 4 4-1.79 4-4-1.79-4-4-4zM51 33c-1.105 0-2 .895-2 2v24c0 1.105.895 2 2 2h5.5c4.142 0 7.5-3.358 7.5-7.5v-13c0-4.142-3.358-7.5-7.5-7.5H51zm2 4h3c2.21 0 4 1.79 4 4v12c0 2.21-1.79 4-4 4h-3V37z" transform="translate(32 26)"/>
            <path stroke="#9C7E67" stroke-width="3" d="M42 69c3.824.036 6.97-.826 9.436-2.588C53.903 64.649 55.424 62.179 56 59" transform="translate(32 26)"/>
        </g>
    </g>
</svg>
