<?xml version="1.0" encoding="UTF-8"?>
<svg width="64px" height="64px" viewBox="0 0 64 64" version="1.1" xmlns="http://www.w3.org/2000/svg" xmlns:xlink="http://www.w3.org/1999/xlink">
    <!-- Generator: Sketch 63.1 (92452) - https://sketch.com -->
    <title>Icon</title>
    <desc>Created with Sketch.</desc>
    <g id="Website" stroke="none" stroke-width="1" fill="none" fill-rule="evenodd">
        <g id="Partners-D-XL" transform="translate(-100.000000, -1030.000000)">
            <g id="Benefits" transform="translate(100.000000, 820.000000)">
                <g id="1" transform="translate(0.000000, 210.000000)">
                    <g id="Icon">
                        <rect id="Background" fill="#EAF9FA" opacity="0.400000006" x="0" y="0" width="64" height="64" rx="10"></rect>
                        <path d="M14.5,19 C18.0898509,19 21,22.8055796 21,27.5 C21,29.8866228 20.2478251,32.0435103 19.0365628,33.5873943 C23.6974229,34.8420569 27,37.9747378 27,41.6406197 C27,44.822008 22.8333333,46.2621113 14.5,45.9609295 C6.16666667,46.2621113 2,44.822008 2,41.6406197 C2,37.9747378 5.30257708,34.8420569 9.96326579,33.5866879 C8.75217492,32.0435103 8,29.8866228 8,27.5 C8,22.8055796 10.9101491,19 14.5,19 Z" id="User-1" fill="#8D9BB0"></path>
                        <path d="M49.5,19 C53.0898509,19 56,22.8055796 56,27.5 C56,29.8866228 55.2478251,32.0435103 54.0365628,33.5873943 C58.6974229,34.8420569 62,37.9747378 62,41.6406197 C62,44.822008 57.8333333,46.2621113 49.5,45.9609295 C41.1666667,46.2621113 37,44.822008 37,41.6406197 C37,37.9747378 40.3025771,34.8420569 44.9632658,33.5866879 C43.7521749,32.0435103 43,29.8866228 43,27.5 C43,22.8055796 45.9101491,19 49.5,19 Z" id="User-1" fill="#8D9BB0"></path>
                        <path d="M32,16 C36.418278,16 40,20.4771525 40,26 C40,29.0490721 38.9083054,31.7794205 37.1868531,33.6136242 C42.9146421,35.0210004 47,38.6924381 47,43 C47,46.6818983 42,48.348565 32,48 C22,48.348565 17,46.6818983 17,43 C17,38.6924381 21.0853579,35.0210004 26.8139068,33.6137983 C25.0916946,31.7794205 24,29.0490721 24,26 C24,20.4771525 27.581722,16 32,16 Z" id="User-1" fill="#415C85"></path>
                    </g>
                </g>
            </g>
        </g>
    </g>
</svg>