<?xml version="1.0" encoding="UTF-8"?>
<svg width="64px" height="64px" viewBox="0 0 64 64" version="1.1" xmlns="http://www.w3.org/2000/svg" xmlns:xlink="http://www.w3.org/1999/xlink">
    <!-- Generator: Sketch 63.1 (92452) - https://sketch.com -->
    <title>Icon</title>
    <desc>Created with Sketch.</desc>
    <g id="Website" stroke="none" stroke-width="1" fill="none" fill-rule="evenodd">
        <g id="Partners-D-XL" transform="translate(-876.000000, -1030.000000)">
            <g id="Benefits" transform="translate(100.000000, 820.000000)">
                <g id="3" transform="translate(776.000000, 210.000000)">
                    <g id="Icon">
                        <rect id="Background" fill="#EAF9FA" opacity="0.400000006" x="0" y="0" width="64" height="64" rx="10"></rect>
                        <path d="M34.516129,17 C41.6414906,17 47.4697891,22.1729269 47.908918,28.7070229 C48.1925777,28.6801819 48.4817971,28.6666667 48.7741935,28.6666667 C53.8694658,28.6666667 58,32.7707231 58,37.8333333 C58,42.8959435 53.8694658,47 48.7741935,47 C48.4913503,47 48.2114799,46.9873535 47.9351238,46.9625986 L47.9354839,47 L12.7096774,47 L12.7090874,46.9541612 C8.93521946,46.5393577 6,43.3602602 6,39.5 C6,35.6250659 8.95757701,32.4364829 12.7521601,32.0412284 C13.1491409,28.2718008 16.3582308,25.3333333 20.2580645,25.3333333 C20.7874434,25.3333333 21.3040944,25.3874788 21.8027138,25.4905 C23.5953148,20.5538849 28.6101702,17 34.516129,17 Z M32.77657,25.3333333 L31.1538338,25.3333333 L31.0264973,25.3402905 C30.5242535,25.3954942 30.1137171,25.7737623 30.0283255,26.2792981 L30.0283255,26.2792981 L29.8047657,27.5814358 L29.4832779,27.6898077 C29.1641992,27.8059588 28.852709,27.9452684 28.5520596,28.1061207 L28.5520596,28.1061207 L27.4920775,27.347817 L27.3720644,27.2729671 C27.2065376,27.1837476 27.0202891,27.1371771 26.8291069,27.1371771 C26.5246029,27.1371771 26.2355169,27.2559014 26.0235205,27.4703711 L26.0235205,27.4703711 L24.8710308,28.6116566 L24.7863411,28.7056379 C24.471807,29.0961851 24.448817,29.6536614 24.7476875,30.0708168 L24.7476875,30.0708168 L25.5185835,31.1469953 L25.3674759,31.4514658 C25.2241976,31.7588086 25.1042269,32.0747685 25.0059377,32.3993454 L25.0059377,32.3993454 L23.7262502,32.6138152 L23.6018349,32.6416228 C23.1157598,32.7787013 22.7741935,33.2195155 22.7741935,33.7321217 L22.7741935,33.7321217 L22.7741935,35.3444746 L22.7811955,35.4709963 C22.8367547,35.9700265 23.2174588,36.377936 23.7262502,36.4627811 L23.7262502,36.4627811 L25.0367735,36.6849105 L25.1458433,37.0043412 C25.2627424,37.3213782 25.4029491,37.6308753 25.5648373,37.929601 L25.5648373,37.929601 L24.8055047,38.9789708 L24.7374118,39.0860052 C24.49149,39.5244138 24.5623759,40.0775391 24.9288481,40.438131 L24.9288481,40.438131 L26.0774832,41.5794165 L26.1740924,41.6654031 C26.3752221,41.8253845 26.6220662,41.9126105 26.8830696,41.9126105 C27.1220474,41.9126105 27.3494617,41.839844 27.5421857,41.7019706 L27.5421857,41.7019706 L28.6252947,40.9360072 L28.9207647,41.0811214 C29.2196074,41.2191743 29.5282067,41.3362231 29.8433105,41.4338834 L29.8433105,41.4338834 L30.0591614,42.7207019 L30.087148,42.8443211 C30.2251093,43.327286 30.6687623,43.6666667 31.1846696,43.6666667 L31.1846696,43.6666667 L32.8112603,43.6666667 L32.9385968,43.6597095 C33.4408407,43.6045058 33.851377,43.2262377 33.9367686,42.7207019 L33.9367686,42.7207019 L34.156474,41.4338834 L34.4801901,41.3261698 C34.8008949,41.2112753 35.1123851,41.0748381 35.4130346,40.9168582 L35.4130346,40.9168582 L36.4807256,41.6751619 L36.6007387,41.7500118 C36.7662655,41.8392313 36.952514,41.8858018 37.1436962,41.8858018 C37.4482002,41.8858018 37.7334317,41.7670775 37.9492826,41.5526078 L37.9492826,41.5526078 L39.0979177,40.4113223 L39.1826075,40.317341 C39.4971416,39.9267938 39.5201316,39.3693175 39.2212611,38.9521621 L39.2212611,38.9521621 L38.458074,37.887473 L38.6103862,37.5830624 C38.7558326,37.2758991 38.8801396,36.9606573 38.9784289,36.6389527 L38.9784289,36.6389527 L40.2735342,36.424483 L40.3979496,36.3966754 C40.8840246,36.2595969 41.2255909,35.8187827 41.2255909,35.3061765 L41.2255909,35.3061765 L41.2255909,33.6938235 L41.2210832,33.5762228 C41.1752663,33.0731392 40.7930631,32.6608672 40.2812432,32.575517 L40.2812432,32.575517 L38.9861378,32.3572175 L38.8777306,32.0355727 C38.7620961,31.71692 38.6247803,31.4074229 38.465783,31.1086972 L38.465783,31.1086972 L39.2289701,30.0478379 L39.297063,29.9408035 C39.5429848,29.5023949 39.4720988,28.9492697 39.1056267,28.5886777 L39.1056267,28.5886777 L37.9569916,27.4473922 L37.8603823,27.3614056 C37.6592526,27.2014242 37.4124086,27.1141982 37.1514052,27.1141982 C36.9124274,27.1141982 36.6850131,27.1869647 36.492289,27.3248381 L36.492289,27.3248381 L35.4207435,28.0831418 L35.1049773,27.9267178 C34.7857179,27.7777139 34.4561598,27.65133 34.1179292,27.5507973 L34.1179292,27.5507973 L33.9020783,26.2792981 L33.8740916,26.1556789 C33.7361303,25.672714 33.2924774,25.3333333 32.77657,25.3333333 L32.77657,25.3333333 Z M32,32 C33.3883228,32 34.516129,33.1205767 34.516129,34.5 C34.516129,35.8794233 33.3883228,37 32,37 C30.6116772,37 29.483871,35.8794233 29.483871,34.5 C29.483871,33.1205767 30.6116772,32 32,32 Z" fill="#415C85"></path>
                    </g>
                </g>
            </g>
        </g>
    </g>
</svg>