<?xml version="1.0" encoding="UTF-8"?>
<svg width="64px" height="64px" viewBox="0 0 64 64" version="1.1" xmlns="http://www.w3.org/2000/svg" xmlns:xlink="http://www.w3.org/1999/xlink">
    <!-- Generator: Sketch 63.1 (92452) - https://sketch.com -->
    <title>Icon</title>
    <desc>Created with Sketch.</desc>
    <g id="Website" stroke="none" stroke-width="1" fill="none" fill-rule="evenodd">
        <g id="Partners-D-XL" transform="translate(-490.000000, -1030.000000)">
            <g id="Benefits" transform="translate(100.000000, 820.000000)">
                <g id="2" transform="translate(390.000000, 210.000000)">
                    <g id="Icon">
                        <rect id="Background" fill="#EAF9FA" opacity="0.400000006" x="0" y="0" width="64" height="64" rx="10"></rect>
                        <g transform="translate(4.000000, 15.000000)">
                            <path d="M32,0 C33.1045695,-2.02906125e-16 34,0.8954305 34,2 L34,29 C34,30.1045695 33.1045695,31 32,31 C30.8954305,31 30,30.1045695 30,29 L30,26.806 L12,23.322 L12,32 C12,33.6568542 10.6568542,35 9,35 C7.34314575,35 6,33.6568542 6,32 L6,22.161 L1.61995619,21.3135399 C0.679377106,21.1314923 5.98687362e-16,20.3080148 0,19.3499802 L0,11.6500198 C-5.61414612e-16,10.6919852 0.679377106,9.86850766 1.61995619,9.68646009 L30,4.194 L30,2 C30,0.8954305 30.8954305,2.02906125e-16 32,0 Z M37,10 C39.7614237,10 42,12.2385763 42,15 C42,17.7614237 39.7614237,20 37,20 L36,20 L36,10 L37,10 Z" id="Combined-Shape" fill="#415C85"></path>
                            <line x1="46" y1="15" x2="56" y2="15" id="Path-5" stroke="#8D9BB0" stroke-width="3" stroke-linecap="round" stroke-linejoin="round"></line>
                            <line x1="46" y1="7" x2="54" y2="2" id="Path-5" stroke="#8D9BB0" stroke-width="3" stroke-linecap="round" stroke-linejoin="round"></line>
                            <line x1="46" y1="28" x2="54" y2="23" id="Path-5" stroke="#8D9BB0" stroke-width="3" stroke-linecap="round" stroke-linejoin="round" transform="translate(50.000000, 25.500000) scale(1, -1) translate(-50.000000, -25.500000) "></line>
                        </g>
                    </g>
                </g>
            </g>
        </g>
    </g>
</svg>