<?xml version="1.0" encoding="UTF-8"?>
<svg width="172px" height="30px" viewBox="0 0 172 30" version="1.1" xmlns="http://www.w3.org/2000/svg" xmlns:xlink="http://www.w3.org/1999/xlink">
    <!-- Generator: Sketch 63.1 (92452) - https://sketch.com -->
    <title>Logotype</title>
    <desc>Created with Sketch.</desc>
    <g id="Symbols" stroke="none" stroke-width="1" fill="none" fill-rule="evenodd">
        <g id="Organisms/Header/Desktop/L+/Light" transform="translate(-15.000000, -21.000000)">
            <g id="Left" transform="translate(15.000000, 0.000000)">
                <g id="Design-Tokens/Logotype/Full-—-Light" transform="translate(0.000000, 21.000000)">
                    <g id="Design-Tokens/Logotype/New/Full-—-White">
                        
                        <g id="Design-Tokens/Logotype/Original/Sign-—-White" transform="translate(0.000000, 0.000000)" fill="#4EC2E0">
                            <path d="M28.9191964,5.83660104e-15 C35.3890179,5.83660104e-15 40.7409375,5.09450893 41.1940179,11.4890625 L41.1940179,11.4890625 L41.4628163,11.4929784 C46.3739637,11.6362333 50.3423055,15.6920448 50.4764732,20.6955804 C50.4764732,25.7900893 46.3644643,29.9016964 41.2698214,29.9016964 L41.2698214,29.9016964 L6.39455357,29.9016964 C2.87209821,29.9016964 2.16715534e-13,27.0294643 2.16715534e-13,23.5071429 C2.16715534e-13,19.9846875 2.87209821,17.1124554 6.39455357,17.1124554 L6.39455357,17.1124554 L6.98410714,17.1124554 C8.22348214,12.9858482 11.9426786,10.0529464 16.4476339,10.0529464 L16.4476339,10.0529464 L16.8404464,10.0529464 C17.8836161,4.30821429 22.9174554,5.83660104e-15 28.9191964,5.83660104e-15 Z M17.6958482,14.7065625 L15.8616964,14.7065625 C15.4629911,14.7065625 15.1171875,15.0523661 15.1171875,15.4509375 L15.1171875,16.1954464 C14.7719196,16.3146429 14.4794196,16.5407143 14.2000446,16.7666518 L13.5089732,16.3680804 C13.3892411,16.3146429 13.2830357,16.2482143 13.1104018,16.2482143 L12.9377679,16.2482143 C12.7645982,16.3016518 12.5919643,16.4208482 12.4720982,16.5940179 L11.5549554,18.2022321 C11.3290179,18.5480357 11.5021875,18.9995089 11.8474554,19.2391071 L12.5385268,19.6378125 C12.5385268,19.8104464 12.4857589,19.9836161 12.4857589,20.15625 C12.4857589,20.3288839 12.5385268,20.5015179 12.5385268,20.6746875 L11.8474554,21.0733929 C11.5021875,21.2993304 11.3823214,21.7644643 11.5549554,22.1102679 L12.4720982,23.7184821 C12.5919643,23.8916518 12.7645982,24.0108482 12.9377679,24.0642857 L13.1104018,24.0642857 C13.2295982,24.0642857 13.4027679,24.0108482 13.5089732,23.9444196 L14.2000446,23.5458482 C14.4925446,23.7717857 14.7719196,23.9444196 15.1171875,24.1170536 L15.1171875,24.9148661 C15.1171875,25.3135714 15.4629911,25.659375 15.8616964,25.659375 L17.6958482,25.659375 C18.0949554,25.7121429 18.4403571,25.366875 18.4403571,24.9683036 L18.4403571,24.1704911 C18.7861607,24.050625 19.0785268,23.8246875 19.3573661,23.5986161 L20.0484375,23.9978571 C20.1683036,24.050625 20.2745089,24.1170536 20.4476786,24.1170536 L20.6203125,24.1170536 C20.7929464,24.0642857 20.9661161,23.9444196 21.0854464,23.7717857 L22.0024554,22.1630357 C22.2285268,21.8177679 22.0558929,21.3657589 21.7100893,21.1266964 L21.0188839,20.728125 C21.0188839,20.5549554 21.0723214,20.3823214 21.0723214,20.2095536 C21.0723214,20.0363839 21.0188839,19.86375 21.0188839,19.6911161 L21.7100893,19.2925446 C21.8832589,19.1726786 22.0024554,18.9995089 22.0558929,18.826875 C22.1091964,18.6542411 22.0558929,18.4283036 22.0024554,18.2556696 L21.0854464,16.6474554 C20.9661161,16.4208482 20.6867411,16.2482143 20.4476786,16.2482143 C20.3278125,16.2482143 20.2216071,16.3016518 20.0484375,16.3680804 L19.3573661,16.7666518 C19.065,16.5407143 18.7861607,16.3680804 18.4403571,16.1954464 L18.4403571,15.4509375 C18.4403571,15.0523661 18.0949554,14.7065625 17.6958482,14.7065625 Z M16.7923661,18.1358036 C17.9485714,18.1358036 18.8655804,19.0529464 18.8655804,20.2095536 C18.8655804,21.3657589 17.9485714,22.2829018 16.7923661,22.2829018 C15.635625,22.2697768 14.7184821,21.3527679 14.7184821,20.2095536 C14.7184821,19.0664732 15.635625,18.1358036 16.7923661,18.1358036 Z M26.281875,5.79133929 L23.9199107,7.05013393 C23.4061607,7.32375 23.1984375,8.00584821 23.4720536,8.5190625 L23.9825893,9.478125 C23.6195089,9.86892857 23.3982589,10.3605804 23.19375,10.8435268 L22.0296429,10.8042857 C21.8391964,10.8174107 21.6566518,10.8048214 21.4343304,10.9234821 C21.3657589,10.9601786 21.2800446,11.0057143 21.2120089,11.0417411 C21.0257143,11.2291071 20.8849554,11.5016518 20.85,11.8060714 L20.7720536,14.5066071 C20.7180804,15.1072768 21.2507143,15.5708036 21.8602232,15.6413839 L23.0236607,15.6811607 C23.1424554,15.9034821 23.1926786,16.1625 23.3109375,16.3848214 C23.4295982,16.6076786 23.6164286,16.7934375 23.7352232,17.0162946 L23.1188839,18.0040179 C22.8285268,18.5318304 22.9939286,19.2135268 23.4531696,19.5399107 L25.7378571,20.9817857 C26.0109375,21.1225446 26.3153571,21.1576339 26.574375,21.1078125 L26.7966964,20.9891518 L26.7966964,20.9891518 C26.9509821,20.9069196 27.1372768,20.7202232 27.2283482,20.5611161 L27.8445536,19.5733929 C28.3766518,19.6639286 28.8542411,19.6948661 29.4182143,19.6801339 L29.9654464,20.7076339 C30.2390625,21.2208482 30.9212946,21.4291071 31.4350446,21.1554911 L33.7971429,19.8966964 C34.3474554,19.6916518 34.5551786,19.0095536 34.2815625,18.4962054 L33.7343304,17.4688393 C34.0974107,17.0780357 34.3186607,16.58625 34.5231696,16.1033036 L35.6872768,16.1425446 C35.8777232,16.1295536 36.0602679,16.1420089 36.2825893,16.0233482 C36.3511607,15.9866518 36.436875,15.9411161 36.5049107,15.9045536 C36.6912054,15.7177232 36.8319643,15.4451786 36.8669196,15.1407589 L36.9448661,12.4396875 C36.9988393,11.8395536 36.4662054,11.3760268 35.8566964,11.3054464 L34.6932589,11.2656696 C34.5744643,11.0433482 34.5242411,10.7843304 34.4059821,10.5620089 C34.2873214,10.3391518 34.1004911,10.1533929 33.9816964,9.93053571 L34.5985714,8.9428125 C34.7387946,8.67026786 34.7742857,8.36584821 34.7240625,8.10683036 C34.6738393,7.84794643 34.4504464,7.59308036 34.26375,7.40691964 L31.9790625,5.96504464 C31.6699554,5.75625 31.1916964,5.72491071 30.8836607,5.88924107 C30.7292411,5.97133929 30.6287946,6.11263393 30.4520089,6.31660714 L29.8356696,7.30486607 C29.3042411,7.21433036 28.8259821,7.18352679 28.2620089,7.19758929 L27.7514732,6.23919643 C27.4778571,5.72598214 26.795625,5.51772321 26.281875,5.79133929 Z M31.5642857,12.0755357 C32.3578125,13.5649554 31.8058929,15.3756696 30.3164732,16.1687946 C28.8182143,16.9450446 27.0075,16.393125 26.2233482,14.9209821 C25.4390625,13.449375 25.9816071,11.6213839 27.4710268,10.8278571 C28.9604464,10.0347321 30.7711607,10.5866518 31.5642857,12.0755357 Z" id="Sign"></path>
                        </g>
                    </g>
                </g>
            </g>
        </g>
    </g>
</svg>