<?xml version="1.0" encoding="UTF-8"?>
<svg width="100px" height="100px" viewBox="0 0 100 100" version="1.1" xmlns="http://www.w3.org/2000/svg" xmlns:xlink="http://www.w3.org/1999/xlink">
    <!-- Generator: Sketch 63.1 (92452) - https://sketch.com -->
    <title>Icon — Bookkeeping</title>
    <desc>Created with Sketch.</desc>
    <defs>
        <polygon id="path-1" points="-1.2490009e-14 0 29 12 58 0 58 39 0 39"></polygon>
    </defs>
    <g id="Website" stroke="none" stroke-width="1" fill="none" fill-rule="evenodd">
        <g id="Services-D-XL-2.-—-Product" transform="translate(-1660.000000, -2579.000000)">
            <g id="Related" transform="translate(100.000000, 2537.000000)">
                <g id="Row-2">
                    <g id="Next" transform="translate(1040.000000, 0.000000)">
                        <g id="Content" transform="translate(25.000000, 0.000000)">
                            <g id="Atoms/Icons/Services/Training" transform="translate(495.000000, 42.000000)">
                                <g id="Icon">
                                    <circle id="Oval" fill="#E6EEDC" cx="50" cy="50" r="50"></circle>
                                    <g transform="translate(12.000000, 22.000000)">
                                        <path d="M5.15388203,16 L38,29.8299444 L70.846118,16 L38,2.17005559 C37.5228443,1.96914792 36.6851224,2.72368828 5.15388203,16 Z" id="Path-6" stroke="#3D5135" stroke-width="4"></path>
                                        <g id="Path-6" transform="translate(9.000000, 17.000000)">
                                            <mask id="mask-2" fill="white">
                                                <use xlink:href="#path-1"></use>
                                            </mask>
                                            <g id="Mask"></g>
                                            <path d="M53,1 L5,1 L5,21.8054118 L29,34.7284888 L53,21.8054118 L53,1 Z" stroke="#3D5135" stroke-width="4" mask="url(#mask-2)"></path>
                                            <line x1="29" y1="13" x2="29" y2="24" id="Path" stroke="#3D5135" stroke-width="4" stroke-linecap="round" stroke-linejoin="round" mask="url(#mask-2)"></line>
                                        </g>
                                        <g id="Group-2" opacity="0.400000006" transform="translate(38.000000, 16.000000)" stroke="#3D5135" stroke-linecap="round" stroke-linejoin="round" stroke-width="2">
                                            <polyline id="Path-7" points="7.11111856e-15 -7.08452584e-15 34 0 34 12"></polyline>
                                            <line x1="31" y1="15" x2="37" y2="9" id="Path-8"></line>
                                            <line x1="37" y1="15" x2="31" y2="9" id="Path-8"></line>
                                        </g>
                                    </g>
                                </g>
                            </g>
                        </g>
                    </g>
                </g>
            </g>
        </g>
    </g>
</svg>