<?xml version="1.0" encoding="UTF-8"?>
<svg width="64px" height="64px" viewBox="0 0 64 64" version="1.1" xmlns="http://www.w3.org/2000/svg" xmlns:xlink="http://www.w3.org/1999/xlink">
    <!-- Generator: Sketch 63.1 (92452) - https://sketch.com -->
    <title>Icon</title>
    <desc>Created with Sketch.</desc>
    <g id="Website" stroke="none" stroke-width="1" fill="none" fill-rule="evenodd">
        <g id="Services-D-XL-2.-—-Product" transform="translate(-100.000000, -1281.000000)">
            <g id="Text" transform="translate(100.000000, 535.000000)">
                <g id="3" transform="translate(0.000000, 746.000000)">
                    <g id="Icon">
                        <rect id="Background" fill="#3D5135" x="0" y="0" width="64" height="64" rx="10"></rect>
                        <path d="M48,14 L16,14 C14.8954305,14 13.8954305,14.4477153 13.1715729,15.1715729 C12.4477153,15.8954305 12,16.8954305 12,18 L12,46 C12,47.1045695 12.4477153,48.1045695 13.1715729,48.8284271 C13.8954305,49.5522847 14.8954305,50 16,50 L48,50 C49.1045695,50 50.1045695,49.5522847 50.8284271,48.8284271 C51.5522847,48.1045695 52,47.1045695 52,46 L52,18 C52,16.8954305 51.5522847,15.8954305 50.8284271,15.1715729 C50.1045695,14.4477153 49.1045695,14 48,14 Z" id="Rectangle" stroke="#E6EEDC" stroke-width="4"></path>
                        <circle id="Oval" stroke="#E6EEDC" stroke-width="2" opacity="0.400000006" cx="22" cy="37" r="3"></circle>
                        <circle id="Oval" stroke="#E6EEDC" stroke-width="2" opacity="0.400000006" cx="32" cy="37" r="3"></circle>
                        <circle id="Oval" stroke="#E6EEDC" stroke-width="2" opacity="0.400000006" cx="42" cy="37" r="3"></circle>
                        <line x1="13" y1="25" x2="51" y2="25" id="Line" stroke="#E6EEDC" stroke-width="2" opacity="0.400000006" stroke-linecap="square"></line>
                    </g>
                </g>
            </g>
        </g>
    </g>
</svg>