<?xml version="1.0" encoding="UTF-8"?>
<svg width="100px" height="100px" viewBox="0 0 100 100" version="1.1" xmlns="http://www.w3.org/2000/svg" xmlns:xlink="http://www.w3.org/1999/xlink">
    <!-- Generator: Sketch 63.1 (92452) - https://sketch.com -->
    <title>Icon — Bookkeeping</title>
    <desc>Created with Sketch.</desc>
    <g id="Website" stroke="none" stroke-width="1" fill="none" fill-rule="evenodd">
        <g id="Services-D-XL-2.-—-Product" transform="translate(-100.000000, -194.000000)">
            <g id="Page-Header" transform="translate(0.000000, 110.000000)">
                <g id="Left" transform="translate(100.000000, 0.000000)">
                    <g id="Page-Header" transform="translate(0.000000, 84.000000)">
                        <g id="Title">
                            <g id="Atoms/Icons/Services/Bookkeeping">
                                <g id="Icon">
                                    <circle id="Oval" fill="#E6EEDC" cx="50" cy="50" r="50"></circle>
                                    <path d="M68,22 L32,22 C30.8954305,22 29.8954305,22.4477153 29.1715729,23.1715729 C28.4477153,23.8954305 28,24.8954305 28,26 L28,74 C28,75.1045695 28.4477153,76.1045695 29.1715729,76.8284271 C29.8954305,77.5522847 30.8954305,78 32,78 L68,78 C69.1045695,78 70.1045695,77.5522847 70.8284271,76.8284271 C71.5522847,76.1045695 72,75.1045695 72,74 L72,26 C72,24.8954305 71.5522847,23.8954305 70.8284271,23.1715729 C70.1045695,22.4477153 69.1045695,22 68,22 Z" id="Rectangle" stroke="#3D5135" stroke-width="4"></path>
                                    <circle id="Oval" stroke="#3D5135" stroke-width="2" opacity="0.400000006" cx="38" cy="46" r="3"></circle>
                                    <circle id="Oval" stroke="#3D5135" stroke-width="2" opacity="0.400000006" cx="50" cy="46" r="3"></circle>
                                    <circle id="Oval" stroke="#3D5135" stroke-width="2" opacity="0.400000006" cx="62" cy="46" r="3"></circle>
                                    <circle id="Oval" stroke="#3D5135" stroke-width="2" opacity="0.400000006" cx="38" cy="56" r="3"></circle>
                                    <circle id="Oval" stroke="#3D5135" stroke-width="2" opacity="0.400000006" cx="50" cy="56" r="3"></circle>
                                    <circle id="Oval" stroke="#3D5135" stroke-width="2" opacity="0.400000006" cx="62" cy="56" r="3"></circle>
                                    <circle id="Oval" stroke="#3D5135" stroke-width="2" opacity="0.400000006" cx="38" cy="66" r="3"></circle>
                                    <circle id="Oval" stroke="#3D5135" stroke-width="2" opacity="0.400000006" cx="50" cy="66" r="3"></circle>
                                    <circle id="Oval" stroke="#3D5135" stroke-width="2" opacity="0.400000006" cx="62" cy="66" r="3"></circle>
                                    <line x1="28" y1="36" x2="72" y2="36" id="Line" stroke="#3D5135" stroke-width="2" opacity="0.400000006" stroke-linecap="square"></line>
                                </g>
                            </g>
                        </g>
                    </g>
                </g>
            </g>
        </g>
    </g>
</svg>