<?xml version="1.0" encoding="UTF-8"?>
<svg width="16px" height="17px" viewBox="0 0 16 17" version="1.1" xmlns="http://www.w3.org/2000/svg" xmlns:xlink="http://www.w3.org/1999/xlink">
    <!-- Generator: Sketch 63.1 (92452) - https://sketch.com -->
    <title>Icon — Instagram</title>
    <desc>Created with Sketch.</desc>
    <g id="Symbols" stroke="none" stroke-width="1" fill="none" fill-rule="evenodd">
        <g id="Organisms/Footer/Desktop/XL-Full" transform="translate(-1562.000000, -201.000000)" fill="#415C85">
            <g id="Navigation" transform="translate(318.000000, 42.000000)">
                <g id="Right" transform="translate(1151.000000, 0.000000)">
                    <g id="Social" transform="translate(0.000000, 121.000000)">
                        <g transform="translate(0.000000, 38.000000)" id="Atoms/Icons/Social/Instagram-—-Blue">
                            <g transform="translate(93.000000, 0.000000)">
                                <path d="M8.00001588,0.00504761905 C5.82733045,0.00504761905 5.55489529,0.0142568736 4.70161023,0.0531897909 C3.8501035,0.0920274401 3.26855496,0.227276457 2.75969602,0.425053137 C2.23362529,0.629466831 1.78748454,0.903013446 1.34270931,1.34775693 C0.897965827,1.79253216 0.624419212,2.23867291 0.420005518,2.76474363 C0.222228838,3.27360258 0.086979821,3.85515112 0.0481421718,4.70665785 C0.00920925451,5.55994291 0,5.83237807 0,8.0050635 C0,10.1777172 0.00920925451,10.4501523 0.0481421718,11.3034374 C0.086979821,12.1549441 0.222228838,12.7364927 0.420005518,13.2453516 C0.624419212,13.7714223 0.897965827,14.2175631 1.34270931,14.6623383 C1.78748454,15.1070818 2.23362529,15.3806284 2.75969602,15.5850739 C3.26855496,15.7828188 3.8501035,15.9180678 4.70161023,15.9569054 C5.55489529,15.9958384 5.82733045,16.0050476 8.00001588,16.0050476 C10.1726696,16.0050476 10.4451047,15.9958384 11.2983898,15.9569054 C12.1498965,15.9180678 12.731445,15.7828188 13.240304,15.5850739 C13.7663747,15.3806284 14.2125155,15.1070818 14.6572907,14.6623383 C15.1020342,14.2175631 15.3755808,13.7714223 15.5800262,13.2453516 C15.7777712,12.7364927 15.9130202,12.1549441 15.9518578,11.3034374 C15.9907907,10.4501523 16,10.1777172 16,8.0050635 C16,5.83237807 15.9907907,5.55994291 15.9518578,4.70665785 C15.9130202,3.85515112 15.7777712,3.27360258 15.5800262,2.76474363 C15.3755808,2.23867291 15.1020342,1.79253216 14.6572907,1.34775693 C14.2125155,0.903013446 13.7663747,0.629466831 13.240304,0.425053137 C12.731445,0.227276457 12.1498965,0.0920274401 11.2983898,0.0531897909 C10.4451047,0.0142568736 10.1726696,0.00504761905 8.00001588,0.00504761905 Z M11.2326865,1.49313612 C12.0126786,1.5287029 12.4362726,1.65902973 12.718171,1.7685881 C13.0915904,1.91371325 13.3580872,2.08706953 13.6380168,2.36703086 C13.9179781,2.64696044 14.0913344,2.91345722 14.2364595,3.28687661 C14.3460179,3.56877506 14.4763447,3.99236902 14.5119115,4.77236112 C14.5455888,5.51048287 14.5560469,5.79647587 14.5581353,7.28746273 L14.5581353,8.72265378 C14.5560469,10.2136194 14.5455888,10.4996124 14.5119115,11.2377341 C14.4763447,12.0177262 14.3460179,12.4413202 14.2364595,12.7232186 C14.0913344,13.096638 13.9179781,13.3631348 13.6380168,13.6430644 C13.3580872,13.9230257 13.0915904,14.096382 12.718171,14.2415071 C12.4362726,14.3510655 12.0126786,14.4813923 11.2326865,14.5169591 C10.4946759,14.5506364 10.2087211,14.5610946 8.71765696,14.5631829 L7.28236562,14.5631829 C5.79128584,14.5610946 5.50535189,14.5506364 4.7673135,14.5169591 C3.9873214,14.4813923 3.56372745,14.3510655 3.28182899,14.2415071 C2.9084096,14.096382 2.64191283,13.9230257 2.36198324,13.6430644 C2.08205366,13.3631348 1.90866563,13.096638 1.76354048,12.7232186 C1.65398211,12.4413202 1.52365528,12.0177262 1.4880885,11.2377341 C1.45441121,10.4996124 1.44395305,10.2136194 1.44186472,8.72265378 L1.44186472,7.28746273 C1.44395305,5.79647587 1.45441121,5.51048287 1.4880885,4.77236112 C1.52365528,3.99236902 1.65398211,3.56877506 1.76354048,3.28687661 C1.90866563,2.91345722 2.08202191,2.64696044 2.36198324,2.36703086 C2.64191283,2.08706953 2.9084096,1.91371325 3.28182899,1.7685881 C3.56372745,1.65902973 3.9873214,1.5287029 4.7673135,1.49313612 C5.50543525,1.45945883 5.79142825,1.44900067 7.28241511,1.44691234 L8.71760616,1.44691234 C10.2085718,1.44900067 10.4945648,1.45945883 11.2326865,1.49313612 Z M8.00001588,3.89694209 C5.73114137,3.89694209 3.89189447,5.73618899 3.89189447,8.0050635 C3.89189447,10.2739062 5.73114137,12.1131532 8.00001588,12.1131532 C10.2688586,12.1131532 12.1081055,10.2739062 12.1081055,8.0050635 C12.1081055,5.73618899 10.2688586,3.89694209 8.00001588,3.89694209 Z M8.00001588,5.33838095 C9.47276621,5.33838095 10.6666667,6.53228141 10.6666667,8.0050635 C10.6666667,9.47781383 9.47276621,10.6717143 8.00001588,10.6717143 C6.52723379,10.6717143 5.33333333,9.47781383 5.33333333,8.0050635 C5.33333333,6.53228141 6.52723379,5.33838095 8.00001588,5.33838095 Z M12.2704107,2.77461977 C11.7402434,2.77461977 11.3104253,3.2044379 11.3104253,3.73463691 C11.3104253,4.26483593 11.7402434,4.69462231 12.2704107,4.69462231 C12.8006097,4.69462231 13.2304279,4.26483593 13.2304279,3.73463691 C13.2304279,3.2044379 12.8006097,2.77461977 12.2704107,2.77461977 Z" id="Instagram"></path>
                            </g>
                        </g>
                    </g>
                </g>
            </g>
        </g>
    </g>
</svg>