<?xml version="1.0" encoding="UTF-8"?>
<svg width="16px" height="16px" viewBox="0 0 16 16" version="1.1" xmlns="http://www.w3.org/2000/svg" xmlns:xlink="http://www.w3.org/1999/xlink">
    <!-- Generator: Sketch 63.1 (92452) - https://sketch.com -->
    <title>Icon — Linkedin</title>
    <desc>Created with Sketch.</desc>
    <g id="Symbols" stroke="none" stroke-width="1" fill="none" fill-rule="evenodd">
        <g id="Organisms/Footer/Desktop/XL-Full" transform="translate(-1469.000000, -201.000000)" fill="#415C85" fill-rule="nonzero">
            <g id="Navigation" transform="translate(318.000000, 42.000000)">
                <g id="Right" transform="translate(1151.000000, 0.000000)">
                    <g id="Social" transform="translate(0.000000, 121.000000)">
                        <g transform="translate(0.000000, 38.000000)" id="Atoms/Icons/Social/Linkedin-—-Blue">
                            <g>
                                <path d="M3.63536859,4.99407277 L3.63536859,15.3168558 L0.197894814,15.3168558 L0.197894814,4.99407277 L3.63536859,4.99407277 Z M12.0521006,4.75458502 C13.239506,4.75458502 14.1945382,5.14876931 14.9166135,5.93699194 C15.6389076,6.72495917 15.9997446,7.87934559 16,9.4003336 L16,9.4003336 L16,15.3166005 L12.5729245,15.3166005 L12.5729245,9.79590432 C12.5729245,9.06671447 12.4323111,8.49550481 12.151121,8.0823483 C11.8698214,7.66915532 11.4304322,7.46257707 10.8333911,7.46257707 C10.3957531,7.46257707 10.0295529,7.58235743 9.73427951,7.82213706 C9.43896966,8.06162481 9.21870952,8.3582846 9.0727694,8.71262723 C8.9962238,8.92113919 8.95824288,9.20232933 8.95824288,9.55641657 L8.95824288,9.55641657 L8.95824288,15.3169288 L5.53116734,15.3169288 C5.54510462,12.5460731 5.55203678,10.2996167 5.55203678,8.57734073 C5.55203678,6.85521074 5.5485707,5.82750036 5.54152909,5.49406365 L5.54152909,5.49406365 L5.5310214,4.9939998 L8.95824288,4.9939998 L8.95824288,6.46186561 C9.09046464,6.25335365 9.22597005,6.06903127 9.3645402,5.91079568 C9.51026142,5.74420503 9.70655089,5.56367709 9.95300728,5.36921187 C10.1996096,5.17474665 10.5016327,5.0237351 10.8592225,4.91610426 C11.2169218,4.80840044 11.6146086,4.75458502 12.0521006,4.75458502 Z M1.93746466,0.0252857143 C2.51381871,0.0252857143 2.97579218,0.193664137 3.32287429,0.530530438 C3.66999289,0.867323768 3.84720069,1.29255682 3.85413284,1.80652146 C3.86102851,2.31348098 3.68571793,2.7370722 3.32812814,3.07725864 C2.97053834,3.41762751 2.5,3.58768424 1.91659522,3.58768424 L1.91659522,3.58768424 L1.89576226,3.58768424 C1.32634037,3.58768424 0.867942427,3.41748157 0.520823832,3.07725864 C0.173595782,2.7370722 -5.5067062e-14,2.31333504 -5.5067062e-14,1.80652146 C-5.5067062e-14,1.29252033 0.178740172,0.867323768 0.536439426,0.530530438 C0.894175165,0.193810077 1.36114709,0.0252857143 1.93746466,0.0252857143 Z" id="Linkedin"></path>
                            </g>
                        </g>
                    </g>
                </g>
            </g>
        </g>
    </g>
</svg>