<?xml version="1.0" encoding="UTF-8"?>
<svg width="48px" height="29px" viewBox="0 0 48 29" version="1.1" xmlns="http://www.w3.org/2000/svg" xmlns:xlink="http://www.w3.org/1999/xlink">
    <!-- Generator: Sketch 63.1 (92452) - https://sketch.com -->
    <title>Logotype</title>
    <desc>Created with Sketch.</desc>
    <g id="Symbols" stroke="none" stroke-width="1" fill="none" fill-rule="evenodd">
        <g id="Organisms/Footer/Desktop/XL-Full" transform="translate(-30.000000, -39.000000)" fill="#5E7599">
            <g id="Design-Tokens/Logotype/Sign-Dark" transform="translate(30.000000, 30.000000)">
                <g id="Design-Tokens/Logotype/Original/Sign-Blue-Grey" transform="translate(0.000000, 9.200000)">
                    <path d="M27.4924138,5.39063832e-15 C33.6430345,5.39063832e-15 38.7309072,4.79607551 39.161634,10.8160398 L39.161634,10.8160398 L39.4218007,10.8198612 C44.0885113,10.9571139 47.8586159,14.774371 47.986122,19.4832451 C47.986122,24.2793206 44.0769867,28.1500721 39.2336976,28.1500721 L39.2336976,28.1500721 L6.07906631,28.1500721 C2.73039788,28.1500721 2.06198748e-13,25.4460937 2.06198748e-13,22.1301079 C2.06198748e-13,18.8139959 2.73039788,16.1100175 6.07906631,16.1100175 L6.07906631,16.1100175 L6.63953316,16.1100175 C7.81776127,12.2251447 11.3534642,9.46405057 15.6361592,9.46405057 L15.6361592,9.46405057 L16.0095915,9.46405057 C17.0012944,4.05584156 21.7867798,5.39063832e-15 27.4924138,5.39063832e-15 Z M16.8227905,13.8450605 L15.07913,13.8450605 C14.7000955,13.8450605 14.3713528,14.1706071 14.3713528,14.5458304 L14.3713528,15.2467264 C14.0431194,15.3589404 13.7650504,15.5717687 13.4994589,15.7844709 L12.8424828,15.4092476 C12.7286578,15.3589404 12.6276923,15.2964032 12.4635756,15.2964032 L12.2994589,15.2964032 C12.1348329,15.3467103 11.9707162,15.4589243 11.8567639,15.6219498 L10.98487,17.1359558 C10.7700796,17.4615024 10.9347056,17.8865286 11.262939,18.1120912 L11.9199151,18.4874407 C11.9199151,18.6499618 11.8697507,18.8129873 11.8697507,18.9755084 C11.8697507,19.1380295 11.9199151,19.3005507 11.9199151,19.4635761 L11.262939,19.8389256 C10.9347056,20.0516278 10.8207533,20.4895144 10.98487,20.815061 L11.8567639,22.329067 C11.9707162,22.4920925 12.1348329,22.6043065 12.2994589,22.6546136 L12.4635756,22.6546136 C12.5768912,22.6546136 12.7415172,22.6043065 12.8424828,22.5417692 L13.4994589,22.1665459 C13.7775279,22.3792481 14.0431194,22.5417692 14.3713528,22.7042904 L14.3713528,23.4553675 C14.3713528,23.8307169 14.7000955,24.1562635 15.07913,24.1562635 L16.8227905,24.1562635 C17.2022069,24.2059402 17.5305676,23.880898 17.5305676,23.5056746 L17.5305676,22.7545975 C17.8593103,22.6417531 18.137252,22.4290509 18.4023342,22.2162226 L19.0593103,22.5920764 C19.1732626,22.6417531 19.2742281,22.7042904 19.4388541,22.7042904 L19.6029708,22.7042904 C19.7670875,22.6546136 19.9317135,22.5417692 20.0451565,22.3792481 L20.9169231,20.8647378 C21.1318408,20.5396955 20.9677241,20.114165 20.6389814,19.8891066 L19.981878,19.5138833 C19.981878,19.3508578 20.032679,19.1883367 20.032679,19.0256895 C20.032679,18.862664 19.981878,18.7001429 19.981878,18.5376218 L20.6389814,18.1623984 C20.8036074,18.049554 20.9169231,17.8865286 20.9677241,17.7240074 C21.0183979,17.5614863 20.9677241,17.3487841 20.9169231,17.186263 L20.0451565,15.6722569 C19.9317135,15.4589243 19.666122,15.2964032 19.4388541,15.2964032 C19.3249019,15.2964032 19.2239363,15.3467103 19.0593103,15.4092476 L18.4023342,15.7844709 C18.1243926,15.5717687 17.8593103,15.4092476 17.5305676,15.2467264 L17.5305676,14.5458304 C17.5305676,14.1706071 17.2022069,13.8450605 16.8227905,13.8450605 Z M15.9638833,17.0734186 C17.0630451,17.0734186 17.9348117,17.9368357 17.9348117,19.0256895 C17.9348117,20.114165 17.0630451,20.9775821 15.9638833,20.9775821 C14.8642122,20.965226 13.9923183,20.1019349 13.9923183,19.0256895 C13.9923183,17.9495701 14.8642122,17.0734186 15.9638833,17.0734186 Z M24.9852095,5.45208594 L22.7397772,6.63714111 C22.251374,6.89472891 22.0538992,7.5368702 22.3140159,8.02002069 L22.7993634,8.92290186 C22.4541963,9.29081238 22.2438621,9.75366348 22.049443,10.2083192 L20.9427692,10.1713768 C20.7617188,10.183733 20.5881804,10.1718812 20.3768276,10.2835908 C20.3116393,10.3181376 20.2301538,10.3610058 20.1654748,10.3949222 C19.9883714,10.5713125 19.854557,10.8278916 19.8213263,11.1144785 L19.7472255,13.6568184 C19.6959151,14.2223011 20.2022706,14.6586748 20.7817082,14.7251206 L21.8877454,14.7625673 C22.000679,14.9718653 22.0484244,15.21571 22.1608488,15.425008 C22.2736552,15.6348103 22.4512679,15.8096875 22.5642016,16.0194898 L21.9782706,16.9493528 C21.7022387,17.4462463 21.8594801,18.0880094 22.2960637,18.3952739 L24.4680318,19.7526847 C24.7276393,19.8851981 25.0170398,19.9182318 25.2632785,19.8713289 C25.3284668,19.8369082 25.409443,19.79404 25.4746313,19.7596193 C25.621305,19.6822042 25.7984085,19.5064444 25.8849867,19.3566576 L26.4707905,18.4267947 C26.9766366,18.5120269 27.4306631,18.5411521 27.9668117,18.5272829 L28.4870451,19.4945926 C28.7471618,19.9777431 29.3957347,20.1738023 29.8841379,19.9162145 L32.1296976,18.7311593 C32.6528594,18.5381261 32.8503342,17.8959848 32.5902175,17.4127082 L32.0699841,16.4455247 C32.4151512,16.0776141 32.6254854,15.614637 32.8199045,15.1599813 L33.9265782,15.1969236 C34.1076286,15.1846935 34.2811671,15.1964193 34.4925199,15.0847096 C34.5577082,15.0501629 34.6391936,15.0072946 34.7038727,14.9728739 C34.8809761,14.796988 35.0147905,14.5404088 35.0480212,14.2538219 L35.122122,11.7109777 C35.1734324,11.1459993 34.6670769,10.7096256 34.0876393,10.6431798 L32.9816021,10.6057332 C32.8686684,10.3964352 32.8209231,10.1525905 32.7084987,9.94329248 C32.5956923,9.73349019 32.4180796,9.55861291 32.3051459,9.34881061 L32.8915862,8.41894766 C33.0248912,8.16236852 33.0586313,7.87578161 33.0108859,7.63193687 C32.9631406,7.38821821 32.7507692,7.14828205 32.5732838,6.97302653 L30.4013156,5.61561574 C30.1074589,5.41905217 29.6527958,5.38954872 29.3599576,5.5442527 C29.2131565,5.62154164 29.1176658,5.75455933 28.9496021,5.94658391 L28.3636711,6.87695119 C27.8584615,6.79171901 27.4037984,6.76271989 26.8676499,6.77595862 L26.3823024,5.87370787 C26.1221857,5.39055738 25.4736127,5.19449814 24.9852095,5.45208594 Z M30.0070027,11.3681577 C30.7613793,12.770328 30.2366897,14.4749717 28.8207533,15.2216359 C27.3964138,15.9524136 25.6750345,15.4328251 24.9295703,14.0469195 C24.1839788,12.6615183 24.699756,10.9406099 26.1156923,10.1935675 C27.5316286,9.44690327 29.253008,9.96649178 30.0070027,11.3681577 Z" id="Sign"></path>
                </g>
            </g>
        </g>
    </g>
</svg>