<?xml version="1.0" encoding="UTF-8"?>
<svg width="82px" height="36px" viewBox="0 0 82 36" version="1.1" xmlns="http://www.w3.org/2000/svg"
     xmlns:xlink="http://www.w3.org/1999/xlink">
  <!-- Generator: Sketch 63.1 (92452) - https://sketch.com -->
  <title>Product — Vend</title>
  <desc>Created with Sketch.</desc>
  <g id="Symbols" stroke="none" stroke-width="1" fill="none" fill-rule="evenodd" opacity="1">
    <g id="Molecules/Product-Logos/XL" transform="translate(-1535.000000, -18.000000)" fill="#5e7599">
      <g id="Logotypes" transform="translate(60.000000, 0.000000)">
        <g id="Logos">
          <g id="Atoms/Logotypes/Products/Vend-Black" transform="translate(1475.000000, 18.000000)">
            <g id="Vend">
              <path
                d="M69.2260209,0 L3.47578348,0 C1.55251662,0 0,1.55612903 0,3.48387097 L0,32.516129 C0,34.443871 1.55251662,36 3.47578348,36 L69.2260209,36 C70.5236467,36 71.7169991,35.2683871 72.3078822,34.1187097 L80.9394112,19.6025806 C81.4607787,18.603871 81.4607787,17.4077419 80.9394112,16.4090323 L72.3078822,1.89290323 C71.7169991,0.731612903 70.5236467,0 69.2260209,0"
                id="Path" fill="#5e7599" fill-rule="nonzero"></path>
              <path
                d="M75.5403609,18 C75.5403609,18.963871 74.7641026,19.7419355 73.8024691,19.7419355 C72.8408357,19.7419355 72.0645774,18.963871 72.0645774,18 C72.0645774,17.036129 72.8408357,16.2580645 73.8024691,16.2580645 C74.7641026,16.2580645 75.5403609,17.036129 75.5403609,18"
                id="Path" fill="#FFFFFF" fill-rule="nonzero"></path>
              <path
                d="M17.0197531,14.3070968 L19.5802469,14.3070968 C19.7540361,14.3070968 19.8583096,14.4812903 19.7887939,14.643871 L13.1384615,28.3587097 C13.0110161,28.6141935 12.6402659,28.6258065 12.5128205,28.3587097 L5.81614435,14.643871 C5.73504274,14.4929032 5.85090218,14.3070968 6.02469136,14.3070968 L8.59677113,14.3070968 C8.68945869,14.3070968 8.7705603,14.3651613 8.80531814,14.4464516 L12.825641,23.1793548 L16.8112061,14.4464516 C16.8459639,14.3651613 16.9270655,14.3070968 17.0197531,14.3070968"
                id="Path" fill="#FFFFFF" fill-rule="nonzero"></path>
              <path
                d="M31.131434,19.8232258 C30.9808167,18.7780645 30.5868946,17.9419355 29.9380817,17.2916129 C29.2545109,16.6064516 28.3855651,16.2696774 27.354416,16.2696774 C26.2537512,16.2696774 25.3384615,16.5832258 24.5969611,17.2219355 C23.8554606,17.8606452 23.3920228,18.72 23.2066477,19.8116129 L31.131434,19.8116129 L31.131434,19.8232258 Z M31.9076923,24.0154839 L33.6339981,25.0258065 C33.7498575,25.0954839 33.7846154,25.2464516 33.7150997,25.3509677 C32.1625831,27.7896774 29.9844255,28.9974194 27.1574549,28.9974194 C25.0951567,28.9974194 23.4267806,28.2541935 22.1523267,26.756129 C20.9126306,25.2929032 20.2985755,23.3419355 20.2985755,20.8916129 C20.2985755,20.0206452 20.4839506,19.1148387 20.8547009,18.1625806 C21.5382716,16.3974194 22.6968661,15.1780645 24.3188984,14.4812903 C25.1762583,14.1212903 26.1147198,13.9354839 27.1574549,13.9354839 C30.1234568,13.9354839 32.1278253,15.1896774 33.1473884,17.6864516 C33.6339981,18.8593548 33.8541311,19.9741935 33.8077873,21.0425806 L33.7846154,21.6580645 C33.7846154,21.7858065 33.6803419,21.8787097 33.5528965,21.8787097 L23.0792023,21.8787097 C23.0792023,23.2141935 23.4731244,24.3290323 24.2493827,25.2232258 C25.0719848,26.1522581 26.1494777,26.6167742 27.4702754,26.6167742 C29.1270655,26.6167742 30.7490978,25.5251613 31.5832858,24.1083871 C31.6528015,23.9806452 31.7918329,23.9458065 31.9076923,24.0154839"
                id="Shape" fill="#FFFFFF" fill-rule="nonzero"></path>
              <path
                d="M36.5420703,14.3070968 L38.7781576,14.3070968 C38.905603,14.3070968 39.0098765,14.4116129 39.0098765,14.5393548 L39.0098765,16.3277419 C40.0526116,14.7251613 41.5124406,13.923871 43.3893637,13.923871 C46.6797721,13.923871 48.3365622,15.9445161 48.3365622,19.9974194 L48.3365622,28.2774194 C48.3365622,28.4051613 48.2322887,28.5096774 48.1048433,28.5096774 L45.85717,28.5096774 C45.7297246,28.5096774 45.6254511,28.4051613 45.6254511,28.2774194 L45.6254511,19.9393548 C45.6254511,18.7316129 45.4169041,17.8490323 44.9882241,17.2916129 C44.5016144,16.6529032 43.6790123,16.3277419 42.5088319,16.3277419 C40.180057,16.3277419 39.0098765,17.8025806 39.0098765,20.7522581 L39.0098765,28.2774194 C39.0098765,28.4051613 38.905603,28.5096774 38.7781576,28.5096774 L36.5420703,28.5096774 C36.4146249,28.5096774 36.3103514,28.4051613 36.3103514,28.2774194 L36.3103514,14.5393548 C36.3103514,14.4116129 36.4146249,14.3070968 36.5420703,14.3070968"
                id="Path" fill="#FFFFFF" fill-rule="nonzero"></path>
              <path
                d="M62.0774929,21.483871 C62.0774929,19.44 61.3707502,17.9767742 59.957265,17.1290323 C59.2621083,16.7109677 58.474264,16.5019355 57.5937322,16.5019355 C55.7747388,16.5019355 54.5118708,17.396129 53.7703704,19.1729032 C53.4575499,19.9393548 53.2953466,20.7290323 53.2953466,21.5419355 C53.2953466,23.2258065 53.8746439,24.5729032 55.0448243,25.5716129 C55.6936372,26.1290323 56.5162393,26.396129 57.5242165,26.396129 C59.4822412,26.396129 60.8377968,25.5483871 61.5908832,23.8412903 C61.9152896,23.1096774 62.0774929,22.3316129 62.0774929,21.483871 M62.6336182,6.93290323 L64.8812915,6.93290323 C65.0087369,6.93290323 65.1130104,7.03741935 65.1130104,7.16516129 L65.1130104,28.2774194 C65.1130104,28.4051613 65.0087369,28.5096774 64.8812915,28.5096774 L62.6336182,28.5096774 C62.5061728,28.5096774 62.4018993,28.4051613 62.4018993,28.2774194 L62.4018993,26.1987097 C61.1737892,28.0567742 59.5633428,28.9974194 57.5589744,28.9974194 C55.3344729,28.9974194 53.5965812,28.1612903 52.3452991,26.5006452 C51.2446344,25.0374194 50.688509,23.3767742 50.688509,21.5535484 C50.688509,20.1251613 50.9665717,18.836129 51.5111111,17.6864516 C52.1251662,16.4090323 53.005698,15.4451613 54.1527066,14.7948387 C55.1606838,14.2258065 56.2613485,13.9354839 57.431529,13.9354839 C58.4047483,13.9354839 59.3663818,14.2025806 60.3048433,14.7367742 C61.2548908,15.2709677 61.9384615,15.956129 62.3903134,16.803871 L62.3903134,7.16516129 C62.4018993,7.03741935 62.5061728,6.93290323 62.6336182,6.93290323"
                id="Shape" fill="#FFFFFF" fill-rule="nonzero"></path>
            </g>
          </g>
        </g>
      </g>
    </g>
  </g>
</svg>
