<?xml version="1.0" encoding="UTF-8"?>
<svg width="124px" height="36px" viewBox="0 0 124 36" version="1.1" xmlns="http://www.w3.org/2000/svg"
     xmlns:xlink="http://www.w3.org/1999/xlink">
  <!-- Generator: Sketch 63.1 (92452) - https://sketch.com -->
  <title>Product — Shopify</title>
  <desc>Created with Sketch.</desc>
  <g id="Symbols" stroke="none" stroke-width="1" fill="none" fill-rule="evenodd" opacity="1">
    <g id="Molecules/Product-Logos/XL" transform="translate(-312.000000, -19.000000)">
      <g id="Logotypes" transform="translate(60.000000, 0.000000)">
        <g id="Logos">
          <g id="Atoms/Logotypes/Products/Shopify-Black" transform="translate(252.000000, 19.000000)">
            <g id="Shopify">
              <path
                d="M26.6585101,6.80568182 C26.6383904,6.625 26.4774334,6.54469697 26.3567156,6.54469697 C26.2359978,6.54469697 23.6003263,6.34393939 23.6003263,6.34393939 C23.6003263,6.34393939 21.7694399,4.51704545 21.548124,4.33636364 C21.3469277,4.13560606 20.9646547,4.19583333 20.8036977,4.23598485 C20.783578,4.23598485 20.4013051,4.35643939 19.7775965,4.55719697 C19.153888,2.77045455 18.0875476,1.14431818 16.1761827,1.14431818 L15.995106,1.14431818 C15.4719956,0.461742424 14.7879282,0.140530303 14.2245786,0.140530303 C9.79825992,0.140530303 7.66557912,5.66136364 7.00163132,8.4719697 C5.27134312,9.01401515 4.04404568,9.37537879 3.90320827,9.43560606 C2.93746601,9.73674242 2.91734638,9.75681818 2.7966286,10.6602273 C2.69603045,11.342803 0.181076672,30.7560606 0.181076672,30.7560606 L19.7574769,34.4098485 L30.3807229,32.1212121 C30.4007613,32.0810606 26.6786297,6.98636364 26.6585101,6.80568182 Z M18.6911365,4.83825758 C18.2082654,4.97878788 17.6247961,5.1594697 17.0413268,5.36022727 L17.0413268,4.99886364 C17.0413268,3.91477273 16.9004894,3.03143939 16.6389342,2.32878788 C17.6449157,2.44924242 18.2686243,3.55340909 18.6911365,4.83825758 Z M15.4116368,2.54962121 C15.673192,3.23219697 15.8542686,4.19583333 15.8542686,5.52083333 L15.8542686,5.72159091 C14.7678086,6.06287879 13.6209897,6.40416667 12.4339315,6.78560606 C13.0978793,4.25606061 14.365416,3.01136364 15.4116368,2.54962121 Z M14.1239804,1.30492424 C14.3251767,1.30492424 14.526373,1.38522727 14.6873301,1.50568182 C13.2588363,2.16818182 11.7498641,3.8344697 11.1261555,7.20719697 C10.1805329,7.50833333 9.27514954,7.76931818 8.41000544,8.05037879 C9.13431213,5.48068182 10.9450788,1.30492424 14.1239804,1.30492424 L14.1239804,1.30492424 Z"
                id="Shape" fill="#5e7599" fill-rule="nonzero"></path>
              <path
                d="M26.3567156,6.50454545 C26.2359978,6.50454545 23.6003263,6.30378788 23.6003263,6.30378788 C23.6003263,6.30378788 21.7694399,4.47689394 21.548124,4.29621212 C21.4676455,4.21590909 21.3670473,4.17575758 21.2865688,4.17575758 L19.8178358,34.4098485 L30.4410005,32.1212121 C30.4410005,32.1212121 26.718869,6.98636364 26.6987493,6.80568182 C26.6182708,6.625 26.4774334,6.54469697 26.3567156,6.50454545 L26.3567156,6.50454545 Z"
                id="Path" fill="#5e7599" fill-rule="nonzero"></path>
              <path
                d="M16.1761827,12.3666667 L14.8885264,16.2412879 C14.8885264,16.2412879 13.7215878,15.6189394 12.3333333,15.6189394 C10.2610114,15.6189394 10.1604133,16.9238636 10.1604133,17.2450758 C10.1604133,19.0117424 14.7879282,19.6943182 14.7879282,23.85 C14.7879282,27.1223485 12.7156063,29.230303 9.91897771,29.230303 C6.53887983,29.230303 4.84883089,27.1424242 4.84883089,27.1424242 L5.75421425,24.1712121 C5.75421425,24.1712121 7.52474171,25.6969697 9.01359434,25.6969697 C9.99945623,25.6969697 10.4018488,24.9340909 10.4018488,24.3719697 C10.4018488,22.0632576 6.61935835,21.9628788 6.61935835,18.1484848 C6.61935835,14.9564394 8.91299619,11.8647727 13.5606308,11.8647727 C15.290919,11.844697 16.1761827,12.3666667 16.1761827,12.3666667 L16.1761827,12.3666667 Z"
                id="Path" fill="#FFFFFF" fill-rule="nonzero"></path>
              <path
                d="M42.7743339,19.6541667 C41.7079935,19.0920455 41.1647635,18.5901515 41.1647635,17.9276515 C41.1647635,17.0844697 41.9293094,16.5424242 43.1163676,16.5424242 C44.5046221,16.5424242 45.7319195,17.1045455 45.7319195,17.1045455 L46.6976618,14.1534091 C46.6976618,14.1534091 45.812398,13.4708333 43.1968461,13.4708333 C39.555193,13.4708333 37.0201196,15.5587121 37.0201196,18.4897727 C37.0201196,20.1560606 38.2071778,21.4208333 39.776509,22.3242424 C41.0641653,23.0268939 41.5067972,23.5488636 41.5067972,24.3117424 C41.5067972,25.094697 40.862969,25.7371212 39.6759108,25.7371212 C37.925503,25.7371212 36.2555737,24.8337121 36.2555737,24.8337121 L35.2294725,27.7848485 C35.2294725,27.7848485 36.7585644,28.8087121 39.3338771,28.8087121 C43.0761283,28.8087121 45.7922784,26.9617424 45.7922784,23.6492424 C45.7520392,21.8424242 44.4040239,20.5977273 42.7743339,19.6541667 L42.7743339,19.6541667 Z M57.7030995,13.4306818 C55.8520935,13.4306818 54.4034802,14.3140152 53.2969005,15.6390152 L53.2566612,15.6189394 L54.8662316,7.26742424 L50.7014682,7.26742424 L46.6373029,28.5477273 L50.8020663,28.5477273 L52.1903208,21.280303 C52.7335508,18.5299242 54.1620446,16.8234848 55.4899402,16.8234848 C56.4355628,16.8234848 56.7977162,17.4659091 56.7977162,18.3693182 C56.7977162,18.9314394 56.7574769,19.6541667 56.6166395,20.2162879 L55.0473083,28.5477273 L59.2120718,28.5477273 L60.8417618,19.955303 C61.0228385,19.0518939 61.1435563,17.967803 61.1435563,17.225 C61.1234367,14.8359848 59.8961392,13.4306818 57.7030995,13.4306818 L57.7030995,13.4306818 Z M70.5595432,13.4306818 C65.5296357,13.4306818 62.2098967,17.9477273 62.2098967,22.9867424 C62.2098967,26.1988636 64.2017401,28.8087121 67.9439913,28.8087121 C72.8733007,28.8087121 76.1930397,24.4121212 76.1930397,19.2526515 C76.2131593,16.2613636 74.4828711,13.4306818 70.5595432,13.4306818 Z M68.5073409,25.6367424 C67.0788472,25.6367424 66.4953779,24.432197 66.4953779,22.9064394 C66.4953779,20.5174242 67.7226754,16.642803 69.9961936,16.642803 C71.4649266,16.642803 71.9679173,17.9276515 71.9679173,19.1522727 C71.9679173,21.7018939 70.7003806,25.6367424 68.5073409,25.6367424 Z M86.8765633,13.4306818 C84.0598151,13.4306818 82.4703643,15.9200758 82.4703643,15.9200758 L82.4301251,15.9200758 L82.6715606,13.6916667 L78.9695487,13.6916667 C78.788472,15.1973485 78.4464383,17.5060606 78.1245242,19.2125 L75.2474171,34.45 L79.4121805,34.45 L80.5791191,28.2867424 L80.6797172,28.2867424 C80.6797172,28.2867424 81.5448613,28.8287879 83.1141925,28.8287879 C88.0233823,28.8287879 91.2224035,23.8098485 91.2224035,18.7507576 C91.2022838,15.9401515 89.9347471,13.4306818 86.8765633,13.4306818 L86.8765633,13.4306818 Z M82.8928766,25.6768939 C81.8064165,25.6768939 81.1625884,25.0545455 81.1625884,25.0545455 L81.8466558,21.1799242 C82.3295269,18.5700758 83.6976618,16.8636364 85.1462751,16.8636364 C86.4339315,16.8636364 86.8162045,18.0481061 86.8162045,19.1522727 C86.8363241,21.8424242 85.2267537,25.6768939 82.8928766,25.6768939 L82.8928766,25.6768939 Z M97.1576944,7.46818182 C95.8297988,7.46818182 94.7634584,8.53219697 94.7634584,9.87727273 C94.7634584,11.1018939 95.548124,11.9651515 96.7351822,11.9651515 L96.7754214,11.9651515 C98.0831974,11.9651515 99.1897771,11.0818182 99.2098967,9.55606061 C99.2300163,8.33143939 98.4051115,7.46818182 97.1576944,7.46818182 L97.1576944,7.46818182 Z M91.3230016,28.5276515 L95.4877651,28.5276515 L98.3045133,13.7518939 L94.1196302,13.7518939 M108.927678,13.7318182 L106.030451,13.7318182 L106.171289,13.0492424 C106.412724,11.6238636 107.257749,10.3791667 108.666123,10.3791667 C109.410549,10.3791667 109.994018,10.6 109.994018,10.6 L110.798804,7.32765152 C110.798804,7.32765152 110.094617,6.96628788 108.525285,6.96628788 C107.056552,6.96628788 105.5677,7.38787879 104.441001,8.35151515 C103.012507,9.55606061 102.348559,11.3026515 102.026645,13.0693182 L101.905927,13.7518939 L99.954323,13.7518939 L99.3306145,16.9037879 L101.282219,16.9037879 L99.0690593,28.5477273 L103.233823,28.5477273 L105.446982,16.9037879 L108.324089,16.9037879 L108.927678,13.7318182 L108.927678,13.7318182 Z M118.967374,13.7518939 C118.967374,13.7518939 116.351822,20.3166667 115.205003,23.9102273 L115.164763,23.9102273 C115.084285,22.7458333 114.138662,13.7518939 114.138662,13.7518939 L109.752583,13.7518939 L112.267537,27.2829545 C112.307776,27.5840909 112.287656,27.7647727 112.166939,27.9655303 C111.684067,28.9090909 110.859163,29.8125 109.89342,30.475 C109.108755,31.0371212 108.223491,31.4185606 107.519304,31.6594697 L108.686243,35.192803 C109.531267,35.0121212 111.301794,34.3094697 112.770527,32.9242424 C114.661773,31.1575758 116.4323,28.407197 118.243067,24.6731061 L123.333333,13.7318182 L118.967374,13.7318182 L118.967374,13.7518939 Z"
                id="Shape" fill="#5e7599" fill-rule="nonzero"></path>
            </g>
          </g>
        </g>
      </g>
    </g>
  </g>
</svg>
