<?xml version="1.0" encoding="UTF-8"?>
<svg width="200px" height="33px" viewBox="0 0 200 33" version="1.1" xmlns="http://www.w3.org/2000/svg" xmlns:xlink="http://www.w3.org/1999/xlink">
    <!-- Generator: Sketch 63.1 (92452) - https://sketch.com -->
    <title>Product — Receipt Bank</title>
    <desc>Created with Sketch.</desc>
    <g id="Symbols" stroke="none" stroke-width="1" fill="none" fill-rule="evenodd" opacity="1">
        <g id="Molecules/Product-Logos/XL" transform="translate(-627.000000, -22.000000)" fill="#5e7599">
            <g id="Logotypes" transform="translate(60.000000, 0.000000)">
                <g id="Logos">
                    <g id="Atoms/Logotypes/Products/Receipt-Bank-Black" transform="translate(567.000000, 23.000000)">
                        <g id="Receipt-Bank" transform="translate(0.000000, -1.000000)">
                            <g id="Group" transform="translate(100.000000, 16.515762) scale(-1, 1) rotate(-180.000000) translate(-100.000000, -16.515762) translate(0.000000, 0.352497)" fill-rule="nonzero">
                                <path d="M36.4301183,18.0934109 L40.0693687,18.0934109 C41.2028156,18.0934109 42.0797718,18.3841204 42.70051,18.9658604 C43.3225202,19.5472794 43.6342976,20.3495276 43.6342976,21.3719171 C43.6342976,22.4137943 43.3399194,23.2334209 42.7541159,23.8309802 C42.1669041,24.4286771 41.2677332,24.7274109 40.0536049,24.7274109 L36.4301183,24.7274109 L36.4301183,18.0934109 Z M40.0252119,14.4058022 L36.4301183,14.4058022 L36.4301183,6.31449467 L31.9184546,6.31449467 L31.9184546,28.4152031 L40.0536049,28.4152031 C42.6401806,28.4152031 44.63641,27.8334631 46.0402033,26.6704417 C47.4430425,25.5054945 48.145825,23.8614268 48.145825,21.7362211 C48.145825,20.2280624 47.8214639,18.9705374 47.1754673,17.9639214 C46.5281079,16.9572595 45.5482101,16.1551947 44.2358649,15.5592861 L48.9721737,6.52674929 L48.9721737,6.31449467 L44.1299251,6.31449467 L40.0252119,14.4058022" id="Shape"></path>
                                <path d="M57.4696181,19.5058739 C56.6069265,19.5058739 55.907324,19.2103498 55.3721735,18.6205397 C54.8356602,18.0310505 54.492219,17.1874427 54.3418499,16.0896705 L60.3875056,16.0896705 L60.3875056,16.4412731 C60.3666084,17.4159752 60.1072103,18.1716824 59.6052228,18.705414 C59.1032353,19.2390081 58.3927299,19.5058739 57.4696181,19.5058739 L57.4696181,19.5058739 Z M57.9666084,6.01090041 C55.5797828,6.01090041 53.6372502,6.74886236 52.138102,8.22707891 C50.6394082,9.70511205 49.8902884,11.6735914 49.8902884,14.1308662 L49.8902884,14.5556964 C49.8902884,16.2062752 50.2069266,17.6810986 50.8370231,18.9818173 C51.4702997,20.2807477 52.3643371,21.2826867 53.5218612,21.9871758 C54.6807482,22.6901976 56.0009072,23.0418002 57.4855182,23.0418002 C59.7110718,23.0418002 61.4618951,22.3337346 62.7411682,20.9165945 C64.0186242,19.4994545 64.6582607,17.491037 64.6582607,14.8913879 L64.6582607,13.0984348 L54.2973297,13.0984348 C54.4367959,12.026432 54.860646,11.1672341 55.5670628,10.5197406 C56.2743881,9.87133002 57.1688799,9.54838569 58.2519009,9.54838569 C59.926404,9.54838569 61.2342972,10.1606181 62.1773977,11.3843033 L64.3116395,8.96985544 C63.6611001,8.04027283 62.7793284,7.31304055 61.6649615,6.79237708 C60.5533205,6.27148434 59.3185675,6.01090041 57.9666084,6.01090041" id="Shape"></path>
                                <path d="M73.8934678,9.54838569 C74.6943763,9.54838569 75.3467329,9.77049876 75.8469033,10.2161463 C76.3484365,10.6603266 76.6096517,11.2532089 76.6287318,11.9915377 L80.7050519,11.9915377 C80.6955119,10.8779461 80.3947737,9.85826185 79.8028373,8.933127 C79.2109009,8.00675412 78.4018152,7.28763786 77.3742173,6.77802502 C76.3452565,6.26666975 75.2104467,6.01090041 73.9679709,6.01090041 C71.6424741,6.01090041 69.8076076,6.75688667 68.4638257,8.24945529 C67.1195895,9.74184049 66.4486071,11.8043648 66.4486071,14.4344604 L66.4486071,14.7237026 C66.4486071,17.2530129 67.1150466,19.2725268 68.4479256,20.7808231 C69.7821675,22.2875604 71.6124911,23.0418002 73.9375336,23.0418002 C75.9736494,23.0418002 77.6036324,22.4569881 78.8324796,21.2889686 C80.0608725,20.1193444 80.684609,18.5630397 80.7050519,16.6203758 L76.6287318,16.6203758 C76.6096517,17.4750801 76.3484365,18.1700775 75.8469033,18.7036258 C75.3467329,19.2374033 74.6848363,19.5058739 73.8616677,19.5058739 C72.8504241,19.5058739 72.0858585,19.131895 71.5693338,18.3873302 C71.0519006,17.6427653 70.7938654,16.4349912 70.7938654,14.7620359 L70.7938654,14.3065758 C70.7938654,12.6130324 71.0505377,11.3968671 71.5616109,10.6571169 C72.0731385,9.91736666 72.8504241,9.54838569 73.8934678,9.54838569" id="Path"></path>
                                <path d="M90.1792141,19.5058739 C89.3165225,19.5058739 88.61692,19.2103498 88.0817695,18.6205397 C87.5452562,18.0310505 87.2013607,17.1874427 87.0509916,16.0896705 L93.0966473,16.0896705 L93.0966473,16.4412731 C93.0762044,17.4159752 92.816352,18.1716824 92.3148188,18.705414 C91.8128313,19.2390081 91.1018717,19.5058739 90.1792141,19.5058739 Z M90.6762044,6.01090041 C88.2889245,6.01090041 86.3468462,6.74886236 84.847698,8.22707891 C83.3485499,9.70511205 82.5998844,11.6735914 82.5998844,14.1308662 L82.5998844,14.5556964 C82.5998844,16.2062752 82.9165226,17.6810986 83.5466191,18.9818173 C84.1798957,20.2807477 85.0739331,21.2826867 86.2314572,21.9871758 C87.3898899,22.6901976 88.7100489,23.0418002 90.1951142,23.0418002 C92.4206678,23.0418002 94.1714911,22.3337346 95.4507642,20.9165945 C96.7282202,19.4994545 97.3674024,17.491037 97.3674024,14.8913879 L97.3674024,13.0984348 L87.0069257,13.0984348 C87.1463919,12.026432 87.570242,11.1672341 88.2766588,10.5197406 C88.9839841,9.87133002 89.8784759,9.54838569 90.9610426,9.54838569 C92.636,9.54838569 93.9434389,10.1606181 94.8869937,11.3843033 L97.0207812,8.96985544 C96.3702418,8.04027283 95.4884701,7.31304055 94.3741033,6.79237708 C93.2629165,6.27148434 92.0281635,6.01090041 90.6762044,6.01090041" id="Shape"></path>
                                <polyline id="Path" points="104.421576 6.03240558 100.060418 6.03240558 100.060418 22.7382059 104.421576 22.7382059 104.421576 6.03240558"></polyline>
                                <path d="M117.800792,14.6932561 C117.800792,16.2207649 117.531854,17.3998808 116.996703,18.2307872 C116.46019,19.0600888 115.679725,19.4738225 114.657124,19.4738225 C113.293808,19.4738225 112.357067,18.9481152 111.84554,17.8951415 L111.84554,11.1717277 C112.37751,10.0884451 113.324245,9.54838569 114.688924,9.54838569 C116.762291,9.54838569 117.800792,11.2630674 117.800792,14.6932561 L117.800792,14.6932561 Z M122.147867,14.3737507 C122.147867,11.844303 121.578191,9.81850709 120.439747,8.29549193 C119.301757,6.77123874 117.766266,6.01090041 115.831457,6.01090041 C114.186936,6.01090041 112.8586,6.58764239 111.84554,7.74112634 L111.84554,-0.000179114194 L107.498918,-0.000179114194 L107.498918,22.7382059 L111.529356,22.7382059 L111.681087,21.1293994 C112.732308,22.4041193 114.106528,23.0418002 115.800111,23.0418002 C117.805789,23.0418002 119.364903,22.292375 120.477907,20.7951752 C121.590457,19.2981129 122.147867,17.2338462 122.147867,14.6020999 L122.147867,14.3737507" id="Shape"></path>
                                <path d="M130.04429,26.7757666 L130.04429,22.7382059 L132.825437,22.7382059 L132.825437,19.520226 L130.04429,19.520226 L130.04429,11.3234102 C130.04429,10.7162217 130.157862,10.281854 130.38864,10.0181979 C130.619872,9.75435842 131.060076,9.62363085 131.711979,9.62363085 C132.193523,9.62363085 132.61919,9.65857101 132.991706,9.730744 L132.991706,6.40546749 C132.1381,6.14162798 131.261326,6.01090041 130.359111,6.01090041 C127.311752,6.01090041 125.75718,7.56381188 125.69676,10.6701851 L125.69676,19.520226 L123.320837,19.520226 L123.320837,22.7382059 L125.69676,22.7382059 L125.69676,26.7757666 L130.04429,26.7757666" id="Path"></path>
                                <path d="M137.8653,16.9239701 L137.8653,7.8930381 L143.415329,7.8930381 C144.999883,7.8930381 146.255533,8.29906849 147.183188,9.11227559 C148.109025,9.92543683 148.572853,11.0553064 148.572853,12.4993164 C148.572853,13.8639545 148.129468,14.9424226 147.243154,15.7349957 C146.355022,16.5275688 145.130263,16.9239701 143.565698,16.9239701 L137.8653,16.9239701 Z M137.8653,18.5023301 L142.918338,18.5023301 C144.463369,18.5343815 145.658599,18.9001527 146.505391,19.6047794 C147.352183,20.3095894 147.776941,21.3367936 147.776941,22.6853372 C147.776941,24.1043113 147.3381,25.1508655 146.460871,25.8250456 C145.582733,26.4994092 144.258032,26.8365221 142.483131,26.8365221 L137.8653,26.8365221 L137.8653,18.5023301 Z M136.016351,6.31449467 L136.016351,28.4152031 L142.483131,28.4152031 C144.829071,28.4152031 146.60806,27.9262242 147.82237,26.9498713 C149.034863,25.972097 149.641336,24.5323971 149.641336,22.6278372 C149.641336,21.4838449 149.332875,20.4901136 148.716862,19.6432961 C148.09994,18.798221 147.255874,18.1924539 146.182393,17.82815 C147.455306,17.5455106 148.481087,16.914295 149.257918,15.9330817 C150.033841,14.9520976 150.423619,13.8192017 150.423619,12.534761 C150.423619,10.582422 149.799883,9.05761853 148.550593,7.96021309 C147.303574,6.86257838 145.565471,6.31449467 143.339463,6.31449467 L136.016351,6.31449467" id="Shape"></path>
                                <path d="M157.589547,7.61989039 C158.792955,7.61989039 159.869161,7.91399303 160.815896,8.50022662 C161.763994,9.08682704 162.452239,9.87133002 162.883358,10.85236 L162.883358,14.4665118 L159.666549,14.4665118 C157.871206,14.4457403 156.467458,14.1134878 155.45576,13.4709923 C154.442699,12.8284968 153.936169,11.9449508 153.936169,10.8233349 C153.936169,9.90127218 154.274613,9.13786169 154.951047,8.53067317 C155.628389,7.92348465 156.506981,7.61989039 157.589547,7.61989039 L157.589547,7.61989039 Z M163.244516,6.31449467 C163.06371,6.83034355 162.949684,7.59425843 162.899258,8.60591833 C162.267344,7.77661674 161.463255,7.13572609 160.484721,6.68668537 C159.508457,6.2362232 158.473136,6.01090041 157.380575,6.01090041 C155.816918,6.01090041 154.550365,6.45205438 153.583188,7.33060234 C152.614193,8.21272685 152.13174,9.32448435 152.13174,10.6701851 C152.13174,12.2696834 152.790002,13.535141 154.108344,14.4665118 C155.427594,15.3962779 157.264732,15.8628804 159.620666,15.8628804 L162.883358,15.8628804 L162.883358,17.7290611 C162.883358,18.9035459 162.525834,19.8252417 161.80806,20.4996052 C161.091194,21.1721805 160.046788,21.5094768 158.672568,21.5094768 C157.420098,21.5094768 156.381597,21.1851111 155.560246,20.5379385 C154.738894,19.8893904 154.32731,19.1095186 154.32731,18.1987358 L152.522427,18.2148303 C152.522427,19.520226 153.123903,20.651517 154.32731,21.606915 C155.530263,22.5641012 157.008514,23.0418002 158.764334,23.0418002 C160.578304,23.0418002 162.009309,22.5832679 163.05735,21.6678081 C164.103573,20.7519814 164.643721,19.4738225 164.673704,17.834386 L164.673704,10.0629965 C164.673704,8.47459466 164.839519,7.28584958 165.169331,6.49685299 L165.169331,6.31449467 L163.244516,6.31449467" id="Shape"></path>
                                <path d="M169.438269,22.7382059 L169.49869,19.93075 C170.109706,20.9424099 170.872909,21.7138447 171.784209,22.24455 C172.695964,22.7765392 173.704482,23.0418002 174.806583,23.0418002 C176.551046,23.0418002 177.850308,22.5465394 178.702097,21.5542296 C179.553885,20.5619656 179.985913,19.074395 179.995453,17.0916095 L179.995453,6.31449467 L178.206469,6.31449467 L178.206469,17.1059615 C178.195566,18.5741362 177.886651,19.6672773 177.280632,20.3846512 C176.674158,21.103584 175.7038,21.4630734 174.370921,21.4630734 C173.258372,21.4630734 172.273931,21.1116542 171.415782,20.4086324 C170.558996,19.7040058 169.924357,18.7564945 169.512773,17.5628432 L169.512773,6.31449467 L167.724243,6.31449467 L167.724243,22.7382059 L169.438269,22.7382059" id="Path"></path>
                                <polyline id="Path" points="186.886537 14.5877936 184.824981 12.5843742 184.824981 6.31449467 183.020552 6.31449467 183.020552 28.4152031 184.824981 28.4152031 184.824981 14.709213 186.525379 16.5594827 192.749569 22.7382059 195.02146 22.7382059 188.11811 15.8165227 195.622937 6.31449467 193.471432 6.31449467 186.886537 14.5877936"></polyline>
                                <path d="M104.421576,26.2353862 C104.421576,25.0199087 103.445313,24.034431 102.240543,24.034431 C101.036681,24.034431 100.060418,25.0199087 100.060418,26.2353862 C100.060418,27.4510472 101.036681,28.4365249 102.240543,28.4365249 C103.445313,28.4365249 104.421576,27.4510472 104.421576,26.2353862" id="Path"></path>
                                <path d="M199.48665,27.4931404 L199.458485,27.5026321 L198.756156,25.8719535 L198.517201,25.8719535 L197.786707,27.56889 L197.758541,27.5593984 L197.758541,25.8719535 L197.32288,25.8719535 L197.32288,28.4102051 L197.866207,28.4102051 L198.620324,26.5667676 L198.64849,26.5667676 L199.40715,28.4102051 L199.922312,28.4102051 L199.922312,25.8719535 L199.48665,25.8719535 L199.48665,27.4931404 Z M196.957633,28.0227911 L196.278473,28.0227911 L196.278473,25.8719535 L195.838723,25.8719535 L195.838723,28.0227911 L195.159564,28.0227911 L195.159564,28.4102051 L196.957633,28.4102051 L196.957633,28.0227911" id="Shape"></path>
                                <polyline id="Path" points="18.8877224 21.3892955 15.7077111 21.3892955 15.7077111 22.7648925 18.8877224 22.7648925 18.8877224 21.3892955"></polyline>
                                <polyline id="Path" points="13.5498463 21.3892955 6.81112987 21.3892955 6.81112987 22.7648925 13.5498463 22.7648925 13.5498463 21.3892955"></polyline>
                                <polyline id="Path" points="12.0143098 14.3585275 6.81112987 14.3585275 6.81112987 15.7341245 12.0143098 15.7341245 12.0143098 14.3585275"></polyline>
                                <polyline id="Path" points="15.2700962 17.8741866 6.81112987 17.8741866 6.81112987 19.2497836 15.2700962 19.2497836 15.2700962 17.8741866"></polyline>
                                <polyline id="Path" points="25.204088 24.4566017 12.8990797 30.4748387 0.594121507 24.4566017 -0.000177455986 25.6942722 12.8990797 32.0035855 25.7982049 25.6942722 25.204088 24.4566017"></polyline>
                                <path d="M20.5525946,6.98977525 L19.5558428,7.68380979 L17.8776145,6.51510257 L16.1996135,7.68380979 L14.5213852,6.51510257 L12.8433841,7.68380979 L11.1651559,6.51510257 L9.48715479,7.68380979 L7.80879026,6.51510257 L6.13074374,7.68380979 L5.13417364,6.98977525 L5.13417364,24.8572673 L3.77129349,24.1551626 L3.77129349,4.36931338 L6.13074374,6.01268869 L7.80879026,4.84398147 L9.48715479,6.01268869 L11.1651559,4.84398147 L12.8433841,6.01268869 L14.5213852,4.84398147 L16.1996135,6.01268869 L17.8776145,4.84398147 L19.5558428,6.01268869 L21.9154566,4.36931338 L21.9154566,13.1580898 C21.4558541,12.5840073 20.998523,11.9574687 20.5525946,11.2782906 L20.5525946,6.98977525" id="Path"></path>
                                <path d="M21.9154566,24.3575587 L20.5525946,25.0365993 L20.5525946,19.7410552 C21.0335032,20.1931681 21.4918791,20.5961721 21.9154566,20.9468577 L21.9154566,24.3575587" id="Path"></path>
                                <path d="M17.5310387,8.81225788 L13.1024642,13.9939943 L15.1662915,15.791441 L17.109233,13.5175792 C20.698648,19.0231769 25.0344116,21.540978 25.2342526,21.6547399 L26.5758085,19.259963 L25.9048262,20.4573285 L26.5781254,19.2613845 C26.5309249,19.2340101 21.8205105,16.4729576 18.484179,10.5143758 L17.5310387,8.81225788" id="Path"></path>
                            </g>
                        </g>
                    </g>
                </g>
            </g>
        </g>
    </g>
</svg>
