<?xml version="1.0" encoding="UTF-8"?>
<svg width="165px" height="80px" viewBox="0 0 165 80" version="1.1" xmlns="http://www.w3.org/2000/svg" xmlns:xlink="http://www.w3.org/1999/xlink">
    <!-- Generator: Sketch 63.1 (92452) - https://sketch.com -->
    <title>Product — Xero Platinum</title>
    <desc>Created with Sketch.</desc>
    <g id="Symbols" stroke="none" stroke-width="1" fill="none" fill-rule="evenodd">
        <g id="Molecules/Product-Logos/XL" transform="translate(-887.000000, 0.000000)" fill="#5e7599">
            <g id="Logotypes" transform="translate(60.000000, 0.000000)">
                <g id="Logos">
                    <g id="Atoms/Logotypes/Products/Xero-Platium-Partner-Super-Colorful" transform="translate(827.000000, 0.000000)">
                        <g id="xero-platinum-partner-badge-RGB">
                            <path d="M40.1691998,79.9640068 C62.3063213,79.9640068 80.2520768,62.0901868 80.2520768,40.0422411 C80.2520768,17.9937521 62.3063213,0.119252971 40.1691998,0.119252971 C18.0318057,0.119252971 0.0844137138,17.9937521 0.0844137138,40.0422411 C0.0844137138,62.0901868 18.0318057,79.9640068 40.1691998,79.9640068" id="Fill-1" fill="#2FACD6"></path>
                            <path d="M19.2744192,39.9270628 L26.1137028,33.0975891 C26.3413062,32.8668251 26.4673131,32.5606791 26.4673131,32.2372835 C26.4673131,31.5637351 25.9178739,31.0189474 25.2424278,31.0189474 C24.9115915,31.0189474 24.60162,31.1462139 24.3688345,31.3814601 L17.534733,38.1840407 L10.6706298,31.3701868 C10.4381171,31.1418676 10.1315548,31.0189474 9.80453694,31.0189474 C9.13059094,31.0189474 8.58115176,31.5637351 8.58115176,32.2372835 C8.58115176,32.5659762 8.71070431,32.8734805 8.94703543,33.1062818 L15.7864554,39.9166044 L8.95221754,46.7390153 C8.71070431,46.9742615 8.58115176,47.2831239 8.58115176,47.6123599 C8.58115176,48.2868591 9.13059094,48.8309677 9.80453694,48.8309677 C10.1315548,48.8309677 10.4381171,48.7051952 10.6706298,48.4752462 L17.5260053,41.6596265 L24.3532882,48.450798 C24.5964379,48.7017997 24.9080459,48.8344992 25.2424278,48.8344992 C25.9178739,48.8344992 26.4673131,48.2868591 26.4673131,47.6123599 C26.4673131,47.2862479 26.3395334,46.98309 26.1102936,46.7530051 L19.2744192,39.9270628" id="Fill-2" fill="#FFFFFE"></path>
                            <path d="M59.9383734,39.9254329 C59.9383734,41.1473005 60.9375645,42.1426146 62.1681773,42.1426146 C63.3948354,42.1426146 64.3923901,41.1473005 64.3923901,39.9254329 C64.3923901,38.7016638 63.3948354,37.7071647 62.1681773,37.7071647 C60.9375645,37.7071647 59.9383734,38.7016638 59.9383734,39.9254329" id="Fill-3" fill="#FFFFFE"></path>
                            <path d="M53.1776395,39.9254329 C53.1776395,44.8619355 57.2099967,48.8742954 62.1662681,48.8742954 C67.1226759,48.8742954 71.1550331,44.8619355 71.1550331,39.9254329 C71.1550331,34.9889304 67.1226759,30.9727674 62.1662681,30.9727674 C57.2099967,30.9727674 53.1776395,34.9889304 53.1776395,39.9254329 M55.7135966,39.9254329 C55.7135966,36.3834295 58.6082097,33.5011205 62.1662681,33.5011205 C65.7190082,33.5011205 68.6136212,36.3834295 68.6136212,39.9254329 C68.6136212,43.4674363 65.7190082,46.3486587 62.1662681,46.3486587 C58.6082097,46.3486587 55.7135966,43.4674363 55.7135966,39.9254329" id="Fill-4" fill="#FFFFFE"></path>
                            <path d="M52.5405137,31.1261121 L52.1626294,31.1261121 C51.0303401,31.1261121 49.9381439,31.4816978 49.0262304,32.182275 C48.9074511,31.6325976 48.4137877,31.2220034 47.8312104,31.2220034 C47.1572644,31.2220034 46.6164166,31.7606791 46.6128709,32.4306961 C46.6128709,32.4335484 46.6181894,47.5077759 46.6181894,47.5077759 C46.6199622,48.1788795 47.1713106,48.724618 47.8433474,48.724618 C48.5170206,48.724618 49.068369,48.1788795 49.0702782,47.5058744 L49.0702782,38.2363328 C49.0702782,35.1466214 49.3536574,33.8984041 52.0122121,33.5672666 C52.2571346,33.537657 52.5249674,33.5421392 52.5249674,33.5421392 C53.2530527,33.517691 53.7692174,33.0198981 53.7692174,32.3460781 C53.7692174,31.6736163 53.2160962,31.1261121 52.5405137,31.1261121" id="Fill-5" fill="#FFFFFE"></path>
                            <path d="M44.1296895,38.2205772 C43.6011151,35.7305263 42.2324947,33.6842105 40.1481987,32.3716129 C37.1012591,30.4437351 33.0776297,30.5508998 30.133923,32.6366044 C27.732837,34.3369779 26.3466247,37.1205433 26.3466247,39.9864177 C26.3466247,40.7045161 26.4325385,41.4313073 26.6144575,42.1460102 C27.5210526,45.6967063 30.5872205,48.3864177 34.2414207,48.8311036 C35.3282984,48.9616299 36.3836744,48.9005093 37.477507,48.6165025 C38.4156038,48.3880475 39.3256082,48.0097793 40.1621085,47.4765365 C41.0320198,46.9187097 41.758196,46.1848557 42.4618709,45.3062139 C42.4757807,45.2905942 42.4898269,45.2766044 42.5037368,45.2574533 C42.9919453,44.6560272 42.902895,43.7968081 42.3654565,43.3887946 C41.9121589,43.0436672 41.1509354,42.9025467 40.5558119,43.6657385 C40.4281686,43.8471986 40.282797,44.0355857 40.1254247,44.2239728 C39.651126,44.7467572 39.0595482,45.2540577 38.3542368,45.6460441 C37.4563695,46.1255008 36.4290859,46.3991851 35.3405718,46.4027165 C31.7755584,46.3644143 29.8697722,43.8872666 29.1887349,42.1181664 C29.0735013,41.7870289 28.9806326,41.4454329 28.9174927,41.0914771 C28.9071285,41.0254669 28.9035829,40.9606791 28.9000372,40.90309 C29.6369867,40.90309 41.6917832,40.9013243 41.6917832,40.9013243 C43.4471521,40.8649236 44.3923402,39.6308319 44.1296895,38.2205772 M29.0068158,38.4505263 C29.0068158,38.4192869 29.008725,38.3827504 29.0103615,38.3478438 C29.7208549,35.5483871 32.268949,33.4742275 35.3021151,33.4742275 C38.3753743,33.4742275 40.9462424,35.5979626 41.6216885,38.4505263 L29.0068158,38.4505263" id="Fill-6" fill="#FFFFFE"></path>
                            <path d="M124.802744,79.9640068 C146.939865,79.9640068 164.886303,62.0889643 164.886303,40.0422411 C164.886303,17.9928014 146.939865,0.118166384 124.802744,0.118166384 C102.666032,0.118166384 84.7186396,17.9928014 84.7186396,40.0422411 C84.7186396,62.0889643 102.666032,79.9640068 124.802744,79.9640068" id="Fill-7" fill="#717271"></path>
                            <path d="M107.45893,43.4656706 C107.45893,42.9882513 107.198462,42.4590832 106.166678,42.4590832 L104.864197,42.4590832 L104.864197,44.9396265 L106.29173,44.9396265 C107.146368,44.9396265 107.45893,44.4725297 107.45893,43.9536842 L107.45893,43.4656706 Z M106.33346,46.0188795 L104.864197,46.0188795 L104.864197,48.4165705 C104.864197,48.7487946 104.603729,49.0080815 104.270165,49.0080815 C103.947102,49.0080815 103.676132,48.7487946 103.676132,48.4165705 L103.676132,41.9401019 C103.676132,41.6180645 103.947102,41.348455 104.270165,41.348455 L106.250137,41.348455 C108.052963,41.348455 108.646995,42.427708 108.646995,43.4450255 L108.646995,43.9743294 C108.646995,45.1781324 107.802858,46.0188795 106.33346,46.0188795 L106.33346,46.0188795 Z" id="Fill-8" fill="#FFFFFE"></path>
                            <path d="M112.022726,43.1232598 C111.637068,44.1196604 111.282776,45.1367063 110.959713,46.1849915 L113.085602,46.1849915 C112.762675,45.1367063 112.408247,44.1196604 112.022726,43.1232598 M114.294396,49.0080815 C114.044291,49.0080815 113.794186,48.8628862 113.721228,48.5411205 C113.61704,48.1052632 113.491988,47.6692699 113.377436,47.2437351 L110.667879,47.2437351 C110.542827,47.6692699 110.428411,48.1052632 110.324087,48.5411205 C110.251129,48.8628862 110.011525,49.0080815 109.771784,49.0080815 C109.438357,49.0080815 109.094429,48.7278778 109.198617,48.2920204 C109.740555,46.0085569 110.438775,43.9224448 111.272412,41.8777589 C111.491288,41.348455 111.762257,41.2445501 112.03309,41.2445501 C112.293559,41.2445501 112.595894,41.3587776 112.804132,41.8777589 C113.637905,43.9224448 114.336125,46.0085569 114.877928,48.2920204 C114.982251,48.7278778 114.627959,49.0080815 114.294396,49.0080815" id="Fill-9" fill="#FFFFFE"></path>
                            <path d="M119.650644,43.3930051 C119.650644,42.8532428 119.285169,42.4589474 118.409666,42.4589474 L117.045137,42.4589474 L117.045137,44.804618 L118.378301,44.804618 C119.201983,44.804618 119.650644,44.3894058 119.650644,43.8288625 L119.650644,43.3930051 Z M120.295679,49.0080815 C120.097941,49.0080815 119.911112,48.914635 119.774741,48.6552122 C119.33699,47.7210187 118.806506,46.7972835 118.233066,45.8840068 L117.045137,45.8840068 L117.045137,48.4164346 C117.045137,48.7486587 116.784532,49.0080815 116.451105,49.0080815 C116.128042,49.0080815 115.857208,48.7486587 115.857208,48.4164346 L115.857208,41.939966 C115.857208,41.6182003 116.128042,41.3483192 116.451105,41.3483192 L118.431486,41.3483192 C120.077485,41.3483192 120.838436,42.1578268 120.838436,43.3930051 L120.838436,43.8288625 C120.838436,44.6696095 120.380229,45.3858065 119.482907,45.6660102 C119.994299,46.4964346 120.463415,47.3267233 120.858892,48.1673345 C121.078449,48.6344312 120.681609,49.0080815 120.295679,49.0080815 L120.295679,49.0080815 Z" id="Fill-10" fill="#FFFFFE"></path>
                            <path d="M126.851038,42.4900509 L125.079577,42.4900509 L125.079577,48.4165705 C125.079577,48.7486587 124.808199,49.0080815 124.484999,49.0080815 C124.15089,49.0080815 123.890421,48.7486587 123.890421,48.4165705 L123.890421,42.4900509 L122.109415,42.4900509 C121.795761,42.4900509 121.535292,42.2409508 121.535292,41.9191851 C121.535292,41.6078778 121.795761,41.348455 122.109415,41.348455 L126.851038,41.348455 C127.172874,41.348455 127.423796,41.6078778 127.423796,41.9191851 C127.423796,42.2409508 127.172874,42.4900509 126.851038,42.4900509" id="Fill-11" fill="#FFFFFE"></path>
                            <path d="M133.102289,49.0080815 C132.85273,49.0080815 132.664538,48.9250934 132.529531,48.7174194 L129.465272,43.7044482 L129.465272,48.4683192 C129.465272,48.7694397 129.225259,49.0080815 128.923879,49.0080815 C128.621135,49.0080815 128.371576,48.7694397 128.371576,48.4683192 L128.371576,41.8050934 C128.371576,41.5039728 128.600679,41.2548727 128.955244,41.2548727 C129.204803,41.2548727 129.402541,41.3587776 129.538912,41.5663158 L132.592261,46.5689643 L132.592261,41.8050934 C132.592261,41.5039728 132.84182,41.2548727 133.144564,41.2548727 C133.436398,41.2548727 133.685958,41.5039728 133.685958,41.8050934 L133.685958,48.4683192 C133.685958,48.7589813 133.456854,49.0080815 133.102289,49.0080815" id="Fill-12" fill="#FFFFFE"></path>
                            <path d="M139.427181,48.9147708 L135.915625,48.9147708 C135.603335,48.9147708 135.352413,48.6656706 135.352413,48.3543633 L135.352413,41.9191851 C135.352413,41.6078778 135.603335,41.348455 135.915625,41.348455 L139.281264,41.348455 C139.593554,41.348455 139.844477,41.6078778 139.844477,41.9191851 C139.844477,42.2306282 139.593554,42.4797284 139.281264,42.4797284 L136.540205,42.4797284 L136.540205,44.5867572 L139.031705,44.5867572 C139.333085,44.5867572 139.573098,44.8358574 139.573098,45.1368421 C139.573098,45.437691 139.333085,45.6867912 139.031705,45.6867912 L136.540205,45.6867912 L136.540205,47.79382 L139.427181,47.79382 C139.739471,47.79382 139.990394,48.0429202 139.990394,48.3543633 C139.990394,48.6656706 139.739471,48.9147708 139.427181,48.9147708" id="Fill-13" fill="#FFFFFE"></path>
                            <path d="M144.991122,43.3930051 C144.991122,42.8532428 144.627011,42.4589474 143.751509,42.4589474 L142.386434,42.4589474 L142.386434,44.804618 L143.720143,44.804618 C144.543825,44.804618 144.991122,44.3894058 144.991122,43.8288625 L144.991122,43.3930051 Z M145.637521,49.0080815 C145.439783,49.0080815 145.251591,48.914635 145.116584,48.6552122 C144.678832,47.7210187 144.146985,46.7972835 143.574226,45.8840068 L142.386434,45.8840068 L142.386434,48.4164346 C142.386434,48.7486587 142.125965,49.0080815 141.791856,49.0080815 C141.468657,49.0080815 141.198642,48.7486587 141.198642,48.4164346 L141.198642,41.939966 C141.198642,41.6182003 141.468657,41.3483192 141.791856,41.3483192 L143.771965,41.3483192 C145.417964,41.3483192 146.178915,42.1578268 146.178915,43.3930051 L146.178915,43.8288625 C146.178915,44.6696095 145.720708,45.3858065 144.824749,45.6660102 C145.334777,46.4964346 145.803894,47.3267233 146.200734,48.1673345 C146.418928,48.6344312 146.023451,49.0080815 145.637521,49.0080815 L145.637521,49.0080815 Z" id="Fill-14" fill="#FFFFFE"></path>
                            <path d="M105.334678,33.0951443 C105.334678,32.61691 105.073663,32.086927 104.040516,32.086927 L102.735581,32.086927 L102.735581,34.571545 L104.165705,34.571545 C105.021433,34.571545 105.334678,34.1036333 105.334678,33.583837 L105.334678,33.0951443 Z M104.207434,35.6526995 L102.735581,35.6526995 L102.735581,38.0539219 C102.735581,38.3866893 102.474567,38.6466553 102.140594,38.6466553 C101.817258,38.6466553 101.545879,38.3866893 101.545879,38.0539219 L101.545879,31.5671307 C101.545879,31.2448217 101.817258,30.9745331 102.140594,30.9745331 L104.123839,30.9745331 C105.929665,30.9745331 106.524516,32.0556876 106.524516,33.0744992 L106.524516,33.6044822 C106.524516,34.8105942 105.679015,35.6526995 104.207434,35.6526995 L104.207434,35.6526995 Z" id="Fill-15" fill="#FFFFFE"></path>
                            <path d="M111.816124,38.5529372 L108.329796,38.5529372 C108.016961,38.5529372 107.766174,38.3034295 107.766174,37.9915789 L107.766174,31.4734126 C107.766174,31.1512394 108.037553,30.8809508 108.361162,30.8809508 C108.695271,30.8809508 108.956285,31.1512394 108.956285,31.4734126 L108.956285,37.4302207 L111.816124,37.4302207 C112.129368,37.4302207 112.379745,37.6797284 112.379745,37.9915789 C112.379745,38.3034295 112.129368,38.5529372 111.816124,38.5529372" id="Fill-16" fill="#FFFFFE"></path>
                            <path d="M115.67038,32.7521902 C115.284177,33.7502207 114.929067,34.7690323 114.605731,35.8189474 L116.735029,35.8189474 C116.411421,34.7690323 116.056583,33.7502207 115.67038,32.7521902 M117.945868,38.6465195 C117.695218,38.6465195 117.444841,38.5010526 117.37161,38.1787436 C117.267149,37.7420713 117.141961,37.3055348 117.027136,36.8793209 L114.313351,36.8793209 C114.188163,37.3055348 114.073338,37.7420713 113.968878,38.1787436 C113.895919,38.5010526 113.656042,38.6465195 113.415757,38.6465195 C113.081784,38.6465195 112.73731,38.3659083 112.841771,37.929236 C113.384528,35.6422411 114.083702,33.5527334 114.918703,31.504652 C115.137987,30.9745331 115.409366,30.8706282 115.680744,30.8706282 C115.941759,30.8706282 116.244366,30.9849915 116.45315,31.504652 C117.288151,33.5527334 117.987325,35.6422411 118.529673,37.929236 C118.634679,38.3659083 118.279841,38.6465195 117.945868,38.6465195" id="Fill-17" fill="#FFFFFE"></path>
                            <path d="M123.403576,32.1180306 L121.628025,32.1180306 L121.628025,38.0539219 C121.628025,38.3865535 121.356646,38.6465195 121.033447,38.6465195 C120.699337,38.6465195 120.438869,38.3865535 120.438869,38.0539219 L120.438869,32.1180306 L118.653771,32.1180306 C118.340799,32.1180306 118.079785,31.8685229 118.079785,31.5463497 C118.079785,31.2343633 118.340799,30.9745331 118.653771,30.9745331 L123.403576,30.9745331 C123.726776,30.9745331 123.977699,31.2343633 123.977699,31.5463497 C123.977699,31.8685229 123.726776,32.1180306 123.403576,32.1180306" id="Fill-18" fill="#FFFFFE"></path>
                            <path d="M125.52142,38.6465195 C125.19822,38.6465195 124.926842,38.3865535 124.926842,38.0539219 L124.926842,31.4734126 C124.926842,31.1512394 125.19822,30.8809508 125.52142,30.8809508 C125.855529,30.8809508 126.115998,31.1512394 126.115998,31.4734126 L126.115998,38.0539219 C126.115998,38.3865535 125.855529,38.6465195 125.52142,38.6465195" id="Fill-19" fill="#FFFFFE"></path>
                            <path d="M132.52544,38.6465195 C132.274517,38.6465195 132.086325,38.5633956 131.951317,38.3554499 L128.881604,33.3343294 L128.881604,38.1059423 C128.881604,38.4073345 128.64159,38.6465195 128.34021,38.6465195 C128.036103,38.6465195 127.786544,38.4073345 127.786544,38.1059423 L127.786544,31.4318506 C127.786544,31.1304584 128.015647,30.8809508 128.370212,30.8809508 C128.621135,30.8809508 128.818873,30.9848557 128.955244,31.1928014 L132.014048,36.2035993 L132.014048,31.4318506 C132.014048,31.1304584 132.263607,30.8809508 132.566351,30.8809508 C132.859549,30.8809508 133.109108,31.1304584 133.109108,31.4318506 L133.109108,38.1059423 C133.109108,38.3970119 132.880004,38.6465195 132.52544,38.6465195" id="Fill-20" fill="#FFFFFE"></path>
                            <path d="M137.284791,38.6465195 C135.457418,38.6465195 134.622827,37.4925637 134.622827,36.0891002 L134.622827,31.4734126 C134.622827,31.1512394 134.894206,30.8809508 135.217405,30.8809508 C135.540605,30.8809508 135.802437,31.1512394 135.802437,31.4734126 L135.802437,36.0475382 C135.802437,36.8376231 136.146092,37.606927 137.284791,37.606927 C138.422126,37.606927 138.765781,36.8376231 138.765781,36.0475382 L138.765781,31.4734126 C138.765781,31.1512394 139.027614,30.8809508 139.361723,30.8809508 C139.684923,30.8809508 139.956301,31.1512394 139.956301,31.4734126 L139.956301,36.0891002 C139.956301,37.4925637 139.12171,38.6465195 137.284791,38.6465195" id="Fill-21" fill="#FFFFFE"></path>
                            <path d="M148.097656,38.0954839 C148.097656,38.3970119 147.846733,38.6465195 147.543989,38.6465195 C147.241245,38.6465195 146.990323,38.3970119 146.990323,38.0954839 L146.990323,33.5005772 L145.310231,37.0247878 C145.206589,37.2533786 145.007487,37.3678778 144.778383,37.3678778 C144.558826,37.3678778 144.350178,37.2533786 144.235626,37.0247878 L142.56508,33.5005772 L142.56508,38.1059423 C142.56508,38.4073345 142.314157,38.6465195 142.012777,38.6465195 C141.719579,38.6465195 141.468657,38.4073345 141.468657,38.1059423 L141.468657,31.4318506 C141.468657,31.12 141.719579,30.8809508 142.044143,30.8809508 C142.335977,30.8809508 142.492804,30.9848557 142.616901,31.2343633 L144.787929,35.7149066 L146.980777,31.2031239 C147.106238,30.9432937 147.314886,30.8809508 147.53308,30.8809508 C147.857643,30.8809508 148.097656,31.1304584 148.097656,31.4318506 L148.097656,38.0954839" id="Fill-22" fill="#FFFFFE"></path>
                        </g>
                    </g>
                </g>
            </g>
        </g>
    </g>
</svg>
