<?xml version="1.0" encoding="UTF-8"?>
<svg width="138px" height="30px" viewBox="0 0 138 30" version="1.1" xmlns="http://www.w3.org/2000/svg" xmlns:xlink="http://www.w3.org/1999/xlink">
    <!-- Generator: Sketch 63.1 (92452) - https://sketch.com -->
    <title>Product — Fathom</title>
    <desc>Created with Sketch.</desc>
    <g id="Symbols" stroke="none" stroke-width="1" fill="none" fill-rule="evenodd" opacity="1">
        <g id="Molecules/Product-Logos/XL" transform="translate(-1328.000000, -22.000000)" fill="#5e7599">
            <g id="Logotypes" transform="translate(60.000000, 0.000000)">
                <g id="Logos">
                    <g id="Atoms/Logotypes/Products/Fathom-Black" transform="translate(1268.000000, 22.000000)">
                        <g id="Fathom">
                            <g id="Group" transform="translate(40.990099, 3.409091)" fill-rule="nonzero">
                                <path d="M64.3954455,7.5 C62.3202689,7.52141497 60.3398046,8.36997874 58.8949815,9.8567678 C57.4501584,11.3435569 56.6609159,13.3451481 56.7029703,15.4159091 C56.6195586,18.2046796 58.0626614,20.8179865 60.4696443,22.2369584 C62.8766273,23.6559302 65.8664421,23.6559302 68.273425,22.2369584 C70.6804079,20.8179865 72.1235107,18.2046796 72.040099,15.4159091 C72.0821582,13.3533096 71.2994408,11.3589113 69.8649409,9.87351096 C68.4304409,8.3881106 66.4622763,7.53401712 64.3954455,7.5 Z M64.3954455,19.425 C62.7672158,19.483371 61.2664874,18.549451 60.6024455,17.0645737 C59.9384037,15.5796964 60.2440053,13.8411696 61.3748351,12.6705525 C62.5056649,11.4999354 64.2353039,11.1316134 65.7463928,11.7396409 C67.2574818,12.3476685 68.2474648,13.810304 68.2485149,15.4363636 C68.2681211,17.5940981 66.5565101,19.3719883 64.3954455,19.4386364 L64.3954455,19.425 Z" id="Shape"></path>
                                <path d="M25.2772277,7.77272727 L24.9493069,9.49772727 C24.9493069,9.49772727 23.8220792,7.5 20.7273267,7.5 C16.7649505,7.5 13.4515842,10.3022727 13.4515842,15.2931818 C13.4515842,20.1068182 17.0245545,23.25 20.4062376,23.25 C22.2711994,23.2478371 24.0004036,22.2764362 24.969802,20.6863636 L25.2772277,22.9704545 L28.7682178,22.9704545 L28.7682178,7.77272727 L25.2772277,7.77272727 Z M21.1167327,19.4113636 C19.4885029,19.4697347 17.9877745,18.5358147 17.3237327,17.0509374 C16.6596908,15.5660601 16.9652924,13.8275333 18.0961222,12.6569161 C19.226952,11.486299 20.956591,11.117977 22.4676799,11.7260046 C23.9787689,12.3340321 24.9687519,13.7966677 24.969802,15.4227273 C25.0041068,17.5839647 23.2820571,19.3666034 21.1167327,19.4113636 L21.1167327,19.4113636 Z" id="Shape"></path>
                                <path d="M35.2651485,18.0477273 L35.2651485,11.5909091 L39.1182178,11.5909091 L39.1182178,7.73863636 L35.2651485,7.73863636 L35.2651485,3.92727273 L31.4257426,4.97045455 L31.4257426,18.0818182 C31.4257426,19.2681818 31.4257426,23.3659091 36.0644554,23.3659091 C37.127824,23.4209629 38.1860733,23.1852134 39.1250495,22.6840909 L39.1250495,19.4522727 C39.1182178,19.4113636 35.2651485,20.9590909 35.2651485,18.0477273 Z" id="Path"></path>
                                <path d="M91.8246535,7.5 C89.8947614,7.43779238 88.0700451,8.37672169 87.0014851,9.98181818 C87.0014851,9.98181818 86.0313861,7.5 82.6633663,7.5 C80.8481977,7.4238687 79.0881673,8.13195546 77.8333663,9.44318182 L77.5122772,7.71818182 L74.0212871,7.71818182 L74.0212871,23.0590909 L77.8333663,23.0590909 L77.8333663,15.3886364 C77.8333663,13.4113636 78.6258416,11.4340909 80.859802,11.4340909 C82.8,11.4340909 83.5924752,12.5863636 83.5924752,14.4886364 L83.5924752,23.0795455 L87.4455446,23.0795455 L87.4455446,14.5977273 C87.4455446,13.5545455 88.0262376,11.475 90.3968317,11.475 C92.7674257,11.475 93.170495,13.2 93.170495,14.4545455 L93.170495,23.0795455 L97.009901,23.0795455 L97.009901,13.2340909 C97.009901,11.7272727 96.3950495,7.5 91.8246535,7.5 Z" id="Path"></path>
                                <polygon id="Path" points="0.0204950495 0.0818181818 0.0204950495 23.0795455 4.23564356 23.0795455 4.23564356 13.4863636 11.5455446 13.4863636 11.5455446 9.675 4.23564356 9.675 4.23564356 3.92727273 15.3576238 3.92727273 15.3576238 0.0818181818"></polygon>
                                <path d="M49.5980198,7.5 C47.9367822,7.44372958 46.3473223,8.1774336 45.3145545,9.47727273 L45.3145545,0.109090909 L41.4614851,1.15227273 L41.4614851,23.1068182 L45.3145545,23.1068182 L45.3145545,14.3181818 C45.3145545,13.275 45.7449505,11.4818182 48.0472277,11.4818182 C50.349505,11.4818182 50.930198,13.4590909 50.930198,14.7886364 L50.930198,23.1068182 L54.7832673,23.1068182 L54.7832673,14.1272727 C54.8174257,10.5340909 52.6586139,7.5 49.5980198,7.5 Z" id="Path"></path>
                            </g>
                            <g id="Group" fill-rule="nonzero">
                                <rect id="Rectangle" x="0" y="22.5" width="7.51485149" height="7.5"></rect>
                                <polygon id="Path" points="15.029703 15 15.029703 7.5 0 7.5 0 15 7.51485149 15 7.51485149 22.5 30.0594059 22.5 30.0594059 15"></polygon>
                                <rect id="Rectangle" x="15.029703" y="0" width="15.029703" height="7.5"></rect>
                            </g>
                        </g>
                    </g>
                </g>
            </g>
        </g>
    </g>
</svg>
