<?xml version="1.0" encoding="UTF-8"?>
<svg width="196px" height="28px" viewBox="0 0 286 41" version="1.1" xmlns="http://www.w3.org/2000/svg" xmlns:xlink="http://www.w3.org/1999/xlink">
    <!-- Generator: Sketch 63.1 (92452) - https://sketch.com -->
    <title>RingCentral</title>
    <desc>Created with Sketch.</desc>
    <g id="Symbols" stroke="none" stroke-width="1" fill="none" fill-rule="evenodd" opacity="1">
        <g id="Atoms/Logotypes/Products/RingCentral-Black" fill="#5e7599">
            <g id="RingCentral">
                <path d="M12.7823529,21.7058824 L10.8529412,33.2823529 L0,33.2823529 L5.78823529,0.241176471 L21.4647059,0.241176471 C23.8764706,0.241176471 26.0470588,0.482352941 27.7352941,0.723529412 C29.4235294,0.964705882 30.8705882,1.44705882 31.8352941,2.17058824 C32.8,2.65294118 33.7647059,3.61764706 34.2470588,4.34117647 C34.7294118,5.30588235 34.9705882,6.27058824 34.9705882,7.47647059 C34.9705882,8.2 34.9705882,8.92352941 34.7294118,9.64705882 C34.4882353,11.5764706 33.7647059,13.2647059 32.5588235,14.7117647 C31.3529412,16.1588235 29.9058824,17.1235294 27.7352941,17.8470588 C28.4588235,18.0882353 28.9411765,18.3294118 29.6647059,18.5705882 C30.1470588,18.8117647 30.6294118,19.0529412 31.1117647,19.5352941 C31.5941176,20.0176471 31.8352941,20.5 32.0764706,20.9823529 C32.3176471,21.4647059 32.3176471,22.4294118 32.3176471,23.1529412 C32.3176471,24.1176471 32.3176471,25.3235294 32.0764706,26.5294118 C31.8352941,27.7352941 31.5941176,28.7 31.5941176,29.4235294 C31.3529412,30.1470588 31.3529412,30.8705882 31.3529412,31.1117647 C31.3529412,31.8352941 31.5941176,32.3176471 32.0764706,32.3176471 L31.8352941,33.2823529 L20.5,33.2823529 C20.5,33.0411765 20.5,32.5588235 20.5,32.3176471 C20.5,31.8352941 20.5,31.1117647 20.5,30.3882353 C20.5,29.6647059 20.7411765,28.7 20.9823529,27.7352941 C21.2235294,26.7705882 21.2235294,25.8058824 21.2235294,25.0823529 C21.2235294,23.8764706 20.7411765,23.1529412 20.0176471,22.6705882 C19.5352941,21.9470588 18.0882353,21.7058824 16.1588235,21.7058824 L12.7823529,21.7058824 Z M14.2294118,14.4705882 L18.5705882,14.4705882 C20.2588235,14.4705882 21.4647059,14.2294118 22.4294118,13.7470588 C23.3941176,13.2647059 23.8764706,12.5411765 24.1176471,11.3352941 C24.1176471,11.0941176 24.1176471,10.8529412 24.1176471,10.6117647 C24.1176471,9.64705882 23.8764706,8.92352941 23.1529412,8.68235294 C22.4294118,8.2 21.4647059,7.95882353 20.2588235,7.95882353 L15.1941176,7.95882353 L14.2294118,14.4705882 Z" id="Shape"></path>
                <path d="M49.9235294,9.16470588 L58.6058824,9.16470588 L57.8823529,13.0235294 C59.3294118,11.5764706 60.5352941,10.3705882 61.9823529,9.64705882 C63.4294118,8.92352941 64.8764706,8.44117647 66.8058824,8.44117647 C69.4588235,8.44117647 71.3882353,9.16470588 72.8352941,10.3705882 C74.0411765,11.5764706 74.7647059,13.5058824 74.7647059,15.9176471 C74.7647059,16.8823529 74.7647059,17.8470588 74.5235294,18.8117647 L72.1117647,33.2823529 L62.4647059,33.2823529 L64.6352941,20.5 C64.6352941,20.0176471 64.8764706,19.2941176 64.8764706,18.8117647 C64.8764706,18.0882353 64.6352941,17.3647059 64.3941176,16.6411765 C63.9117647,16.1588235 63.1882353,15.9176471 62.2235294,15.9176471 C60.7764706,15.9176471 59.5705882,16.4 59.0882353,17.1235294 C58.3647059,18.0882353 57.8823529,19.2941176 57.6411765,20.7411765 L55.4705882,33.2823529 L45.8235294,33.2823529 L49.9235294,9.16470588 Z" id="Path"></path>
                <path d="M83.9294118,34.0058824 L83.9294118,34.0058824 C83.9294118,34.4882353 84.1705882,34.7294118 84.4117647,34.9705882 C84.6529412,35.4529412 85.3764706,35.4529412 86.3411765,35.4529412 C87.7882353,35.4529412 88.7529412,35.2117647 89.4764706,34.4882353 C90.2,33.7647059 90.6823529,32.5588235 90.9235294,30.8705882 L91.4058824,28.9411765 C90.6823529,29.6647059 89.7176471,30.1470588 88.5117647,30.8705882 C87.3058824,31.3529412 85.8588235,31.5941176 84.1705882,31.5941176 C82.7235294,31.5941176 81.5176471,31.3529412 80.3117647,30.8705882 C79.1058824,30.3882353 78.3823529,29.6647059 77.6588235,28.9411765 C76.9352941,28.2176471 76.4529412,27.2529412 75.9705882,26.0470588 C75.4882353,24.8411765 75.4882353,23.8764706 75.4882353,22.4294118 C75.4882353,21.9470588 75.4882353,21.7058824 75.4882353,21.2235294 C75.4882353,20.7411765 75.4882353,20.5 75.7294118,20.0176471 C75.9705882,18.5705882 76.4529412,17.1235294 76.9352941,15.6764706 C77.6588235,14.2294118 78.3823529,12.7823529 79.5882353,11.8176471 C80.5529412,10.6117647 82,9.64705882 83.4470588,8.92352941 C84.8941176,8.2 86.5823529,7.95882353 88.7529412,7.95882353 C90.2,7.95882353 91.6470588,8.2 92.6117647,8.92352941 C93.8176471,9.64705882 94.7823529,10.6117647 95.2647059,11.8176471 L95.7470588,8.68235294 L104.188235,8.68235294 L100.811765,28.2176471 C100.570588,29.9058824 100.088235,31.8352941 99.6058824,33.2823529 C99.1235294,34.7294118 98.4,36.1764706 97.4352941,37.3823529 C96.4705882,38.5882353 95.0235294,39.5529412 93.0941176,40.0352941 C91.1647059,40.7588235 88.9941176,41 85.8588235,41 C83.6882353,41 82,40.7588235 80.5529412,40.5176471 C79.1058824,40.0352941 77.9,39.5529412 76.9352941,39.0705882 C75.9705882,38.3470588 75.4882353,37.8647059 75.0058824,36.9 C74.5235294,36.1764706 74.2823529,35.2117647 74.2823529,34.4882353 L74.2823529,34.2470588 L83.9294118,34.2470588 L83.9294118,34.0058824 Z M89.7176471,14.7117647 C88.9941176,14.7117647 88.5117647,14.9529412 87.7882353,15.1941176 C87.3058824,15.4352941 86.8235294,15.9176471 86.3411765,16.4 C85.8588235,16.8823529 85.6176471,17.3647059 85.3764706,18.0882353 C85.1352941,18.8117647 84.8941176,19.5352941 84.8941176,20.2588235 C84.8941176,20.5 84.8941176,20.7411765 84.8941176,20.9823529 C84.8941176,21.2235294 84.8941176,21.4647059 84.8941176,21.4647059 C84.8941176,22.4294118 85.1352941,23.1529412 85.6176471,23.8764706 C86.1,24.6 86.8235294,24.8411765 88.0294118,25.0823529 L88.2705882,25.0823529 C88.9941176,25.0823529 89.4764706,24.8411765 90.2,24.6 C90.6823529,24.3588235 91.1647059,23.8764706 91.6470588,23.3941176 C92.1294118,22.9117647 92.3705882,22.4294118 92.6117647,21.7058824 C92.8529412,21.2235294 93.0941176,20.5 93.0941176,19.7764706 C93.0941176,19.2941176 93.3352941,18.8117647 93.3352941,18.3294118 C93.3352941,17.3647059 93.0941176,16.4 92.6117647,15.6764706 C91.8882353,15.1941176 90.9235294,14.7117647 89.7176471,14.7117647 L89.7176471,14.7117647 Z" id="Shape"></path>
                <path d="M126.617647,13.0235294 C126.617647,13.0235294 126.617647,12.7823529 126.617647,12.7823529 C126.617647,12.7823529 126.617647,12.5411765 126.617647,12.5411765 C126.617647,11.0941176 126.135294,9.88823529 125.411765,9.16470588 C124.688235,8.44117647 123.482353,7.95882353 121.794118,7.95882353 C119.864706,7.95882353 118.417647,8.68235294 117.211765,10.1294118 C116.005882,11.5764706 115.041176,13.9882353 114.558824,16.8823529 C114.558824,17.3647059 114.317647,18.0882353 114.317647,18.5705882 C114.317647,19.0529412 114.317647,19.5352941 114.317647,20.0176471 C114.317647,20.7411765 114.317647,21.4647059 114.558824,22.1882353 C114.8,22.9117647 115.041176,23.3941176 115.282353,23.8764706 C115.764706,24.3588235 116.247059,24.8411765 116.729412,25.0823529 C117.452941,25.3235294 118.176471,25.5647059 119.141176,25.5647059 C120.829412,25.5647059 122.035294,25.0823529 123.241176,24.1176471 C124.205882,23.1529412 124.929412,21.9470588 125.411765,20.2588235 L135.3,20.2588235 C134.817647,22.1882353 133.852941,24.1176471 132.888235,25.8058824 C131.682353,27.4941176 130.476471,28.7 129.029412,29.9058824 C127.582353,31.1117647 125.894118,31.8352941 123.964706,32.5588235 C122.035294,33.0411765 120.105882,33.5235294 118.176471,33.5235294 C116.005882,33.5235294 113.835294,33.2823529 112.147059,32.5588235 C110.458824,32.0764706 109.011765,31.1117647 107.805882,30.1470588 C106.6,28.9411765 105.635294,27.7352941 105.152941,26.0470588 C104.429412,24.3588235 104.188235,22.6705882 104.188235,20.7411765 C104.188235,20.2588235 104.188235,19.5352941 104.188235,18.8117647 C104.188235,18.0882353 104.429412,17.6058824 104.429412,16.8823529 C104.911765,14.4705882 105.635294,12.0588235 106.841176,10.1294118 C108.047059,8.2 109.494118,6.27058824 111.182353,4.82352941 C112.870588,3.37647059 114.8,2.41176471 116.729412,1.44705882 C118.9,0.723529412 120.829412,0.241176471 123,0.241176471 C127.582353,0.241176471 130.958824,1.20588235 133.129412,3.13529412 C135.3,5.06470588 136.505882,7.95882353 136.505882,11.5764706 C136.505882,11.8176471 136.505882,12.0588235 136.505882,12.3 C136.505882,12.5411765 136.505882,12.7823529 136.505882,13.0235294 L126.617647,13.0235294 L126.617647,13.0235294 Z" id="Path"></path>
                <path d="M146.394118,22.6705882 C146.394118,22.9117647 146.394118,22.9117647 146.394118,23.1529412 C146.394118,23.3941176 146.394118,23.3941176 146.394118,23.6352941 C146.394118,24.8411765 146.876471,25.8058824 147.6,26.5294118 C148.323529,27.2529412 149.288235,27.4941176 150.494118,27.4941176 C151.217647,27.4941176 151.941176,27.2529412 152.664706,27.0117647 C153.388235,26.7705882 153.870588,26.0470588 154.352941,25.3235294 L163.517647,25.3235294 C162.794118,26.7705882 162.070588,27.9764706 160.864706,29.1823529 C159.658824,30.1470588 158.452941,31.1117647 157.247059,31.5941176 C156.041176,32.3176471 154.594118,32.5588235 153.147059,33.0411765 C151.7,33.2823529 150.252941,33.5235294 148.805882,33.5235294 C147.117647,33.5235294 145.429412,33.2823529 143.982353,32.8 C142.535294,32.3176471 141.329412,31.8352941 140.364706,30.8705882 C139.4,29.9058824 138.435294,28.9411765 137.952941,27.7352941 C137.470588,26.5294118 136.988235,25.0823529 136.988235,23.3941176 C136.988235,22.9117647 136.988235,22.6705882 136.988235,22.1882353 C136.988235,21.7058824 136.988235,21.4647059 137.229412,20.9823529 C137.470588,19.0529412 138.194118,17.1235294 139.158824,15.6764706 C140.123529,13.9882353 141.329412,12.7823529 142.776471,11.5764706 C144.223529,10.3705882 145.911765,9.64705882 147.6,8.92352941 C149.288235,8.2 151.217647,7.95882353 153.147059,7.95882353 C155.076471,7.95882353 156.764706,8.2 158.211765,8.68235294 C159.658824,9.16470588 160.864706,9.88823529 162.070588,11.0941176 C163.035294,12.0588235 163.758824,13.2647059 164.482353,14.7117647 C164.964706,16.1588235 165.205882,17.6058824 165.205882,19.2941176 C165.205882,20.2588235 164.964706,21.4647059 164.723529,22.9117647 L146.394118,22.9117647 L146.394118,22.6705882 Z M155.8,17.8470588 C155.8,17.6058824 155.8,17.3647059 155.8,17.1235294 C155.8,16.1588235 155.558824,15.1941176 154.835294,14.7117647 C154.111765,13.9882353 153.388235,13.7470588 152.182353,13.7470588 C150.735294,13.7470588 149.529412,14.2294118 148.564706,14.9529412 C147.6,15.6764706 147.117647,16.6411765 146.876471,18.0882353 L155.8,18.0882353 L155.8,17.8470588 Z" id="Shape"></path>
                <path d="M168.1,9.16470588 L176.782353,9.16470588 L176.058824,13.0235294 C177.505882,11.5764706 178.711765,10.3705882 180.158824,9.64705882 C181.605882,8.92352941 183.052941,8.44117647 184.982353,8.44117647 C187.635294,8.44117647 189.564706,9.16470588 191.011765,10.3705882 C192.217647,11.5764706 192.941176,13.5058824 192.941176,15.9176471 C192.941176,16.8823529 192.941176,17.8470588 192.7,18.8117647 L190.288235,33.2823529 L180.641176,33.2823529 L182.811765,20.5 C182.811765,20.0176471 183.052941,19.2941176 183.052941,18.8117647 C183.052941,18.0882353 182.811765,17.3647059 182.570588,16.6411765 C182.088235,16.1588235 181.364706,15.9176471 180.4,15.9176471 C178.952941,15.9176471 177.747059,16.4 177.264706,17.1235294 C176.541176,18.0882353 176.058824,19.2941176 175.817647,20.7411765 L173.647059,33.2823529 L164,33.2823529 L168.1,9.16470588 Z" id="Path"></path>
                <path d="M208.135294,33.2823529 C207.170588,33.2823529 205.964706,33.2823529 205.241176,33.5235294 C204.276471,33.5235294 203.552941,33.5235294 202.829412,33.5235294 C201.382353,33.5235294 200.176471,33.5235294 199.211765,33.2823529 C198.247059,33.0411765 197.523529,32.8 196.8,32.5588235 C196.317647,32.3176471 195.835294,31.8352941 195.594118,31.1117647 C195.352941,30.6294118 195.111765,29.9058824 195.111765,28.9411765 C195.111765,28.4588235 195.111765,27.7352941 195.111765,27.0117647 C195.111765,26.2882353 195.352941,25.5647059 195.352941,24.8411765 L197.041176,14.4705882 L193.664706,14.4705882 L194.629412,8.92352941 L198.247059,8.92352941 L199.694118,1.44705882 L209.1,1.44705882 L207.652941,8.92352941 L212.235294,8.92352941 L211.270588,14.4705882 L206.688235,14.4705882 L205.241176,23.3941176 C205.241176,23.6352941 205.241176,23.8764706 205,24.1176471 C205,24.3588235 205,24.6 205,24.8411765 C205,25.3235294 205.241176,25.8058824 205.482353,26.0470588 C205.964706,26.2882353 206.447059,26.5294118 207.652941,26.5294118 L209.1,26.5294118 L208.135294,33.2823529 Z" id="Path"></path>
                <path d="M214.164706,9.16470588 L222.847059,9.16470588 L222.123529,13.9882353 L222.123529,13.9882353 C224.052941,10.3705882 226.947059,8.44117647 230.564706,8.44117647 C230.805882,8.44117647 231.047059,8.44117647 231.288235,8.44117647 C231.529412,8.44117647 231.770588,8.44117647 232.011765,8.44117647 L230.323529,18.0882353 C230.082353,18.0882353 229.6,17.8470588 229.358824,17.8470588 C229.117647,17.8470588 228.635294,17.8470588 228.394118,17.8470588 C226.464706,17.8470588 224.776471,18.3294118 223.811765,19.5352941 C222.605882,20.5 221.882353,22.4294118 221.4,25.0823529 L219.952941,33.5235294 L210.305882,33.5235294 L214.164706,9.16470588 Z" id="Path"></path>
                <path d="M244.794118,33.5235294 L244.794118,30.1470588 C243.347059,31.3529412 241.658824,32.3176471 240.211765,32.8 C238.764706,33.2823529 237.076471,33.5235294 235.147059,33.5235294 C234.182353,33.5235294 233.217647,33.5235294 232.252941,33.2823529 C231.288235,33.0411765 230.564706,32.8 229.841176,32.0764706 C229.117647,31.5941176 228.635294,30.8705882 228.152941,30.1470588 C227.670588,29.4235294 227.670588,28.4588235 227.670588,27.4941176 C227.670588,27.0117647 227.670588,26.5294118 227.911765,26.0470588 C228.152941,24.1176471 228.876471,22.9117647 229.841176,21.7058824 C230.805882,20.7411765 232.011765,20.0176471 233.458824,19.2941176 C234.905882,18.8117647 236.352941,18.3294118 237.8,18.0882353 C239.247059,17.8470588 240.694118,17.6058824 242.141176,17.6058824 C243.347059,17.3647059 244.552941,17.1235294 245.517647,16.8823529 C246.482353,16.6411765 246.964706,16.1588235 246.964706,15.1941176 C246.964706,15.1941176 246.964706,15.1941176 246.964706,14.9529412 C246.964706,14.9529412 246.964706,14.9529412 246.964706,14.7117647 C246.964706,14.2294118 246.964706,13.9882353 246.723529,13.7470588 C246.482353,13.5058824 246.241176,13.2647059 246,13.2647059 C245.758824,13.2647059 245.517647,13.0235294 245.035294,13.0235294 C244.794118,13.0235294 244.311765,13.0235294 244.311765,13.0235294 C244.070588,13.0235294 243.588235,13.0235294 243.347059,13.0235294 C242.864706,13.0235294 242.623529,13.2647059 242.382353,13.2647059 C242.141176,13.5058824 241.658824,13.7470588 241.417647,13.9882353 C241.176471,14.2294118 240.935294,14.7117647 240.694118,15.1941176 L231.529412,15.1941176 C231.770588,13.9882353 232.252941,12.7823529 232.735294,11.8176471 C233.458824,10.8529412 234.182353,9.88823529 235.388235,9.16470588 C236.594118,8.44117647 238.041176,7.95882353 239.729412,7.47647059 C241.417647,6.99411765 243.588235,6.99411765 246,6.99411765 C248.170588,6.99411765 249.858824,7.23529412 251.305882,7.47647059 C252.752941,7.71764706 253.717647,8.2 254.682353,8.68235294 C255.405882,9.16470588 256.129412,9.88823529 256.370588,10.6117647 C256.611765,11.3352941 256.852941,12.3 256.852941,13.2647059 C256.852941,13.7470588 256.852941,14.4705882 256.852941,14.9529412 C256.852941,15.6764706 256.611765,16.1588235 256.611765,16.8823529 L254.682353,28.2176471 C254.682353,28.7 254.441176,29.1823529 254.441176,29.4235294 C254.441176,29.6647059 254.441176,30.1470588 254.682353,30.3882353 C254.923529,30.6294118 254.923529,30.8705882 255.405882,31.3529412 L255.405882,32.5588235 L244.794118,32.5588235 L244.794118,33.5235294 Z M240.211765,27.9764706 C240.935294,27.9764706 241.658824,27.7352941 242.382353,27.4941176 C243.105882,27.2529412 243.588235,26.7705882 244.070588,26.2882353 C244.552941,25.8058824 244.794118,25.0823529 245.035294,24.3588235 C245.276471,23.6352941 245.517647,22.9117647 245.517647,21.9470588 C244.552941,22.4294118 243.829412,22.6705882 242.864706,22.6705882 C241.9,22.9117647 241.176471,22.9117647 240.452941,23.1529412 C239.729412,23.3941176 239.005882,23.6352941 238.523529,24.1176471 C238.041176,24.6 237.558824,25.0823529 237.558824,25.8058824 L237.558824,26.0470588 C237.558824,26.5294118 237.8,27.0117647 238.282353,27.2529412 C238.764706,27.7352941 239.488235,27.9764706 240.211765,27.9764706 Z" id="Shape"></path>
                <polygon id="Path" points="256.370588 33.2823529 262.158824 0.241176471 271.805882 0.241176471 266.017647 33.2823529"></polygon>
                <polygon id="Path" points="33.5235294 33.2823529 38.8294118 13.7470588 45.8235294 13.7470588 42.9294118 33.2823529"></polygon>
                <path d="M49.2,5.06470588 C49.2,5.06470588 49.2,5.06470588 49.2,5.06470588 C49.2,4.82352941 49.2,4.82352941 49.2,5.06470588 C48.9588235,4.58235294 48.7176471,4.34117647 48.2352941,4.1 C47.5117647,3.61764706 46.5470588,2.89411765 44.6176471,2.41176471 C43.6529412,2.17058824 42.9294118,2.17058824 42.4470588,2.41176471 C41,2.65294118 40.0352941,3.13529412 39.5529412,3.37647059 C39.5529412,3.37647059 39.3117647,3.37647059 39.3117647,3.37647059 L39.3117647,3.37647059 C38.8294118,3.85882353 38.1058824,3.85882353 37.6235294,3.37647059 C37.1411765,2.89411765 37.1411765,2.17058824 37.6235294,1.68823529 C37.6235294,1.68823529 39.0705882,0.241176471 41.9647059,1.07103868e-15 C42.9294118,1.07103868e-15 43.8941176,1.07103868e-15 44.8588235,0.241176471 C49.2,0.964705882 50.8882353,3.85882353 50.8882353,4.1 L50.8882353,4.1 C51.1294118,4.58235294 50.8882353,5.30588235 50.4058824,5.54705882 C50.1647059,5.54705882 50.1647059,5.54705882 49.9235294,5.54705882 C49.9235294,5.54705882 49.4411765,5.30588235 49.2,5.06470588 Z" id="Path"></path>
                <path d="M46.5470588,7.47647059 C46.5470588,7.47647059 46.5470588,7.47647059 46.5470588,7.47647059 C46.3058824,7.23529412 46.3058824,7.23529412 46.0647059,6.99411765 C45.8235294,6.75294118 45.1,6.27058824 44.1352941,6.02941176 C43.6529412,6.02941176 43.1705882,6.02941176 42.9294118,6.02941176 C41.9647059,6.02941176 41.4823529,6.51176471 41.4823529,6.51176471 C41.4823529,6.51176471 41.4823529,6.51176471 41.4823529,6.51176471 C41,6.99411765 40.5176471,6.99411765 40.0352941,6.51176471 C39.5529412,6.02941176 39.5529412,5.54705882 40.0352941,5.06470588 C40.0352941,5.06470588 41,4.1 42.6882353,3.85882353 C43.1705882,3.85882353 43.8941176,3.85882353 44.3764706,3.85882353 L44.3764706,3.85882353 C47.0294118,4.34117647 47.9941176,6.02941176 48.2352941,6.27058824 C48.4764706,6.75294118 48.2352941,7.23529412 47.7529412,7.47647059 C47.7529412,7.47647059 47.5117647,7.47647059 47.5117647,7.47647059 C47.0294118,8.2 46.5470588,7.95882353 46.5470588,7.47647059 Z" id="Path"></path>
                <path d="M45.5823529,9.88823529 C45.5823529,11.0941176 44.3764706,12.0588235 43.1705882,12.0588235 C41.7235294,12.0588235 40.7588235,11.0941176 40.7588235,9.88823529 C40.7588235,8.68235294 41.9647059,7.71764706 43.1705882,7.71764706 C44.6176471,7.71764706 45.5823529,8.68235294 45.5823529,9.88823529" id="Path"></path>
                <path d="M274.458824,3.85882353 C274.7,3.13529412 275.182353,2.65294118 275.664706,2.17058824 C276.147059,1.68823529 276.629412,1.20588235 277.352941,0.964705882 C278.076471,0.723529412 278.8,0.482352941 279.523529,0.482352941 C280.247059,0.482352941 280.970588,0.723529412 281.694118,0.964705882 C282.417647,1.20588235 282.9,1.68823529 283.382353,2.17058824 C283.864706,2.65294118 284.347059,3.13529412 284.588235,3.85882353 C284.829412,4.58235294 285.070588,5.30588235 285.070588,6.02941176 C285.070588,6.75294118 284.829412,7.47647059 284.588235,8.2 C284.347059,8.92352941 283.864706,9.40588235 283.382353,9.88823529 C282.9,10.3705882 282.417647,10.8529412 281.694118,11.0941176 C280.970588,11.3352941 280.247059,11.5764706 279.523529,11.5764706 C278.8,11.5764706 278.076471,11.3352941 277.352941,11.0941176 C276.629412,10.8529412 276.147059,10.3705882 275.664706,9.88823529 C275.182353,9.40588235 274.7,8.92352941 274.458824,8.2 C274.217647,7.47647059 273.976471,6.75294118 273.976471,6.02941176 C273.976471,5.06470588 274.217647,4.58235294 274.458824,3.85882353 Z M275.182353,7.71764706 C275.423529,8.2 275.664706,8.68235294 276.147059,9.16470588 C276.629412,9.64705882 277.111765,9.88823529 277.594118,10.1294118 C278.076471,10.3705882 278.8,10.3705882 279.282353,10.3705882 C280.005882,10.3705882 280.488235,10.3705882 280.970588,10.1294118 C281.452941,9.88823529 281.935294,9.64705882 282.417647,9.16470588 C282.9,8.68235294 283.141176,8.2 283.382353,7.71764706 C283.623529,7.23529412 283.623529,6.51176471 283.623529,5.78823529 C283.623529,5.06470588 283.623529,4.58235294 283.382353,4.1 C283.141176,3.61764706 282.9,3.13529412 282.417647,2.65294118 C281.935294,2.17058824 281.452941,1.92941176 280.970588,1.68823529 C280.488235,1.44705882 279.764706,1.44705882 279.282353,1.44705882 C278.558824,1.44705882 278.076471,1.44705882 277.594118,1.68823529 C277.111765,1.92941176 276.629412,2.17058824 276.147059,2.65294118 C275.664706,3.13529412 275.423529,3.61764706 275.182353,4.1 C274.941176,4.58235294 274.941176,5.30588235 274.941176,6.02941176 C274.941176,6.51176471 274.941176,7.23529412 275.182353,7.71764706 Z M279.764706,2.89411765 C280.488235,2.89411765 280.970588,3.13529412 281.452941,3.37647059 C281.694118,3.61764706 281.935294,4.1 281.935294,4.82352941 C281.935294,5.30588235 281.694118,5.78823529 281.452941,6.02941176 C281.211765,6.27058824 280.729412,6.51176471 280.247059,6.51176471 L281.935294,9.40588235 L280.970588,9.40588235 L279.282353,6.75294118 L278.317647,6.75294118 L278.317647,9.40588235 L277.352941,9.40588235 L277.352941,2.89411765 L279.764706,2.89411765 Z M279.282353,5.54705882 C279.523529,5.54705882 279.764706,5.54705882 280.005882,5.54705882 C280.247059,5.54705882 280.488235,5.54705882 280.488235,5.30588235 C280.729412,5.30588235 280.729412,5.06470588 280.970588,5.06470588 C280.970588,4.82352941 281.211765,4.82352941 281.211765,4.58235294 C281.211765,4.34117647 281.211765,4.1 280.970588,4.1 C280.970588,3.85882353 280.729412,3.85882353 280.729412,3.85882353 C280.488235,3.85882353 280.488235,3.85882353 280.247059,3.61764706 C280.005882,3.61764706 280.005882,3.61764706 279.764706,3.61764706 L278.558824,3.61764706 L278.558824,5.54705882 L279.282353,5.54705882 Z" id="Shape" fill-rule="nonzero"></path>
            </g>
        </g>
    </g>
</svg>
