<?xml version="1.0" encoding="UTF-8"?>
<svg width="196px" height="38px" viewBox="0 0 196 38" version="1.1" xmlns="http://www.w3.org/2000/svg" xmlns:xlink="http://www.w3.org/1999/xlink">
    <!-- Generator: Sketch 63.1 (92452) - https://sketch.com -->
    <title>Product — Approval Max</title>
    <desc>Created with Sketch.</desc>
    <g id="Symbols" stroke="none" stroke-width="1" fill="none" fill-rule="evenodd" opacity="1">
        <g id="Molecules/Product-Logos/XL" transform="translate(-1684.000000, -16.000000)" fill="#5e7599">
            <g id="Logotypes" transform="translate(60.000000, 0.000000)">
                <g id="Logos">
                    <g id="Atoms/Logotypes/Products/Approval-Max-Black" transform="translate(1624.000000, 16.000000)">
                        <g id="Approval-Max">
                            <path d="M124.2101,17.1968387 L122.27215,17.1968387 C121.7797,17.1968387 121.474675,17.4174839 121.31175,17.9139355 C121.04225,18.7315484 120.7507,19.5589677 120.467725,20.3581935 L120.291325,20.8583226 C119.744975,22.4114194 119.196175,23.9645161 118.627775,25.574 L117.985875,27.3906452 C117.937628,27.2644606 117.890667,27.1377874 117.845,27.0106452 L117.11735,24.9635484 C116.288025,22.6308387 115.4587,20.2969032 114.641625,17.9592903 C114.506875,17.5768387 114.286375,17.1968387 113.66285,17.1968387 L111.59505,17.1968387 C111.3623,17.1968387 111.118525,17.2189032 110.99725,17.3954194 C110.871075,17.5792903 110.94825,17.8367097 111.018075,18.0132258 C112.606581,22.0770104 114.185202,26.1446569 115.753925,30.216129 C115.922975,30.6549677 116.219425,30.8596774 116.684925,30.8596774 L118.89115,30.8572258 C119.4669,30.8572258 119.81235,30.6120645 120.04755,30.0114194 C120.651475,28.4644516 121.28725,26.9015484 121.9022,25.390129 L122.62985,23.598 L123.089225,22.4616774 C123.669875,21.0274839 124.250525,19.5908387 124.828725,18.1541935 C124.9794,17.7766452 125.036975,17.556 124.926725,17.3941935 C124.8177,17.2336129 124.59965,17.1992903 124.2101,17.1968387 L124.2101,17.1968387 Z M103.614175,28.2940645 L103.609275,28.2940645 C101.2291,28.2916129 99.566775,26.5117419 99.566775,23.9657419 C99.566775,21.4871613 101.264625,19.6827742 103.601925,19.6754194 C104.69099,19.6665808 105.73371,20.1157881 106.475775,20.9134839 C107.22425,21.7127097 107.63585,22.806129 107.634628,23.9890323 C107.6334,26.4835484 105.941675,28.2940645 103.614175,28.2940645 L103.614175,28.2940645 Z M103.5174,16.9676129 C103.3312,16.9676129 103.143775,16.9712903 102.9539,16.979871 C100.940868,17.0698069 99.062674,18.0179999 97.7942,19.5847097 C96.5445145,21.1401444 96.0293631,23.1609745 96.381775,25.1253548 C97.031025,28.7696774 99.703975,30.9773548 103.528425,31.0300645 L103.6448,31.0300645 C106.416975,31.0300645 108.84615,29.684129 109.984175,27.5156774 C111.32065,24.9684516 111.236125,22.4028387 109.739175,20.0946452 C108.394125,18.0193548 106.3006,16.9663871 103.5174,16.9663871 L103.5174,16.9676129 Z M133.7896,27.854 C133.788375,27.9030323 133.663425,28.044 133.53235,28.1065161 C132.803475,28.462 132.07705,28.6409677 131.372675,28.6409677 C130.864546,28.639531 130.360671,28.5482342 129.8843,28.3712903 C129.248525,28.1383871 128.890825,27.6897419 128.81855,27.0412903 C128.743825,26.3450323 128.983925,25.8228387 129.556,25.4452903 C130.404925,24.8850968 131.362875,24.7858065 132.37595,24.6791613 C132.51805,24.6644516 132.658925,24.6497419 132.7998,24.6325806 C132.928425,24.6190968 133.058275,24.6141935 133.1918,24.6141935 C133.3045,24.6141935 133.41965,24.6166452 133.538475,24.6203226 L133.805525,24.6264516 L133.80675,25.2736774 C133.8092,26.1599355 133.810425,26.9983871 133.7896,27.854 L133.7896,27.854 Z M133.1085,17.0669032 C132.600438,16.9859388 132.086814,16.9449531 131.57235,16.9443226 C130.1342,16.9443226 128.70095,17.2691613 127.310575,17.9090323 C126.083125,18.4729032 126.048825,18.5599355 126.590275,19.7808387 L126.619675,19.8482581 L126.690725,20.0076129 C126.89775,20.4636129 127.011675,20.7149032 127.290975,20.7149032 C127.452675,20.7149032 127.631525,20.6217419 127.957375,20.4452258 C129.140725,19.7992258 130.2665,19.4854194 131.399625,19.4854194 L131.473125,19.4854194 C132.301225,19.4964516 132.979875,19.7881935 133.386575,20.3079355 C133.790825,20.8264516 133.913325,21.5509032 133.73815,22.3587097 C133.61565,22.3697419 133.49315,22.3783226 133.37065,22.3869032 C133.0203,22.4114194 132.6577,22.4359355 132.3049,22.5119355 L131.416775,22.6958065 C130.28365,22.9274839 129.111325,23.1665161 127.9929,23.5244516 C126.830375,23.8970968 126.028,24.7625161 125.735225,25.9613548 C125.44735,27.1418065 125.6703,28.3149032 126.36365,29.2612258 C127.09865,30.2651613 128.29915,30.8989032 129.65645,31.001871 C129.959025,31.0239355 130.2371,31.0349677 130.50905,31.0349677 C131.90555,31.0349677 133.065625,30.7309677 134.13505,30.0837419 C134.1424,30.2896774 134.195075,30.4465806 134.2943,30.5593548 C134.4168,30.697871 134.60545,30.7726452 134.8725,30.7726452 L136.45275,30.7726452 C136.6806,30.7726452 136.848425,30.7052258 136.96235,30.5912258 C137.081175,30.4723226 137.13875,30.2945806 137.137525,30.0481935 C137.13385,29.0822581 137.137525,28.1150968 137.1412,27.1479355 C137.14855,25.3239355 137.1559,23.4374194 137.105675,21.5827742 C137.037075,18.9963226 135.692025,17.4775484 133.1085,17.0669032 L133.1085,17.0669032 Z M195.415675,29.7405161 C194.778675,28.9719355 194.138,28.2205161 193.497325,27.4703226 L192.705975,26.5423871 L190.954225,24.4756774 L190.241275,23.6347742 L191.169825,22.5891613 L194.893825,18.3993548 C194.925675,18.3625806 194.959975,18.3258065 194.99305,18.2914839 C195.0886,18.1885161 195.1866,18.0830968 195.265,17.9605161 C195.398525,17.7496774 195.427925,17.5707097 195.3532,17.4297419 C195.28215,17.2936774 195.094725,17.1968387 194.861975,17.1968387 L192.784375,17.1968387 C191.676975,17.1968387 191.6782,17.2863226 190.44585,18.7805806 C189.920325,19.418 189.46585,20.1032258 188.89745,20.7663871 C188.68185,21.0176774 188.465025,21.2714194 188.251875,21.5312903 L187.57445,20.6744516 C186.776975,19.6631613 186.004,18.6825161 185.21755,17.7104516 C185.10485,17.5707097 184.74715,17.1956129 184.43355,17.1956129 L181.5842,17.1956129 C181.271825,17.1956129 181.1481,17.3378065 181.09665,17.4395484 C181.043975,17.5461935 181.02315,17.7325161 181.2265,18.0083226 C181.364925,18.1970968 181.5205,18.3736129 181.668725,18.5452258 L181.8243,18.7229677 L185.21755,22.6774194 L186.2098,23.8358065 L185.6463,24.4916129 L184.280425,26.0765806 L183.38005,27.1148387 C182.6328,27.9765806 181.88555,28.8383226 181.1481,29.7086452 C180.945975,29.9464516 180.72915,30.2786452 180.8443,30.5041935 C180.95945,30.7248387 181.320825,30.7628387 181.61115,30.7726452 L183.7549,30.7726452 C184.265725,30.7726452 184.64915,30.5703871 185.00195,30.1254194 C185.784725,29.1349677 186.5724,28.1800645 187.40785,27.17 L188.254325,26.1415484 L189.08855,27.1650968 C189.91175,28.1739355 190.689625,29.1263871 191.466275,30.1070323 C191.828875,30.5642581 192.218425,30.7726452 192.728025,30.7726452 L195.1082,30.7726452 C195.266225,30.7726452 195.56145,30.748129 195.680275,30.5176774 C195.82605,30.2357419 195.570025,29.9256129 195.415675,29.7405161 L195.415675,29.7405161 Z M142.2519,10.5811613 L140.550375,10.5811613 C139.717375,10.5836129 139.601,10.7135484 139.601,11.5421935 L139.599775,18.1713548 L139.599775,22.9127742 C139.602225,25.2295484 139.602225,27.5463226 139.59365,29.8630968 C139.59365,30.1180645 139.6157,30.4036774 139.797,30.583871 C139.9195,30.7064516 140.09835,30.7726452 140.334775,30.7726452 L141.8844,30.7726452 C142.86685,30.7726452 142.93545,30.6868387 142.93545,29.7209032 L142.93545,11.6427097 L142.934225,11.2737419 C142.929325,10.8263226 142.691675,10.5799355 142.2519,10.5799355 L142.2519,10.5811613 Z M96.432,19.2843871 C96.4663,19.2402581 96.5006,19.1949032 96.541025,19.1556774 C96.75785,18.9350323 96.788475,18.740129 96.77745,18.6150968 C96.7652,18.4961935 96.70395,18.3209032 96.47365,18.1615484 C96.383,18.1002581 96.29235,18.0352903 96.200475,17.9703226 C95.8195,17.6994194 95.42505,17.4187097 94.985275,17.2569032 C94.4491113,17.0479499 93.8799069,16.936691 93.304575,16.9283871 C92.023225,16.9283871 90.896225,17.5510968 89.7827,18.8823226 L89.781475,18.7793548 C89.7778,18.4643226 89.77535,18.1934194 89.788825,17.9274194 C89.8023,17.6822581 89.752075,17.5032903 89.63325,17.3794839 C89.514425,17.2556774 89.3368,17.1956129 89.08935,17.1956129 C88.7586,17.2017419 87.5679,17.2017419 87.272675,17.1956129 L87.270225,17.1956129 C87.010525,17.1956129 86.841475,17.252 86.7251,17.3672258 C86.6026,17.4898065 86.5438,17.6736774 86.5438,17.9310968 C86.55115,21.9566452 86.55115,25.9821935 86.5438,30.0077419 C86.5438,30.2663871 86.60505,30.4539355 86.73245,30.5801935 C86.85495,30.7015484 87.030125,30.7726452 87.2739,30.7726452 L88.935,30.7726452 C89.776575,30.7701935 89.881925,30.6488387 89.884375,29.8201935 C89.886825,29.1864516 89.884375,28.5514839 89.8807,27.9177419 C89.874575,26.4124516 89.867225,24.8556774 89.9297,23.3295484 C89.9735711,22.5169782 90.1828307,21.7219356 90.54465,20.9931613 C90.928075,20.216 91.731675,19.7342581 92.643075,19.7342581 C93.022825,19.7342581 93.40625,19.8200645 93.750475,19.9843226 C93.880325,20.0456129 94.02365,20.1314194 94.162075,20.2147742 C94.46465,20.3986452 94.77825,20.5861935 95.061225,20.5861935 C95.1125035,20.5864251 95.1635848,20.5798296 95.213125,20.5665806 C95.56225,20.4697419 95.813375,20.1179355 96.0547,19.7759355 C96.151475,19.6410968 96.2507,19.500129 96.35115,19.3836774 C96.379325,19.3518065 96.406275,19.3187097 96.433225,19.2843871 L96.432,19.2843871 Z M176.496775,27.7203871 C176.4931,27.8380645 176.3559,28.0390968 176.239525,28.0967097 C175.516775,28.4583226 174.79035,28.6421935 174.07985,28.6421935 C173.5825,28.6421935 173.083925,28.5514839 172.59515,28.3749677 C171.95815,28.1420645 171.596775,27.6970968 171.52205,27.0510968 C171.4412,26.3548387 171.67885,25.8314194 172.248475,25.4501935 C173.081475,24.8936774 174.068825,24.7870323 175.0231,24.6828387 L175.4298,24.6374839 C175.54985,24.624 175.68215,24.6166452 175.845075,24.6166452 C175.962675,24.6166452 176.085175,24.6203226 176.212575,24.624 L176.5127,24.6313548 L176.513925,25.3239355 C176.5176,26.150129 176.52005,26.9297419 176.496775,27.7203871 L176.496775,27.7203871 Z M175.818125,17.068129 C175.307657,16.9866286 174.791549,16.9455484 174.274625,16.9455484 C172.841375,16.9455484 171.410575,17.2679355 170.021425,17.904129 C168.781725,18.4716774 168.747425,18.5611613 169.310925,19.8286452 C169.3244,19.8617419 169.340325,19.8936129 169.355025,19.9254839 C169.381975,19.9806452 169.41015,20.0358065 169.428525,20.0946452 C169.472625,20.2405161 169.61105,20.6830323 170.03245,20.6830323 C170.1917,20.6830323 170.37545,20.6205161 170.60575,20.4844516 C171.7058,19.8347742 172.863425,19.4976774 174.04555,19.4841935 L174.090875,19.4841935 C174.9643,19.4841935 175.6454,19.7550968 176.063125,20.2687097 C176.4784,20.779871 176.609475,21.5006452 176.442875,22.3574839 L176.0717,22.3942581 C175.725025,22.426129 175.374675,22.4592258 175.026775,22.502129 C173.321575,22.7080645 171.591875,22.9176774 170.070425,23.8296774 C168.9177,24.5210323 168.326025,25.5507097 168.315,26.8929677 C168.2954,29.0920645 169.992025,30.8204516 172.3477,30.9994194 C172.65395,31.0239355 172.9357,31.0349677 173.21255,31.0349677 C174.602925,31.0349677 175.759325,30.7346452 176.8263,30.0923226 C176.824635,30.2601588 176.881857,30.4232622 176.988,30.5532258 C177.15705,30.742 177.420425,30.7726452 177.604175,30.7726452 L179.147675,30.7726452 C179.380425,30.7726452 179.5507,30.7052258 179.66585,30.59 C179.78345,30.4735484 179.8398,30.2994839 179.838575,30.058 C179.8349,29.0896129 179.838575,28.12 179.84225,27.1503871 C179.848375,25.3288387 179.855725,23.4447742 179.80795,21.5925806 C179.7418,19.0036774 178.3992,17.4824516 175.818125,17.0693548 L175.818125,17.068129 Z M166.201875,10.7662581 C166.08305,10.646129 165.91155,10.5799355 165.6788,10.5799355 L163.6649,10.5799355 C163.0426,10.5799355 162.607725,10.8557419 162.2145,11.5287097 C160.69508,14.1157949 159.162175,16.6949268 157.61585,19.266 L156.100525,21.7960645 L156.071125,21.7507097 C155.978025,21.6097419 155.899625,21.4896129 155.8249,21.3645806 L154.71015,19.5013548 C153.06865,16.7530968 151.42715,14.0060645 149.796675,11.2516774 C149.600675,10.9207097 149.321375,10.5860645 148.740725,10.5823871 L146.579825,10.5799355 C146.317675,10.5799355 146.13515,10.6449032 146.0102,10.7723871 C145.8779,10.906 145.817875,11.1070323 145.822775,11.4036774 C145.839925,12.3965806 145.83625,13.4066452 145.8338,14.3836129 L145.83135,15.5726452 L145.83135,29.7993548 C145.83135,30.6905161 145.89505,30.7714194 146.8089,30.7726452 L148.24215,30.7726452 C149.17315,30.7714194 149.2491,30.6794839 149.2491,29.7552258 C149.2491,27.6970968 149.238075,25.6279355 149.22705,23.56 C149.2148,21.4552903 149.203775,19.3518065 149.205,17.2593548 C149.205,17.1576129 149.2099,17.0546452 149.216025,16.9332903 L149.397325,17.220129 C149.816275,17.9065806 150.242575,18.5869032 150.668875,19.2684516 C151.6893,20.8987742 152.744025,22.5854839 153.682375,24.2954839 C154.3402,25.4943226 155.083775,26.0054839 156.171575,26.0054839 C156.3443,26.0054839 156.5305,25.992 156.722825,25.9650323 C157.2704,25.8878065 157.646475,25.7443871 157.94905,25.2307742 C159.26715,22.9998065 160.623225,20.7406452 161.9352,18.5562581 L162.857625,17.0203226 C162.877225,16.9872258 162.89805,16.9553548 162.92255,16.9222581 L162.92255,18.1014839 C162.92255,20.0480645 162.9348,22.0044516 162.94705,23.9620645 C162.958075,25.8914839 162.9691,27.8209032 162.9691,29.7380645 C162.9691,30.6782581 163.043825,30.7714194 163.9638,30.7726452 L165.37745,30.7726452 C166.31335,30.7714194 166.3795,30.6880645 166.3795,29.7515484 L166.3795,14.1139355 L166.378275,13.3 C166.3747,12.6519543 166.376333,12.0038904 166.38334,11.355871 C166.38685,11.0812903 166.329275,10.8937419 166.201875,10.7662581 L166.201875,10.7662581 Z M66.42195,24.1312258 C66.3995509,24.6114689 66.3356118,25.088867 66.23085,25.5580645 C65.92215,26.8549677 65.097725,27.7118065 63.78085,28.1040645 C63.3019807,28.2452902 62.8051817,28.3163082 62.30595,28.3149237 C61.777975,28.3149237 61.2157,28.2389032 60.633825,28.0893548 C60.2798,27.9986452 60.175675,27.8638065 60.1867,27.5132258 C60.2112,26.6355484 60.207525,25.7419355 60.202625,24.8777419 C60.200175,24.5320645 60.19895,24.1851613 60.19895,23.8382581 L60.19895,22.8809032 C60.200175,21.9750323 60.2014,21.0703871 60.195275,20.1645161 C60.19405,19.8372258 60.2161,19.76 60.4366,19.7587742 C60.70855,19.7563226 60.981725,19.7440645 61.2549,19.7305806 C61.5489,19.7170968 61.841675,19.7036129 62.132,19.7036129 C62.48725,19.7036129 62.78125,19.7232258 63.051975,19.7685806 C65.2778,20.1326452 66.567725,21.8034194 66.42195,24.1324516 L66.42195,24.1312258 Z M65.3072,17.5412903 C64.159375,17.1330968 62.929475,16.9357419 61.544,16.9357419 C60.11075,16.9357419 58.6628,17.1514839 57.43535,17.3647742 C57.1634,17.4113548 56.9135,17.8379355 56.8841,18.0916774 C56.838775,18.4900645 56.84735,18.8970323 56.855925,19.2905161 C56.8596,19.4474194 56.863275,19.6043226 56.863275,19.7612258 L56.863275,23.3675484 C56.863275,27.7853548 56.8645,32.2043871 56.8547,36.6221935 C56.8547,36.9053548 56.8792,37.1934194 57.06295,37.3760645 C57.18545,37.4986452 57.363075,37.5587097 57.6044,37.5587097 L59.1822,37.5587097 C60.109525,37.5562581 60.19895,37.4630968 60.19895,36.556 L60.19895,30.8535484 C60.508875,30.8707097 60.8139,30.8915484 61.11525,30.9136129 C61.72285,30.9565161 62.29615,30.9994194 62.8768,30.9994194 C63.044625,30.9994194 63.213675,30.9945161 63.3815,30.9871613 C65.07935,30.9050323 66.535875,30.3031613 67.7082,29.1974839 C69.23945,27.7547097 69.8936,25.8485806 69.70985,23.3724516 C69.493025,20.4648387 68.012,18.5035484 65.3072,17.5412903 L65.3072,17.5412903 Z M81.260375,24.1312258 C81.223625,24.7183871 81.164825,25.1584516 81.069275,25.5580645 C80.7618,26.8549677 79.937375,27.7118065 78.619275,28.1040645 C78.1404057,28.2452902 77.6436067,28.3163082 77.144375,28.3149237 C76.617625,28.3149237 76.054125,28.2389032 75.47225,28.0893548 C75.11945,27.9986452 75.0141,27.8638065 75.025125,27.5132258 C75.05085,26.6355484 75.04595,25.7419355 75.04105,24.8777419 C75.0388716,24.5312513 75.0376466,24.1847554 75.037375,23.8382581 L75.037375,22.8809032 C75.0386,21.9750323 75.039825,21.0703871 75.034925,20.1645161 C75.032475,19.8372258 75.054525,19.76 75.275025,19.7587742 C75.546975,19.7563226 75.82015,19.7440645 76.093325,19.7305806 C76.387325,19.7170968 76.681325,19.7036129 76.97165,19.7036129 C77.3269,19.7036129 77.619675,19.7232258 77.8904,19.7685806 C80.116225,20.1326452 81.407375,21.8034194 81.260375,24.1324516 L81.260375,24.1312258 Z M80.145625,17.5412903 C78.999025,17.1330968 77.7679,16.9357419 76.382425,16.9357419 C74.949175,16.9357419 73.501225,17.1514839 72.273775,17.3647742 C72.00305,17.4113548 71.75315,17.8379355 71.722525,18.0916774 C71.6772,18.4900645 71.685775,18.8970323 71.69435,19.2905161 C71.698025,19.4474194 71.7017,19.6043226 71.7017,19.7612258 L71.7017,23.3675484 C71.7017,27.7853548 71.70415,32.2043871 71.69435,36.6221935 C71.69435,36.9053548 71.71885,37.1934194 71.9026,37.3760645 C72.0251,37.4986452 72.2015,37.5587097 72.442825,37.5587097 L74.020625,37.5587097 C74.949175,37.5562581 75.037375,37.4630968 75.037375,36.556 L75.037375,30.8535484 C75.3473,30.8707097 75.65355,30.8915484 75.953675,30.9136129 C76.561275,30.9565161 77.1358,30.9994194 77.715225,30.9994194 C77.884275,30.9994194 78.0521,30.9945161 78.219925,30.9871613 C79.919,30.9050323 81.3743,30.3031613 82.54785,29.1974839 C84.0791,27.7547097 84.73325,25.8485806 84.548275,23.3724516 C84.33145,20.4648387 82.850425,18.5035484 80.145625,17.5412903 L80.145625,17.5412903 Z M42.979125,23.3405806 L46.137175,15.0173548 L48.40955,21.058129 L49.26705,23.3405806 L42.98035,23.3405806 L42.979125,23.3405806 Z M55.167875,29.5774839 L55.136025,29.4916774 C55.136025,29.4916774 50.21275,16.3596129 48.6619,12.2543871 C48.54185,11.9356774 48.4561,11.6782581 48.386275,11.469871 C48.104525,10.6301935 48.033475,10.4904516 47.173525,10.4904516 L45.52345,10.4904516 C44.412375,10.4904516 44.3548,10.532129 43.97995,11.5213548 C42.716975,14.8678065 37.04645,29.7932258 37.04645,29.7932258 C36.908025,30.1560645 36.85535,30.3840645 36.9705,30.552 C37.089325,30.7211613 37.336775,30.7726452 37.74715,30.7726452 L39.56015,30.7726452 C40.1506,30.7726452 40.5034,30.4968387 40.7043,29.8765806 C40.90275,29.2587742 41.1404,28.6397419 41.3707,28.0427742 C41.545875,27.5843226 41.722275,27.1270968 41.883975,26.6649677 C41.986875,26.3707742 42.097125,26.289871 42.39725,26.289871 C43.640625,26.2984516 48.58105,26.2984516 49.81585,26.2910968 C50.13925,26.2910968 50.25195,26.3695484 50.348725,26.6514839 C50.56555,27.2766452 50.801975,27.9079355 51.029825,28.5171613 C51.22705,29.0430323 51.424275,29.5689032 51.6117,30.0984516 C51.7734,30.5556774 52.041675,30.7726452 52.482675,30.7726452 L54.800375,30.7726452 C55.087025,30.7726452 55.2524,30.6954194 55.341825,30.5630323 C55.432475,30.4294194 55.4288,30.2467742 55.3308,30.0040645 C55.27445,29.8630968 55.22055,29.722129 55.167875,29.5787097 L55.167875,29.5774839 Z M21.764575,10.1925806 C21.0165497,9.65117272 19.9720645,9.81542198 19.42605,10.5603226 L14.074025,17.8783871 L11.192825,14.9769032 C10.5420893,14.3227614 9.48626596,14.3151054 8.826125,14.9597419 C8.51016351,15.2678411 8.33054501,15.6896452 8.32727909,16.1310949 C8.32410136,16.5725446 8.49754415,16.9969289 8.808975,17.3096129 L13.076875,21.6072903 C13.422793,21.9560744 13.9040182,22.1357529 14.3937101,22.0989664 C14.883402,22.06218 15.3324244,21.8126198 15.622425,21.4160645 L22.134525,12.5130323 C22.3954017,12.1570661 22.5030969,11.7114477 22.4335989,11.2755328 C22.3641009,10.8396179 22.1231882,10.4496513 21.764575,10.1925806 L21.764575,10.1925806 Z M27.259925,27.0670323 L15.303925,27.0670323 C8.710975,27.0670323 3.347925,21.7409032 3.347925,15.1950968 C3.347925,8.64929032 8.710975,3.32316129 15.303925,3.32316129 C21.896875,3.32316129 27.259925,8.64929032 27.259925,15.1950968 L27.259925,27.0670323 Z M15.303925,0 C6.851425,0 0,6.80322581 0,15.1950968 C0,23.5869677 6.851425,30.3901992 15.303925,30.3901992 L29.379175,30.3901992 C30.0545718,30.3922285 30.6039238,29.8463553 30.606625,29.1705161 L30.606625,15.1963226 C30.606625,6.80322581 23.7552,0 15.303925,0 Z"></path>
                        </g>
                    </g>
                </g>
            </g>
        </g>
    </g>
</svg>
