<?xml version="1.0" encoding="UTF-8"?>
<svg width="148px" height="32px" viewBox="0 0 148 32" version="1.1" xmlns="http://www.w3.org/2000/svg" xmlns:xlink="http://www.w3.org/1999/xlink">
    <!-- Generator: Sketch 63.1 (92452) - https://sketch.com -->
    <title>Product — Wagepoint</title>
    <desc>Created with Sketch.</desc>
    <g id="Symbols" stroke="none" stroke-width="1" fill="none" fill-rule="evenodd" opacity="1">
        <g id="Molecules/Product-Logos/XL" transform="translate(-1113.000000, -25.000000)" fill="#5e7599">
            <g id="Logotypes" transform="translate(60.000000, 0.000000)">
                <g id="Logos">
                    <g id="Atoms/Logotypes/Products/Wagepoint-Black" transform="translate(1053.000000, 25.000000)">
                        <g id="Wagepoint">
                            <path d="M0.166666667,1.16666667 C0.0333333333,0.7 0.3,0.366666667 0.766666667,0.366666667 L4.66666667,0.366666667 C4.93333333,0.366666667 5.2,0.6 5.26666667,0.833333333 L8.13333333,12.2 L8.26666667,12.2 L13.4666667,0.4 C13.5666667,0.2 13.7666667,0.0333333333 14.0333333,0.0333333333 L14.6333333,0.0333333333 C14.9333333,0.0333333333 15.1333333,0.2 15.2,0.4 L20.4,12.2 L20.5333333,12.2 L23.4,0.833333333 C23.4666667,0.6 23.7333333,0.366666667 24,0.366666667 L27.9333333,0.366666667 C28.4,0.366666667 28.6666667,0.7 28.5333333,1.16666667 L22.2,23.6666667 C22.1333333,23.9333333 21.8666667,24.1333333 21.6,24.1333333 L21.0666667,24.1333333 C20.8333333,24.1333333 20.6,23.9666667 20.5,23.7666667 L14.3666667,10.0666667 L14.2666667,10.0666667 L8.16666667,23.7666667 C8.06666667,23.9666667 7.83333333,24.1333333 7.6,24.1333333 L7.06666667,24.1333333 C6.8,24.1333333 6.53333333,23.9333333 6.46666667,23.6666667 L0.166666667,1.16666667 Z" id="XMLID_26_" fill-rule="nonzero"></path>
                            <path d="M32.6,13.9333333 C34.3333333,13.9333333 35.6333333,14.6 35.6333333,14.6 C35.6333333,13.1 35.3,12.2333333 33.5,12.2333333 C32.4333333,12.2333333 30.6333333,12.4666667 29.6,12.7666667 C29,12.9666667 28.7333333,12.5333333 28.6666667,11.9666667 L28.3,9.6 C28.2,8.93333333 28.5666667,8.63333333 28.9,8.53333333 C29.2666667,8.4 31.9666667,8.03333333 34.0666667,8.03333333 C38.8666667,8.03333333 40.5333333,9.96666667 40.5333333,14.5666667 L40.5333333,23.1 C40.5333333,23.5 40.1666667,23.8333333 39.8,23.8333333 L38.1666667,23.8333333 C37.9333333,23.8333333 37.6666667,23.7666667 37.4666667,23.3333333 L37.3333333,23.1 C37.1333333,22.7 36.6333333,22.6 36.3,22.8666667 C35.4,23.5333333 34.2,24.2333333 32.2666667,24.2333333 C29.2333333,24.2333333 26.9,22.2333333 26.9,19.1333333 C26.9333333,16.1 29.1,13.9333333 32.6,13.9333333 Z M32.9,20.3 C34.1,20.8333333 35.3666667,19.9 35.3666667,18.7333333 C35.3666667,17.8333333 34.5666667,17.0333333 33.6333333,17.0333333 C32.2666667,17.0333333 31.2333333,18.7666667 32.5,20 C32.6,20.1 32.7333333,20.2 32.9,20.3 Z" id="XMLID_23_" fill-rule="nonzero"></path>
                            <path d="M58.5666667,23.3333333 C58.5666667,28.9333333 54.9333333,31.5666667 50.3,31.5666667 C48,31.5666667 45.3,30.5333333 44.5333333,29.9 C44.3,29.7 44.2333333,29.3666667 44.3666667,29.0333333 L45.5333333,26.2333333 C45.6666667,25.9333333 46.1,25.7333333 46.4333333,25.9333333 C47.1666667,26.3666667 48.4333333,27.1666667 50.2,27.1666667 C52.1,27.1666667 53.4666667,26.4333333 53.4666667,24.1 C53.4666667,23.7666667 53.1333333,23.5 52.8,23.6333333 C52.0666667,23.9333333 50.9,24.2 49.8666667,24.2 C45.7333333,24.2 42.2,21.5333333 42.2,16.0666667 C42.2,11.6333333 45.4666667,8.03333333 49.8333333,8.03333333 C52.4666667,8.03333333 54.1666667,9.46666667 54.7666667,10.1 C54.9,10.2333333 55.1333333,10.1666667 55.2,10 L55.5,9.13333333 C55.6333333,8.73333333 55.9333333,8.36666667 56.3,8.36666667 L57.8,8.36666667 C58.2,8.36666667 58.5333333,8.73333333 58.5333333,9.1 L58.5333333,23.3333333 L58.5666667,23.3333333 Z M50.6333333,19.4 C52.5333333,19.4 53.9,17.9666667 53.9,16.1 C53.9,14.2666667 52.5333333,12.8 50.6333333,12.8 C48.8,12.8 47.3666667,14.2666667 47.3666667,16.1 C47.3666667,17.9666667 48.8,19.4 50.6333333,19.4 Z" id="XMLID_20_" fill-rule="nonzero"></path>
                            <path d="M68,8 C71.9333333,8 75.3333333,10.9666667 75.3333333,15.2333333 C75.3333333,15.4666667 75.3,16 75.2666667,16.2333333 C75.2333333,16.6333333 74.8666667,16.9 74.5333333,16.9 L65.5,16.9 C65.2,16.9 64.9666667,17.1666667 65.0666667,17.4666667 C65.3666667,18.5333333 66.4333333,19.5666667 68.2,19.5666667 C69.2,19.5666667 70.4666667,19.0666667 71.1333333,18.6 C71.4666667,18.3 71.8666667,18.3 72.1,18.6 L73.8,20.8333333 C74.0333333,21.1333333 74.1,21.6 73.7666667,21.9333333 C72.4333333,23.3 70.5,24.1333333 68.0333333,24.1333333 C63.4,24.1333333 59.9333333,20.8333333 59.9333333,16.0333333 C59.9666667,11.7333333 63.4,8 68,8 Z M70.1,13.9666667 C70.0333333,12.9333333 69.1666667,12.0666667 67.8666667,12.0666667 C66.6,12.0666667 65.7666667,12.9333333 65.5666667,13.9666667 L70.1,13.9666667 Z" id="XMLID_17_" fill-rule="nonzero"></path>
                            <path d="M81.9666667,31.0666667 C81.9666667,31.4666667 81.6333333,31.8 81.2333333,31.8 L77.6,31.8 C77.2,31.8 76.8666667,31.4666667 76.8666667,31.0666667 L76.8666667,9.1 C76.8666667,8.73333333 77.2,8.36666667 77.6,8.36666667 L79.1,8.36666667 C79.4666667,8.36666667 79.7666667,8.73333333 79.9,9.13333333 L80.1666667,9.86666667 C80.2333333,10.1 80.5333333,10.1666667 80.7,10 C81.4,9.33333333 83.0333333,8.03333333 85.5666667,8.03333333 C89.9333333,8.03333333 93.1666667,11.6666667 93.1666667,16.0666667 C93.1666667,21.5333333 89.6333333,24.2 85.5333333,24.2 C84.3666667,24.2 83.2,23.9 82.4666667,23.5666667 C82.2333333,23.4666667 81.9333333,23.6333333 81.9333333,23.9 L81.9333333,31.0666667 L81.9666667,31.0666667 Z M84.8333333,19.4 C86.6666667,19.4 88.1,17.9666667 88.1,16.1 C88.1,14.2666667 86.6666667,12.8 84.8333333,12.8 C82.9333333,12.8 81.5666667,14.2666667 81.5666667,16.1 C81.5333333,17.9666667 82.9333333,19.4 84.8333333,19.4 Z" id="XMLID_14_" fill-rule="nonzero"></path>
                            <path d="M102.633333,8 C107.066667,8 110.666667,11.7 110.666667,16.0333333 C110.666667,20.4666667 107.033333,24.1666667 102.633333,24.1666667 C98.2,24.1666667 94.5666667,20.4333333 94.5666667,16.0333333 C94.5666667,11.7 98.2333333,8 102.633333,8 Z M102.633333,19.4 C104.4,19.4 105.833333,17.8666667 105.833333,16.0333333 C105.833333,14.2666667 104.4,12.7666667 102.633333,12.7666667 C100.833333,12.7666667 99.4,14.2666667 99.4,16.0333333 C99.4,17.8666667 100.833333,19.4 102.633333,19.4 Z" id="XMLID_11_" fill-rule="nonzero"></path>
                            <path d="M112,3.33333333 C112,1.73333333 113.266667,0.4 114.866667,0.4 C116.466667,0.4 117.766667,1.73333333 117.766667,3.33333333 C117.766667,4.9 116.466667,6.2 114.866667,6.2 C113.266667,6.2 112,4.9 112,3.33333333 Z M112.366667,9.06666667 C112.366667,8.63333333 112.7,8.33333333 113.1,8.33333333 L116.733333,8.33333333 C117.133333,8.33333333 117.466667,8.63333333 117.466667,9.06666667 L117.466667,23.0666667 C117.466667,23.4666667 117.133333,23.8 116.733333,23.8 L113.1,23.8 C112.7,23.8 112.366667,23.4666667 112.366667,23.0666667 L112.366667,9.06666667 Z" id="XMLID_8_" fill-rule="nonzero"></path>
                            <path d="M119.6,9.06666667 C119.6,8.63333333 119.933333,8.33333333 120.333333,8.33333333 L121.833333,8.33333333 C122.066667,8.33333333 122.366667,8.5 122.533333,8.8 L122.933333,9.86666667 C123,10.1 123.3,10.1333333 123.466667,9.96666667 C124.3,9.06666667 125.5,8 127.933333,8 C132.766667,8 134.4,11.4333333 134.4,15.6666667 L134.4,23.0666667 C134.4,23.4666667 134.066667,23.8 133.7,23.8 L130.033333,23.8 C129.6,23.8 129.3,23.4666667 129.3,23.0666667 L129.3,15.6 C129.3,14.1333333 128.8,12.7666667 127.066667,12.7666667 C125.533333,12.7666667 124.733333,13.8333333 124.733333,15.4 L124.733333,23.0666667 C124.733333,23.4 124.566667,23.8 124.033333,23.8 L120.333333,23.8 C119.933333,23.8 119.6,23.4666667 119.6,23.0666667 L119.6,9.06666667 Z" id="XMLID_6_" fill-rule="nonzero"></path>
                            <path d="M137.733333,13.3666667 C137.733333,13.1333333 137.533333,12.9333333 137.3,12.9333333 L136.466667,12.9333333 C136.1,12.9333333 135.8,12.6 135.8,12.2 L135.8,9.1 C135.8,8.66666667 136.1,8.36666667 136.466667,8.36666667 L137.3,8.36666667 C137.533333,8.36666667 137.733333,8.16666667 137.733333,7.93333333 L137.733333,4.1 C137.733333,3.7 138.066667,3.36666667 138.466667,3.36666667 L142.166667,3.36666667 C142.533333,3.36666667 142.833333,3.7 142.833333,4.1 L142.833333,7.93333333 C142.833333,8.16666667 143.033333,8.36666667 143.266667,8.36666667 L145.933333,8.36666667 C146.333333,8.36666667 146.666667,8.66666667 146.666667,9.1 L146.666667,12.2 C146.666667,12.6 146.333333,12.9333333 145.933333,12.9333333 L143.266667,12.9333333 C143.033333,12.9333333 142.833333,13.1333333 142.833333,13.3666667 L142.833333,18.3333333 C142.833333,19.0666667 143.2,19.4 143.866667,19.4 C144.4,19.4 145.4,19.1666667 145.766667,19.0666667 C146.166667,18.9666667 146.533333,19.1333333 146.633333,19.5333333 L147.3,22.4333333 C147.4,22.9 147.233333,23.1 146.8,23.3 C145.766667,23.7333333 144.033333,24.1666667 142.366667,24.1666667 C139.433333,24.1666667 137.7,22.3 137.7,18.7666667 L137.7,13.3666667 L137.733333,13.3666667 Z" id="XMLID_4_" fill-rule="nonzero"></path>
                        </g>
                    </g>
                </g>
            </g>
        </g>
    </g>
</svg>
