<?xml version="1.0" encoding="UTF-8"?>
<svg width="71px" height="30px" viewBox="0 0 71 30" version="1.1" xmlns="http://www.w3.org/2000/svg" xmlns:xlink="http://www.w3.org/1999/xlink">
    <!-- Generator: Sketch 63.1 (92452) - https://sketch.com -->
    <title>Product — Stripe</title>
    <desc>Created with Sketch.</desc>
    <g id="Symbols" stroke="none" stroke-width="1" fill="none" fill-rule="evenodd" opacity="1">
        <g id="Molecules/Product-Logos/XL" transform="translate(-496.000000, -25.000000)" fill="#5e7599">
            <g id="Logotypes" transform="translate(60.000000, 0.000000)">
                <g id="Logos">
                    <g id="Atoms/Logotypes/Products/Stripe-Black" transform="translate(436.000000, 25.000000)">
                        <g id="Stripe">
                            <path d="M70.3093455,15.2117824 C70.3093455,10.2446713 67.8942877,6.32531028 63.278411,6.32531028 C58.6430581,6.32531028 55.8384748,10.2446713 55.8384748,15.1729768 C55.8384748,21.0132129 59.1494412,23.9624351 63.9016518,23.9624351 C66.2193282,23.9624351 67.9721928,23.4385601 69.2965793,22.7012545 L69.2965793,18.820699 C67.9721928,19.4803934 66.4530435,19.8878518 64.5248925,19.8878518 C62.635694,19.8878518 60.9607345,19.2281573 60.7464955,16.9386296 L70.270393,16.9386296 C70.270393,16.6863935 70.3093455,15.6774491 70.3093455,15.2117824 L70.3093455,15.2117824 Z M60.6880667,13.3685185 C60.6880667,11.1760047 62.0319296,10.2640741 63.2589347,10.2640741 C64.4469874,10.2640741 65.7129451,11.1760047 65.7129451,13.3685185 L60.6880667,13.3685185 Z" id="path5516"></path>
                            <path d="M48.3206334,6.32531028 C46.4119587,6.32531028 45.1849535,7.21783805 44.5032839,7.83872693 L44.2500924,6.63575472 L39.9653124,6.63575472 L39.9653124,29.2593933 L44.8343806,28.2310461 L44.8538569,22.7400601 C45.5550027,23.2445323 46.5872451,23.9624351 48.3011572,23.9624351 C51.78741,23.9624351 54.9620425,21.1684351 54.9620425,15.0177546 C54.9425662,9.39094913 51.7289812,6.32531028 48.3206334,6.32531028 L48.3206334,6.32531028 Z M47.1520571,19.693824 C46.002957,19.693824 45.3212874,19.2863657 44.8538569,18.7818935 L44.8343806,11.583463 C45.3407637,11.0207824 46.0419095,10.6327269 47.1520571,10.6327269 C48.9243979,10.6327269 50.1514031,12.6118102 50.1514031,15.1535741 C50.1514031,17.7535462 48.9438742,19.693824 47.1520571,19.693824 L47.1520571,19.693824 Z" id="path5518"></path>
                            <polygon id="polygon5520" points="38.154019 4.13279642 38.154019 0.194032579 33.2654745 1.22237979 33.2654745 5.1805464"></polygon>
                            <rect id="rect5522" x="33.2654745" y="6.65515808" width="4.8885445" height="16.9774303"></rect>
                            <path d="M28.0263571,8.09096303 L27.7147367,6.6551575 L23.5078618,6.6551575 L23.5078618,23.6325878 L28.37693,23.6325878 L28.37693,12.1267408 C29.5260301,10.6327269 31.4736574,10.9043658 32.0774218,11.1177963 L32.0774218,6.6551575 C31.4541811,6.42232417 29.1754572,5.99546306 28.0263571,8.09096303 Z" id="path5524"></path>
                            <path d="M18.2882206,2.44475477 L13.53601,3.4536992 L13.5165338,18.995324 C13.5165338,21.8669351 15.6784,23.9818378 18.5608884,23.9818378 C20.1579428,23.9818378 21.3265192,23.6907962 21.9692362,23.3415462 L21.9692362,19.4027823 C21.3459955,19.6550184 18.2687443,20.5475462 18.2687443,17.6759351 L18.2687443,10.7879491 L21.9692362,10.7879491 L21.9692362,6.6551575 L18.2687443,6.6551575 L18.2882206,2.44475477 Z" id="path5526"></path>
                            <path d="M5.12226013,11.583463 C5.12226013,10.8267547 5.74550087,10.535713 6.77774333,10.535713 C8.25794007,10.535713 10.1276623,10.9819769 11.607859,11.7774908 L11.607859,7.21783805 C9.99132836,6.57754639 8.39427398,6.32531028 6.77774333,6.32531028 C2.82405993,6.32531028 0.19476309,8.3820047 0.19476309,11.8162963 C0.19476309,17.1714629 7.59574679,16.3177407 7.59574679,18.6266712 C7.59574679,19.519199 6.81669588,19.8102407 5.72602459,19.8102407 C4.10949394,19.8102407 2.04500902,19.1505462 0.409002092,18.2580185 L0.409002092,22.8758795 C2.22029547,23.6519906 4.05106512,23.9818378 5.72602459,23.9818378 C9.77708936,23.9818378 12.5621964,21.9833517 12.5621964,18.5102546 C12.5427201,12.7282269 5.12226013,13.7565741 5.12226013,11.583463 Z" id="path5528"></path>
                        </g>
                    </g>
                </g>
            </g>
        </g>
    </g>
</svg>
