<?xml version="1.0" encoding="UTF-8"?>
<svg width="64px" height="64px" viewBox="0 0 64 64" version="1.1" xmlns="http://www.w3.org/2000/svg" xmlns:xlink="http://www.w3.org/1999/xlink">
    <!-- Generator: Sketch 63.1 (92452) - https://sketch.com -->
    <title>Icon</title>
    <desc>Created with Sketch.</desc>
    <g id="Website" stroke="none" stroke-width="1" fill="none" fill-rule="evenodd">
        <g id="Products-D-XL-2.-—-Product" transform="translate(-100.000000, -1532.000000)">
            <g id="Text" transform="translate(100.000000, 527.000000)">
                <g id="4" transform="translate(0.000000, 1005.000000)">
                    <g id="Icon">
                        <rect id="Background" fill="#415C85" x="0" y="0" width="64" height="64" rx="10"></rect>
                        <g transform="translate(32.000000, 32.000000) scale(-1, 1) translate(-32.000000, -32.000000) translate(11.000000, 11.000000)" id="Rectangle" stroke="#EAF9FA" stroke-width="4">
                            <rect x="2" y="2" width="38" height="38" rx="19"></rect>
                        </g>
                        <path d="M32,24 C33.1045695,24 34,24.8954305 34,26 L34,30 L38,30 C39.1045695,30 40,30.8954305 40,32 C40,33.1045695 39.1045695,34 38,34 L34,34 L34,38 C34,39.1045695 33.1045695,40 32,40 C30.8954305,40 30,39.1045695 30,38 L30,34 L26,34 C24.8954305,34 24,33.1045695 24,32 C24,30.8954305 24.8954305,30 26,30 L30,30 L30,26 C30,24.8954305 30.8954305,24 32,24 Z" id="Combined-Shape" fill="#EAF9FA" opacity="0.400000006"></path>
                    </g>
                </g>
            </g>
        </g>
    </g>
</svg>