<?xml version="1.0" encoding="UTF-8"?>
<svg width="181px" height="26px" viewBox="0 0 181 26" version="1.1" xmlns="http://www.w3.org/2000/svg" xmlns:xlink="http://www.w3.org/1999/xlink">
    <!-- Generator: Sketch 63.1 (92452) - https://sketch.com -->
    <title>Logotype</title>
    <desc>Created with Sketch.</desc>
    <g id="Website" stroke="none" stroke-width="1" fill="none" fill-rule="evenodd">
        <g id="Products-D-XL-2.-—-Product" transform="translate(-1569.000000, -1984.000000)">
            <g id="Related" transform="translate(100.000000, 1904.000000)">
                <g id="Row-2">
                    <g id="Next" transform="translate(1019.000000, 0.000000)">
                        <g id="Content">
                            <g id="Image" transform="translate(441.000000, 40.000000)">
                                <g id="Atoms/Logotypes/Products/RingCentral" transform="translate(9.000000, 40.000000)">
                                    <g id="RingCentral">
                                        <path d="M8.10588235,13.7647059 L6.88235294,21.1058824 L0,21.1058824 L3.67058824,0.152941176 L13.6117647,0.152941176 C15.1411765,0.152941176 16.5176471,0.305882353 17.5882353,0.458823529 C18.6588235,0.611764706 19.5764706,0.917647059 20.1882353,1.37647059 C20.8,1.68235294 21.4117647,2.29411765 21.7176471,2.75294118 C22.0235294,3.36470588 22.1764706,3.97647059 22.1764706,4.74117647 C22.1764706,5.2 22.1764706,5.65882353 22.0235294,6.11764706 C21.8705882,7.34117647 21.4117647,8.41176471 20.6470588,9.32941176 C19.8823529,10.2470588 18.9647059,10.8588235 17.5882353,11.3176471 C18.0470588,11.4705882 18.3529412,11.6235294 18.8117647,11.7764706 C19.1176471,11.9294118 19.4235294,12.0823529 19.7294118,12.3882353 C20.0352941,12.6941176 20.1882353,13 20.3411765,13.3058824 C20.4941176,13.6117647 20.4941176,14.2235294 20.4941176,14.6823529 C20.4941176,15.2941176 20.4941176,16.0588235 20.3411765,16.8235294 C20.1882353,17.5882353 20.0352941,18.2 20.0352941,18.6588235 C19.8823529,19.1176471 19.8823529,19.5764706 19.8823529,19.7294118 C19.8823529,20.1882353 20.0352941,20.4941176 20.3411765,20.4941176 L20.1882353,21.1058824 L13,21.1058824 C13,20.9529412 13,20.6470588 13,20.4941176 C13,20.1882353 13,19.7294118 13,19.2705882 C13,18.8117647 13.1529412,18.2 13.3058824,17.5882353 C13.4588235,16.9764706 13.4588235,16.3647059 13.4588235,15.9058824 C13.4588235,15.1411765 13.1529412,14.6823529 12.6941176,14.3764706 C12.3882353,13.9176471 11.4705882,13.7647059 10.2470588,13.7647059 L8.10588235,13.7647059 Z M9.02352941,9.17647059 L11.7764706,9.17647059 C12.8470588,9.17647059 13.6117647,9.02352941 14.2235294,8.71764706 C14.8352941,8.41176471 15.1411765,7.95294118 15.2941176,7.18823529 C15.2941176,7.03529412 15.2941176,6.88235294 15.2941176,6.72941176 C15.2941176,6.11764706 15.1411765,5.65882353 14.6823529,5.50588235 C14.2235294,5.2 13.6117647,5.04705882 12.8470588,5.04705882 L9.63529412,5.04705882 L9.02352941,9.17647059 Z" id="Shape" fill="#0074AE"></path>
                                        <path d="M31.6588235,5.81176471 L37.1647059,5.81176471 L36.7058824,8.25882353 C37.6235294,7.34117647 38.3882353,6.57647059 39.3058824,6.11764706 C40.2235294,5.65882353 41.1411765,5.35294118 42.3647059,5.35294118 C44.0470588,5.35294118 45.2705882,5.81176471 46.1882353,6.57647059 C46.9529412,7.34117647 47.4117647,8.56470588 47.4117647,10.0941176 C47.4117647,10.7058824 47.4117647,11.3176471 47.2588235,11.9294118 L45.7294118,21.1058824 L39.6117647,21.1058824 L40.9882353,13 C40.9882353,12.6941176 41.1411765,12.2352941 41.1411765,11.9294118 C41.1411765,11.4705882 40.9882353,11.0117647 40.8352941,10.5529412 C40.5294118,10.2470588 40.0705882,10.0941176 39.4588235,10.0941176 C38.5411765,10.0941176 37.7764706,10.4 37.4705882,10.8588235 C37.0117647,11.4705882 36.7058824,12.2352941 36.5529412,13.1529412 L35.1764706,21.1058824 L29.0588235,21.1058824 L31.6588235,5.81176471 Z" id="Path" fill="#0074AE"></path>
                                        <path d="M53.2235294,21.5647059 L53.2235294,21.5647059 C53.2235294,21.8705882 53.3764706,22.0235294 53.5294118,22.1764706 C53.6823529,22.4823529 54.1411765,22.4823529 54.7529412,22.4823529 C55.6705882,22.4823529 56.2823529,22.3294118 56.7411765,21.8705882 C57.2,21.4117647 57.5058824,20.6470588 57.6588235,19.5764706 L57.9647059,18.3529412 C57.5058824,18.8117647 56.8941176,19.1176471 56.1294118,19.5764706 C55.3647059,19.8823529 54.4470588,20.0352941 53.3764706,20.0352941 C52.4588235,20.0352941 51.6941176,19.8823529 50.9294118,19.5764706 C50.1647059,19.2705882 49.7058824,18.8117647 49.2470588,18.3529412 C48.7882353,17.8941176 48.4823529,17.2823529 48.1764706,16.5176471 C47.8705882,15.7529412 47.8705882,15.1411765 47.8705882,14.2235294 C47.8705882,13.9176471 47.8705882,13.7647059 47.8705882,13.4588235 C47.8705882,13.1529412 47.8705882,13 48.0235294,12.6941176 C48.1764706,11.7764706 48.4823529,10.8588235 48.7882353,9.94117647 C49.2470588,9.02352941 49.7058824,8.10588235 50.4705882,7.49411765 C51.0823529,6.72941176 52,6.11764706 52.9176471,5.65882353 C53.8352941,5.2 54.9058824,5.04705882 56.2823529,5.04705882 C57.2,5.04705882 58.1176471,5.2 58.7294118,5.65882353 C59.4941176,6.11764706 60.1058824,6.72941176 60.4117647,7.49411765 L60.7176471,5.50588235 L66.0705882,5.50588235 L63.9294118,17.8941176 C63.7764706,18.9647059 63.4705882,20.1882353 63.1647059,21.1058824 C62.8588235,22.0235294 62.4,22.9411765 61.7882353,23.7058824 C61.1764706,24.4705882 60.2588235,25.0823529 59.0352941,25.3882353 C57.8117647,25.8470588 56.4352941,26 54.4470588,26 C53.0705882,26 52,25.8470588 51.0823529,25.6941176 C50.1647059,25.3882353 49.4,25.0823529 48.7882353,24.7764706 C48.1764706,24.3176471 47.8705882,24.0117647 47.5647059,23.4 C47.2588235,22.9411765 47.1058824,22.3294118 47.1058824,21.8705882 L47.1058824,21.7176471 L53.2235294,21.7176471 L53.2235294,21.5647059 Z M56.8941176,9.32941176 C56.4352941,9.32941176 56.1294118,9.48235294 55.6705882,9.63529412 C55.3647059,9.78823529 55.0588235,10.0941176 54.7529412,10.4 C54.4470588,10.7058824 54.2941176,11.0117647 54.1411765,11.4705882 C53.9882353,11.9294118 53.8352941,12.3882353 53.8352941,12.8470588 C53.8352941,13 53.8352941,13.1529412 53.8352941,13.3058824 C53.8352941,13.4588235 53.8352941,13.6117647 53.8352941,13.6117647 C53.8352941,14.2235294 53.9882353,14.6823529 54.2941176,15.1411765 C54.6,15.6 55.0588235,15.7529412 55.8235294,15.9058824 L55.9764706,15.9058824 C56.4352941,15.9058824 56.7411765,15.7529412 57.2,15.6 C57.5058824,15.4470588 57.8117647,15.1411765 58.1176471,14.8352941 C58.4235294,14.5294118 58.5764706,14.2235294 58.7294118,13.7647059 C58.8823529,13.4588235 59.0352941,13 59.0352941,12.5411765 C59.0352941,12.2352941 59.1882353,11.9294118 59.1882353,11.6235294 C59.1882353,11.0117647 59.0352941,10.4 58.7294118,9.94117647 C58.2705882,9.63529412 57.6588235,9.32941176 56.8941176,9.32941176 L56.8941176,9.32941176 Z" id="Shape" fill="#0074AE"></path>
                                        <path d="M80.2941176,8.25882353 C80.2941176,8.25882353 80.2941176,8.10588235 80.2941176,8.10588235 C80.2941176,8.10588235 80.2941176,7.95294118 80.2941176,7.95294118 C80.2941176,7.03529412 79.9882353,6.27058824 79.5294118,5.81176471 C79.0705882,5.35294118 78.3058824,5.04705882 77.2352941,5.04705882 C76.0117647,5.04705882 75.0941176,5.50588235 74.3294118,6.42352941 C73.5647059,7.34117647 72.9529412,8.87058824 72.6470588,10.7058824 C72.6470588,11.0117647 72.4941176,11.4705882 72.4941176,11.7764706 C72.4941176,12.0823529 72.4941176,12.3882353 72.4941176,12.6941176 C72.4941176,13.1529412 72.4941176,13.6117647 72.6470588,14.0705882 C72.8,14.5294118 72.9529412,14.8352941 73.1058824,15.1411765 C73.4117647,15.4470588 73.7176471,15.7529412 74.0235294,15.9058824 C74.4823529,16.0588235 74.9411765,16.2117647 75.5529412,16.2117647 C76.6235294,16.2117647 77.3882353,15.9058824 78.1529412,15.2941176 C78.7647059,14.6823529 79.2235294,13.9176471 79.5294118,12.8470588 L85.8,12.8470588 C85.4941176,14.0705882 84.8823529,15.2941176 84.2705882,16.3647059 C83.5058824,17.4352941 82.7411765,18.2 81.8235294,18.9647059 C80.9058824,19.7294118 79.8352941,20.1882353 78.6117647,20.6470588 C77.3882353,20.9529412 76.1647059,21.2588235 74.9411765,21.2588235 C73.5647059,21.2588235 72.1882353,21.1058824 71.1176471,20.6470588 C70.0470588,20.3411765 69.1294118,19.7294118 68.3647059,19.1176471 C67.6,18.3529412 66.9882353,17.5882353 66.6823529,16.5176471 C66.2235294,15.4470588 66.0705882,14.3764706 66.0705882,13.1529412 C66.0705882,12.8470588 66.0705882,12.3882353 66.0705882,11.9294118 C66.0705882,11.4705882 66.2235294,11.1647059 66.2235294,10.7058824 C66.5294118,9.17647059 66.9882353,7.64705882 67.7529412,6.42352941 C68.5176471,5.2 69.4352941,3.97647059 70.5058824,3.05882353 C71.5764706,2.14117647 72.8,1.52941176 74.0235294,0.917647059 C75.4,0.458823529 76.6235294,0.152941176 78,0.152941176 C80.9058824,0.152941176 83.0470588,0.764705882 84.4235294,1.98823529 C85.8,3.21176471 86.5647059,5.04705882 86.5647059,7.34117647 C86.5647059,7.49411765 86.5647059,7.64705882 86.5647059,7.8 C86.5647059,7.95294118 86.5647059,8.10588235 86.5647059,8.25882353 L80.2941176,8.25882353 L80.2941176,8.25882353 Z" id="Path" fill="#FF8800"></path>
                                        <path d="M92.8352941,14.3764706 C92.8352941,14.5294118 92.8352941,14.5294118 92.8352941,14.6823529 C92.8352941,14.8352941 92.8352941,14.8352941 92.8352941,14.9882353 C92.8352941,15.7529412 93.1411765,16.3647059 93.6,16.8235294 C94.0588235,17.2823529 94.6705882,17.4352941 95.4352941,17.4352941 C95.8941176,17.4352941 96.3529412,17.2823529 96.8117647,17.1294118 C97.2705882,16.9764706 97.5764706,16.5176471 97.8823529,16.0588235 L103.694118,16.0588235 C103.235294,16.9764706 102.776471,17.7411765 102.011765,18.5058824 C101.247059,19.1176471 100.482353,19.7294118 99.7176471,20.0352941 C98.9529412,20.4941176 98.0352941,20.6470588 97.1176471,20.9529412 C96.2,21.1058824 95.2823529,21.2588235 94.3647059,21.2588235 C93.2941176,21.2588235 92.2235294,21.1058824 91.3058824,20.8 C90.3882353,20.4941176 89.6235294,20.1882353 89.0117647,19.5764706 C88.4,18.9647059 87.7882353,18.3529412 87.4823529,17.5882353 C87.1764706,16.8235294 86.8705882,15.9058824 86.8705882,14.8352941 C86.8705882,14.5294118 86.8705882,14.3764706 86.8705882,14.0705882 C86.8705882,13.7647059 86.8705882,13.6117647 87.0235294,13.3058824 C87.1764706,12.0823529 87.6352941,10.8588235 88.2470588,9.94117647 C88.8588235,8.87058824 89.6235294,8.10588235 90.5411765,7.34117647 C91.4588235,6.57647059 92.5294118,6.11764706 93.6,5.65882353 C94.6705882,5.2 95.8941176,5.04705882 97.1176471,5.04705882 C98.3411765,5.04705882 99.4117647,5.2 100.329412,5.50588235 C101.247059,5.81176471 102.011765,6.27058824 102.776471,7.03529412 C103.388235,7.64705882 103.847059,8.41176471 104.305882,9.32941176 C104.611765,10.2470588 104.764706,11.1647059 104.764706,12.2352941 C104.764706,12.8470588 104.611765,13.6117647 104.458824,14.5294118 L92.8352941,14.5294118 L92.8352941,14.3764706 Z M98.8,11.3176471 C98.8,11.1647059 98.8,11.0117647 98.8,10.8588235 C98.8,10.2470588 98.6470588,9.63529412 98.1882353,9.32941176 C97.7294118,8.87058824 97.2705882,8.71764706 96.5058824,8.71764706 C95.5882353,8.71764706 94.8235294,9.02352941 94.2117647,9.48235294 C93.6,9.94117647 93.2941176,10.5529412 93.1411765,11.4705882 L98.8,11.4705882 L98.8,11.3176471 Z" id="Shape" fill="#FF8800"></path>
                                        <path d="M106.6,5.81176471 L112.105882,5.81176471 L111.647059,8.25882353 C112.564706,7.34117647 113.329412,6.57647059 114.247059,6.11764706 C115.164706,5.65882353 116.082353,5.35294118 117.305882,5.35294118 C118.988235,5.35294118 120.211765,5.81176471 121.129412,6.57647059 C121.894118,7.34117647 122.352941,8.56470588 122.352941,10.0941176 C122.352941,10.7058824 122.352941,11.3176471 122.2,11.9294118 L120.670588,21.1058824 L114.552941,21.1058824 L115.929412,13 C115.929412,12.6941176 116.082353,12.2352941 116.082353,11.9294118 C116.082353,11.4705882 115.929412,11.0117647 115.776471,10.5529412 C115.470588,10.2470588 115.011765,10.0941176 114.4,10.0941176 C113.482353,10.0941176 112.717647,10.4 112.411765,10.8588235 C111.952941,11.4705882 111.647059,12.2352941 111.494118,13.1529412 L110.117647,21.1058824 L104,21.1058824 L106.6,5.81176471 Z" id="Path" fill="#FF8800"></path>
                                        <path d="M131.988235,21.1058824 C131.376471,21.1058824 130.611765,21.1058824 130.152941,21.2588235 C129.541176,21.2588235 129.082353,21.2588235 128.623529,21.2588235 C127.705882,21.2588235 126.941176,21.2588235 126.329412,21.1058824 C125.717647,20.9529412 125.258824,20.8 124.8,20.6470588 C124.494118,20.4941176 124.188235,20.1882353 124.035294,19.7294118 C123.882353,19.4235294 123.729412,18.9647059 123.729412,18.3529412 C123.729412,18.0470588 123.729412,17.5882353 123.729412,17.1294118 C123.729412,16.6705882 123.882353,16.2117647 123.882353,15.7529412 L124.952941,9.17647059 L122.811765,9.17647059 L123.423529,5.65882353 L125.717647,5.65882353 L126.635294,0.917647059 L132.6,0.917647059 L131.682353,5.65882353 L134.588235,5.65882353 L133.976471,9.17647059 L131.070588,9.17647059 L130.152941,14.8352941 C130.152941,14.9882353 130.152941,15.1411765 130,15.2941176 C130,15.4470588 130,15.6 130,15.7529412 C130,16.0588235 130.152941,16.3647059 130.305882,16.5176471 C130.611765,16.6705882 130.917647,16.8235294 131.682353,16.8235294 L132.6,16.8235294 L131.988235,21.1058824 Z" id="Path" fill="#FF8800"></path>
                                        <path d="M135.811765,5.81176471 L141.317647,5.81176471 L140.858824,8.87058824 L140.858824,8.87058824 C142.082353,6.57647059 143.917647,5.35294118 146.211765,5.35294118 C146.364706,5.35294118 146.517647,5.35294118 146.670588,5.35294118 C146.823529,5.35294118 146.976471,5.35294118 147.129412,5.35294118 L146.058824,11.4705882 C145.905882,11.4705882 145.6,11.3176471 145.447059,11.3176471 C145.294118,11.3176471 144.988235,11.3176471 144.835294,11.3176471 C143.611765,11.3176471 142.541176,11.6235294 141.929412,12.3882353 C141.164706,13 140.705882,14.2235294 140.4,15.9058824 L139.482353,21.2588235 L133.364706,21.2588235 L135.811765,5.81176471 Z" id="Path" fill="#FF8800"></path>
                                        <path d="M155.235294,21.2588235 L155.235294,19.1176471 C154.317647,19.8823529 153.247059,20.4941176 152.329412,20.8 C151.411765,21.1058824 150.341176,21.2588235 149.117647,21.2588235 C148.505882,21.2588235 147.894118,21.2588235 147.282353,21.1058824 C146.670588,20.9529412 146.211765,20.8 145.752941,20.3411765 C145.294118,20.0352941 144.988235,19.5764706 144.682353,19.1176471 C144.376471,18.6588235 144.376471,18.0470588 144.376471,17.4352941 C144.376471,17.1294118 144.376471,16.8235294 144.529412,16.5176471 C144.682353,15.2941176 145.141176,14.5294118 145.752941,13.7647059 C146.364706,13.1529412 147.129412,12.6941176 148.047059,12.2352941 C148.964706,11.9294118 149.882353,11.6235294 150.8,11.4705882 C151.717647,11.3176471 152.635294,11.1647059 153.552941,11.1647059 C154.317647,11.0117647 155.082353,10.8588235 155.694118,10.7058824 C156.305882,10.5529412 156.611765,10.2470588 156.611765,9.63529412 C156.611765,9.63529412 156.611765,9.63529412 156.611765,9.48235294 C156.611765,9.48235294 156.611765,9.48235294 156.611765,9.32941176 C156.611765,9.02352941 156.611765,8.87058824 156.458824,8.71764706 C156.305882,8.56470588 156.152941,8.41176471 156,8.41176471 C155.847059,8.41176471 155.694118,8.25882353 155.388235,8.25882353 C155.235294,8.25882353 154.929412,8.25882353 154.929412,8.25882353 C154.776471,8.25882353 154.470588,8.25882353 154.317647,8.25882353 C154.011765,8.25882353 153.858824,8.41176471 153.705882,8.41176471 C153.552941,8.56470588 153.247059,8.71764706 153.094118,8.87058824 C152.941176,9.02352941 152.788235,9.32941176 152.635294,9.63529412 L146.823529,9.63529412 C146.976471,8.87058824 147.282353,8.10588235 147.588235,7.49411765 C148.047059,6.88235294 148.505882,6.27058824 149.270588,5.81176471 C150.035294,5.35294118 150.952941,5.04705882 152.023529,4.74117647 C153.094118,4.43529412 154.470588,4.43529412 156,4.43529412 C157.376471,4.43529412 158.447059,4.58823529 159.364706,4.74117647 C160.282353,4.89411765 160.894118,5.2 161.505882,5.50588235 C161.964706,5.81176471 162.423529,6.27058824 162.576471,6.72941176 C162.729412,7.18823529 162.882353,7.8 162.882353,8.41176471 C162.882353,8.71764706 162.882353,9.17647059 162.882353,9.48235294 C162.882353,9.94117647 162.729412,10.2470588 162.729412,10.7058824 L161.505882,17.8941176 C161.505882,18.2 161.352941,18.5058824 161.352941,18.6588235 C161.352941,18.8117647 161.352941,19.1176471 161.505882,19.2705882 C161.658824,19.4235294 161.658824,19.5764706 161.964706,19.8823529 L161.964706,20.6470588 L155.235294,20.6470588 L155.235294,21.2588235 Z M152.329412,17.7411765 C152.788235,17.7411765 153.247059,17.5882353 153.705882,17.4352941 C154.164706,17.2823529 154.470588,16.9764706 154.776471,16.6705882 C155.082353,16.3647059 155.235294,15.9058824 155.388235,15.4470588 C155.541176,14.9882353 155.694118,14.5294118 155.694118,13.9176471 C155.082353,14.2235294 154.623529,14.3764706 154.011765,14.3764706 C153.4,14.5294118 152.941176,14.5294118 152.482353,14.6823529 C152.023529,14.8352941 151.564706,14.9882353 151.258824,15.2941176 C150.952941,15.6 150.647059,15.9058824 150.647059,16.3647059 L150.647059,16.5176471 C150.647059,16.8235294 150.8,17.1294118 151.105882,17.2823529 C151.411765,17.5882353 151.870588,17.7411765 152.329412,17.7411765 Z" id="Shape" fill="#FF8800"></path>
                                        <polygon id="Path" fill="#FF8800" points="162.576471 21.1058824 166.247059 0.152941176 172.364706 0.152941176 168.694118 21.1058824"></polygon>
                                        <polygon id="Path" fill="#0074AE" points="21.2588235 21.1058824 24.6235294 8.71764706 29.0588235 8.71764706 27.2235294 21.1058824"></polygon>
                                        <path d="M31.2,3.21176471 C31.2,3.21176471 31.2,3.21176471 31.2,3.21176471 C31.2,3.05882353 31.2,3.05882353 31.2,3.21176471 C31.0470588,2.90588235 30.8941176,2.75294118 30.5882353,2.6 C30.1294118,2.29411765 29.5176471,1.83529412 28.2941176,1.52941176 C27.6823529,1.37647059 27.2235294,1.37647059 26.9176471,1.52941176 C26,1.68235294 25.3882353,1.98823529 25.0823529,2.14117647 C25.0823529,2.14117647 24.9294118,2.14117647 24.9294118,2.14117647 L24.9294118,2.14117647 C24.6235294,2.44705882 24.1647059,2.44705882 23.8588235,2.14117647 C23.5529412,1.83529412 23.5529412,1.37647059 23.8588235,1.07058824 C23.8588235,1.07058824 24.7764706,0.152941176 26.6117647,6.79195262e-16 C27.2235294,6.79195262e-16 27.8352941,6.79195262e-16 28.4470588,0.152941176 C31.2,0.611764706 32.2705882,2.44705882 32.2705882,2.6 L32.2705882,2.6 C32.4235294,2.90588235 32.2705882,3.36470588 31.9647059,3.51764706 C31.8117647,3.51764706 31.8117647,3.51764706 31.6588235,3.51764706 C31.6588235,3.51764706 31.3529412,3.36470588 31.2,3.21176471 Z" id="Path" fill="#FF8800"></path>
                                        <path d="M29.5176471,4.74117647 C29.5176471,4.74117647 29.5176471,4.74117647 29.5176471,4.74117647 C29.3647059,4.58823529 29.3647059,4.58823529 29.2117647,4.43529412 C29.0588235,4.28235294 28.6,3.97647059 27.9882353,3.82352941 C27.6823529,3.82352941 27.3764706,3.82352941 27.2235294,3.82352941 C26.6117647,3.82352941 26.3058824,4.12941176 26.3058824,4.12941176 C26.3058824,4.12941176 26.3058824,4.12941176 26.3058824,4.12941176 C26,4.43529412 25.6941176,4.43529412 25.3882353,4.12941176 C25.0823529,3.82352941 25.0823529,3.51764706 25.3882353,3.21176471 C25.3882353,3.21176471 26,2.6 27.0705882,2.44705882 C27.3764706,2.44705882 27.8352941,2.44705882 28.1411765,2.44705882 L28.1411765,2.44705882 C29.8235294,2.75294118 30.4352941,3.82352941 30.5882353,3.97647059 C30.7411765,4.28235294 30.5882353,4.58823529 30.2823529,4.74117647 C30.2823529,4.74117647 30.1294118,4.74117647 30.1294118,4.74117647 C29.8235294,5.2 29.5176471,5.04705882 29.5176471,4.74117647 Z" id="Path" fill="#FF8800"></path>
                                        <path d="M28.9058824,6.27058824 C28.9058824,7.03529412 28.1411765,7.64705882 27.3764706,7.64705882 C26.4588235,7.64705882 25.8470588,7.03529412 25.8470588,6.27058824 C25.8470588,5.50588235 26.6117647,4.89411765 27.3764706,4.89411765 C28.2941176,4.89411765 28.9058824,5.50588235 28.9058824,6.27058824" id="Path" fill="#FF8800"></path>
                                        <path d="M174.047059,2.44705882 C174.2,1.98823529 174.505882,1.68235294 174.811765,1.37647059 C175.117647,1.07058824 175.423529,0.764705882 175.882353,0.611764706 C176.341176,0.458823529 176.8,0.305882353 177.258824,0.305882353 C177.717647,0.305882353 178.176471,0.458823529 178.635294,0.611764706 C179.094118,0.764705882 179.4,1.07058824 179.705882,1.37647059 C180.011765,1.68235294 180.317647,1.98823529 180.470588,2.44705882 C180.623529,2.90588235 180.776471,3.36470588 180.776471,3.82352941 C180.776471,4.28235294 180.623529,4.74117647 180.470588,5.2 C180.317647,5.65882353 180.011765,5.96470588 179.705882,6.27058824 C179.4,6.57647059 179.094118,6.88235294 178.635294,7.03529412 C178.176471,7.18823529 177.717647,7.34117647 177.258824,7.34117647 C176.8,7.34117647 176.341176,7.18823529 175.882353,7.03529412 C175.423529,6.88235294 175.117647,6.57647059 174.811765,6.27058824 C174.505882,5.96470588 174.2,5.65882353 174.047059,5.2 C173.894118,4.74117647 173.741176,4.28235294 173.741176,3.82352941 C173.741176,3.21176471 173.894118,2.90588235 174.047059,2.44705882 Z M174.505882,4.89411765 C174.658824,5.2 174.811765,5.50588235 175.117647,5.81176471 C175.423529,6.11764706 175.729412,6.27058824 176.035294,6.42352941 C176.341176,6.57647059 176.8,6.57647059 177.105882,6.57647059 C177.564706,6.57647059 177.870588,6.57647059 178.176471,6.42352941 C178.482353,6.27058824 178.788235,6.11764706 179.094118,5.81176471 C179.4,5.50588235 179.552941,5.2 179.705882,4.89411765 C179.858824,4.58823529 179.858824,4.12941176 179.858824,3.67058824 C179.858824,3.21176471 179.858824,2.90588235 179.705882,2.6 C179.552941,2.29411765 179.4,1.98823529 179.094118,1.68235294 C178.788235,1.37647059 178.482353,1.22352941 178.176471,1.07058824 C177.870588,0.917647059 177.411765,0.917647059 177.105882,0.917647059 C176.647059,0.917647059 176.341176,0.917647059 176.035294,1.07058824 C175.729412,1.22352941 175.423529,1.37647059 175.117647,1.68235294 C174.811765,1.98823529 174.658824,2.29411765 174.505882,2.6 C174.352941,2.90588235 174.352941,3.36470588 174.352941,3.82352941 C174.352941,4.12941176 174.352941,4.58823529 174.505882,4.89411765 Z M177.411765,1.83529412 C177.870588,1.83529412 178.176471,1.98823529 178.482353,2.14117647 C178.635294,2.29411765 178.788235,2.6 178.788235,3.05882353 C178.788235,3.36470588 178.635294,3.67058824 178.482353,3.82352941 C178.329412,3.97647059 178.023529,4.12941176 177.717647,4.12941176 L178.788235,5.96470588 L178.176471,5.96470588 L177.105882,4.28235294 L176.494118,4.28235294 L176.494118,5.96470588 L175.882353,5.96470588 L175.882353,1.83529412 L177.411765,1.83529412 Z M177.105882,3.51764706 C177.258824,3.51764706 177.411765,3.51764706 177.564706,3.51764706 C177.717647,3.51764706 177.870588,3.51764706 177.870588,3.36470588 C178.023529,3.36470588 178.023529,3.21176471 178.176471,3.21176471 C178.176471,3.05882353 178.329412,3.05882353 178.329412,2.90588235 C178.329412,2.75294118 178.329412,2.6 178.176471,2.6 C178.176471,2.44705882 178.023529,2.44705882 178.023529,2.44705882 C177.870588,2.44705882 177.870588,2.44705882 177.717647,2.29411765 C177.564706,2.29411765 177.564706,2.29411765 177.411765,2.29411765 L176.647059,2.29411765 L176.647059,3.51764706 L177.105882,3.51764706 Z" id="Shape" fill="#FF8800" fill-rule="nonzero"></path>
                                    </g>
                                </g>
                            </g>
                        </g>
                    </g>
                </g>
            </g>
        </g>
    </g>
</svg>