<?xml version="1.0" encoding="UTF-8"?>
<svg width="387px" height="75px" viewBox="0 0 387 75" version="1.1" xmlns="http://www.w3.org/2000/svg" xmlns:xlink="http://www.w3.org/1999/xlink">
    <!-- Generator: Sketch 63.1 (92452) - https://sketch.com -->
    <title>Logotype</title>
    <desc>Created with Sketch.</desc>
    <g id="Website" stroke="none" stroke-width="1" fill="none" fill-rule="evenodd">
        <g id="Products-D-XL-1.-—-List" transform="translate(-1397.000000, -1015.000000)" fill="#000000">
            <g id="Content" transform="translate(20.000000, 324.000000)">
                <g id="Row-2" transform="translate(0.000000, 597.000000)">
                    <g id="3" transform="translate(1280.000000, 0.000000)">
                        <g id="Image" transform="translate(40.000000, 0.000000)">
                            <g id="Atoms/Logotypes/Products/Approval-Max" transform="translate(57.000000, 94.000000)">
                                <g id="Approval-Max">
                                    <path d="M245.251575,33.941129 L241.425112,33.941129 C240.452775,33.941129 239.850506,34.3766129 239.528812,35.3564516 C238.996687,36.9701613 238.421025,38.6032258 237.862294,40.1806452 L237.513994,41.1677419 C236.435231,44.2330645 235.351631,47.2983871 234.229331,50.475 L232.961906,54.0604839 C232.866643,53.8114355 232.773919,53.5614225 232.68375,53.3104839 L231.247012,49.2701613 C229.609519,44.666129 227.972025,40.0596774 226.358719,35.4459677 C226.092656,34.691129 225.657281,33.941129 224.426137,33.941129 L220.343287,33.941129 C219.883725,33.941129 219.402394,33.9846774 219.162937,34.3330645 C218.913806,34.6959677 219.066187,35.2040323 219.204056,35.5524194 C222.340544,43.5730469 225.457516,51.6012965 228.554944,59.6370968 C228.888731,60.5032258 229.474069,60.9072581 230.393194,60.9072581 L234.749362,60.9024194 C235.886175,60.9024194 236.568262,60.4185484 237.032662,59.2330645 C238.225106,56.1798387 239.480437,53.0951613 240.69465,50.1120968 L242.131387,46.575 L243.038419,44.3322581 C244.184906,41.5016129 245.331394,38.666129 246.473044,35.8306452 C246.77055,35.0854839 246.884231,34.65 246.666544,34.3306452 C246.451275,34.0137097 246.020737,33.9459677 245.251575,33.941129 L245.251575,33.941129 Z M204.585131,55.8435484 L204.575456,55.8435484 C199.875825,55.8387097 196.593581,52.3258065 196.593581,47.3008065 C196.593581,42.408871 199.945969,38.8475806 204.560944,38.8330645 C206.711292,38.8156201 208.770132,39.7022134 210.235331,41.2766129 C211.713187,42.8540323 212.525887,45.0120968 212.523474,47.3467742 C212.52105,52.2701613 209.180756,55.8435484 204.585131,55.8435484 L204.585131,55.8435484 Z M204.39405,33.4887097 C204.0264,33.4887097 203.656331,33.4959677 203.281425,33.5129032 C199.306713,33.6904083 195.598239,35.5618418 193.09365,38.6540323 C190.626159,41.7239692 189.608998,45.7124496 190.304831,49.5895161 C191.586769,56.7822581 196.864481,61.1395161 204.415819,61.2435484 L204.6456,61.2435484 C210.119231,61.2435484 214.915612,58.5870968 217.162631,54.3072581 C219.801487,49.2798387 219.634594,44.216129 216.678881,39.6604839 C214.023094,35.5645161 209.88945,33.4862903 204.39405,33.4862903 L204.39405,33.4887097 Z M264.1662,54.975 C264.163781,55.0717742 263.917069,55.35 263.658262,55.4733871 C262.219106,56.175 260.784787,56.5282258 259.394006,56.5282258 C258.390711,56.5253902 257.395814,56.3451991 256.455225,55.9959677 C255.199894,55.5362903 254.493619,54.6508065 254.350912,53.3709677 C254.203369,51.9967742 254.677444,50.966129 255.807,50.2209677 C257.483194,49.1153226 259.374656,48.9193548 261.374962,48.708871 C261.655537,48.6798387 261.933694,48.6508065 262.21185,48.6169355 C262.465819,48.5903226 262.722206,48.5806452 262.98585,48.5806452 C263.208375,48.5806452 263.435738,48.5854839 263.670356,48.5927419 L264.197644,48.6048387 L264.200063,49.8822581 C264.2049,51.6314516 264.207319,53.2862903 264.1662,54.975 L264.1662,54.975 Z M262.821375,33.6846774 C261.818211,33.5248793 260.804067,33.4439863 259.788262,33.4427419 C256.94865,33.4427419 254.118712,34.083871 251.373431,35.3467742 C248.949844,36.4596774 248.882119,36.6314516 249.951206,39.041129 L250.009256,39.1741935 L250.149544,39.4887097 C250.558312,40.3887097 250.783256,40.8846774 251.334731,40.8846774 C251.654006,40.8846774 252.007144,40.7008065 252.650531,40.3524194 C254.987044,39.0774194 257.209875,38.4580645 259.447219,38.4580645 L259.592344,38.4580645 C261.227419,38.4798387 262.567406,39.0556452 263.370431,40.0814516 C264.168619,41.1048387 264.410494,42.5346774 264.064612,44.1290323 C263.822737,44.1508065 263.580862,44.1677419 263.338987,44.1846774 C262.647225,44.2330645 261.931275,44.2814516 261.234675,44.4314516 L259.481081,44.7943548 C257.243737,45.2516129 254.928994,45.7233871 252.720675,46.4298387 C250.425281,47.1653226 248.841,48.8733871 248.262919,51.2395161 C247.694512,53.5693548 248.134725,55.8846774 249.503737,57.7524194 C250.954987,59.733871 253.325362,60.9846774 256.005337,61.1879032 C256.602769,61.2314516 257.151825,61.2532258 257.688787,61.2532258 C260.446162,61.2532258 262.736719,60.6532258 264.848287,59.3758065 C264.8628,59.7822581 264.966806,60.0919355 265.162725,60.3145161 C265.4046,60.5879032 265.777087,60.7354839 266.304375,60.7354839 L269.424562,60.7354839 C269.87445,60.7354839 270.205819,60.6024194 270.430762,60.3774194 C270.665381,60.1427419 270.779062,59.7919355 270.776644,59.3056452 C270.769387,57.3991935 270.776644,55.4903226 270.7839,53.5814516 C270.798412,49.9814516 270.812925,46.2580645 270.713756,42.5975806 C270.578306,37.4927419 267.922519,34.4951613 262.821375,33.6846774 L262.821375,33.6846774 Z M385.846256,58.6983871 C384.588506,57.1814516 383.3235,55.6983871 382.058494,54.2177419 L380.495981,52.3862903 L377.037169,48.3072581 L375.629456,46.6475806 L377.462869,44.583871 L384.815869,36.3145161 C384.878756,36.2419355 384.946481,36.1693548 385.011787,36.1016129 C385.20045,35.8983871 385.39395,35.6903226 385.54875,35.4483871 C385.812394,35.0322581 385.870444,34.6790323 385.7229,34.4008065 C385.582612,34.1322581 385.212544,33.941129 384.752981,33.941129 L380.650781,33.941129 C378.464231,33.941129 378.46665,34.1177419 376.033387,37.0669355 C374.995744,38.325 374.098387,39.6774194 372.976087,40.9862903 C372.550387,41.4822581 372.122269,41.9830645 371.701406,42.4959677 L370.363837,40.8048387 C368.789231,38.808871 367.263,36.8733871 365.710162,34.9548387 C365.487637,34.6790323 364.781362,33.9387097 364.162162,33.9387097 L358.53615,33.9387097 C357.919369,33.9387097 357.675075,34.2193548 357.573487,34.4201613 C357.469481,34.6306452 357.428362,34.9983871 357.829875,35.5427419 C358.103194,35.9153226 358.410375,36.2637097 358.703044,36.6024194 L359.010225,36.9532258 L365.710162,44.7580645 L367.66935,47.0443548 L366.556725,48.3387097 L363.859819,51.4669355 L362.082037,53.516129 C360.6066,55.2169355 359.131162,56.9177419 357.675075,58.6354839 C357.275981,59.1048387 356.847862,59.7604839 357.075225,60.2056452 C357.302587,60.641129 358.016119,60.716129 358.589362,60.7354839 L362.822175,60.7354839 C363.830794,60.7354839 364.587862,60.3362903 365.284462,59.4580645 C366.830044,57.5032258 368.3853,55.6185484 370.034887,53.625 L371.706244,51.5951613 L373.353412,53.6153226 C374.978812,55.6064516 376.514719,57.4862903 378.048206,59.4217742 C378.764156,60.3241935 379.533319,60.7354839 380.539519,60.7354839 L385.23915,60.7354839 C385.551169,60.7354839 386.134087,60.6870968 386.368706,60.2322581 C386.656537,59.6758065 386.151019,59.0637097 385.846256,58.6983871 L385.846256,58.6983871 Z M280.874925,20.883871 L277.515281,20.883871 C275.870531,20.8887097 275.64075,21.1451613 275.64075,22.7806452 L275.638331,35.8645161 L275.638331,45.2225806 C275.643169,49.7951613 275.643169,54.3677419 275.626237,58.9403226 C275.626237,59.4435484 275.669775,60.0072581 276.02775,60.3629032 C276.269625,60.6048387 276.622762,60.7354839 277.089581,60.7354839 L280.1493,60.7354839 C282.089137,60.7354839 282.224587,60.566129 282.224587,58.6596774 L282.224587,22.9790323 L282.222169,22.2508065 C282.212494,21.3677419 281.743256,20.8814516 280.874925,20.8814516 L280.874925,20.883871 Z M190.404,38.0612903 C190.471725,37.9741935 190.53945,37.8846774 190.619269,37.8072581 C191.047387,37.3717742 191.107856,36.9870968 191.086087,36.7403226 C191.0619,36.5056452 190.940962,36.1596774 190.486237,35.8451613 C190.30725,35.7241935 190.128262,35.5959677 189.946856,35.4677419 C189.194625,34.9330645 188.415787,34.3790323 187.547456,34.0596774 C186.488806,33.6472695 185.364918,33.4276795 184.228931,33.4112903 C181.698919,33.4112903 179.473669,34.6403226 177.275025,37.2677419 L177.272606,37.0645161 C177.26535,36.4427419 177.260512,35.9080645 177.287119,35.3830645 C177.313725,34.8991935 177.214556,34.5459677 176.979937,34.3016129 C176.745319,34.0572581 176.3946,33.9387097 175.906012,33.9387097 C175.25295,33.9508065 172.901925,33.9508065 172.319006,33.9387097 L172.314169,33.9387097 C171.801394,33.9387097 171.467606,34.05 171.237825,34.2774194 C170.99595,34.5193548 170.87985,34.8822581 170.87985,35.3903226 C170.894362,43.3354839 170.894362,51.2806452 170.87985,59.2258065 C170.87985,59.7362903 171.000787,60.1064516 171.252337,60.3556452 C171.494212,60.5951613 171.840094,60.7354839 172.321425,60.7354839 L175.60125,60.7354839 C177.262931,60.7306452 177.470944,60.491129 177.475781,58.8556452 C177.480619,57.6048387 177.475781,56.3516129 177.468525,55.1008065 C177.456431,52.1298387 177.441919,49.0572581 177.565275,46.0451613 C177.651898,44.4414043 178.065079,42.8722413 178.779487,41.433871 C179.536556,39.9 181.123256,38.9491935 182.922806,38.9491935 C183.672619,38.9491935 184.429687,39.1185484 185.109356,39.4427419 C185.365744,39.5637097 185.648737,39.7330645 185.922056,39.8975806 C186.519487,40.2604839 187.138687,40.6306452 187.697419,40.6306452 C187.798668,40.6311021 187.899527,40.6180847 187.997344,40.5919355 C188.686687,40.4008065 189.182531,39.7064516 189.659025,39.0314516 C189.850106,38.7653226 190.046025,38.4870968 190.244362,38.2572581 C190.299994,38.1943548 190.353206,38.1290323 190.406419,38.0612903 L190.404,38.0612903 Z M348.491081,54.7112903 C348.483825,54.9435484 348.212925,55.3403226 347.983144,55.4540323 C346.556081,56.1677419 345.121762,56.5306452 343.718887,56.5306452 C342.736875,56.5306452 341.752444,56.3516129 340.787362,56.0032258 C339.529612,55.5435484 338.816081,54.6653226 338.668537,53.3903226 C338.5089,52.016129 338.978137,50.9830645 340.102856,50.2306452 C341.747606,49.1322581 343.697119,48.9217742 345.581325,48.716129 L346.38435,48.6266129 C346.621387,48.6 346.882612,48.5854839 347.204306,48.5854839 C347.436506,48.5854839 347.678381,48.5927419 347.929931,48.6 L348.522525,48.6145161 L348.524944,49.9814516 C348.5322,51.6120968 348.537037,53.1508065 348.491081,54.7112903 L348.491081,54.7112903 Z M347.151094,33.6870968 C346.143181,33.5262407 345.124131,33.4451613 344.103469,33.4451613 C341.273531,33.4451613 338.448431,34.0814516 335.705569,35.3370968 C333.257794,36.4572581 333.190069,36.633871 334.302694,39.1354839 C334.3293,39.2008065 334.360744,39.2637097 334.389769,39.3266129 C334.442981,39.4354839 334.498612,39.5443548 334.534894,39.6604839 C334.621969,39.9483871 334.895287,40.8217742 335.727337,40.8217742 C336.041775,40.8217742 336.404587,40.6983871 336.859312,40.4298387 C339.03135,39.1475806 341.317069,38.4822581 343.651162,38.4556452 L343.740656,38.4556452 C345.465225,38.4556452 346.81005,38.9903226 347.634844,40.0040323 C348.4548,41.0129032 348.713606,42.4354839 348.384656,44.1266129 L347.651775,44.1991935 C346.967269,44.2620968 346.275506,44.3274194 345.588581,44.4120968 C342.221681,44.8185484 338.806406,45.2322581 335.802319,47.0322581 C333.526275,48.3967742 332.358019,50.4290323 332.33625,53.0782258 C332.29755,57.4185484 335.647519,60.8298387 340.298775,61.1830645 C340.903462,61.2314516 341.459775,61.2532258 342.006412,61.2532258 C344.751694,61.2532258 347.034994,60.6604839 349.141725,59.3927419 C349.138437,59.7239977 349.251421,60.0459122 349.461,60.3024194 C349.794787,60.675 350.314819,60.7354839 350.677631,60.7354839 L353.725256,60.7354839 C354.184819,60.7354839 354.521025,60.6024194 354.748387,60.375 C354.980587,60.1451613 355.09185,59.8016129 355.089431,59.325 C355.082175,57.4137097 355.089431,55.5 355.096687,53.5862903 C355.108781,49.991129 355.123294,46.2725806 355.028962,42.6169355 C354.89835,37.5072581 352.2474,34.5048387 347.151094,33.6895161 L347.151094,33.6870968 Z M328.163906,21.2491935 C327.929287,21.0120968 327.590662,20.8814516 327.1311,20.8814516 L323.154675,20.8814516 C321.92595,20.8814516 321.067294,21.4258065 320.290875,22.7540323 C317.290795,27.8601215 314.264091,32.9505135 311.210887,38.025 L308.218894,43.0185484 L308.160844,42.9290323 C307.977019,42.6508065 307.822219,42.4137097 307.674675,42.1669355 L305.473612,38.4895161 C302.232487,33.0653226 298.991362,27.6435484 295.772006,22.2072581 C295.385006,21.5540323 294.833531,20.8935484 293.687044,20.8862903 L289.420369,20.8814516 C288.902756,20.8814516 288.542362,21.0096774 288.29565,21.2612903 C288.034425,21.525 287.915906,21.9217742 287.925581,22.5072581 C287.959444,24.4669355 287.952187,26.4604839 287.94735,28.3887097 L287.942512,30.7354839 L287.942512,58.8145161 C287.942512,60.5733871 288.068287,60.7330645 289.872675,60.7354839 L292.702612,60.7354839 C294.540862,60.7330645 294.690825,60.5516129 294.690825,58.7274194 C294.690825,54.6653226 294.669056,50.5814516 294.647287,46.5 C294.6231,42.3459677 294.601331,38.1943548 294.60375,34.0645161 C294.60375,33.8637097 294.613425,33.6604839 294.625519,33.4209677 L294.983494,33.9870968 C295.810706,35.3419355 296.652431,36.6846774 297.494156,38.0298387 C299.508975,41.2475806 301.591519,44.5766129 303.444281,47.9516129 C304.74315,50.3177419 306.211331,51.3266129 308.359181,51.3266129 C308.700225,51.3266129 309.067875,51.3 309.447619,51.2467742 C310.5288,51.0943548 311.271356,50.8112903 311.868787,49.7975806 C314.471362,45.3943548 317.148919,40.9354839 319.7394,36.6241935 L321.560719,33.5927419 C321.599419,33.5274194 321.640537,33.4645161 321.688912,33.3991935 L321.688912,35.7266129 C321.688912,39.5685484 321.7131,43.4298387 321.737287,47.2935484 C321.759056,51.1016129 321.780825,54.9096774 321.780825,58.6935484 C321.780825,60.5491935 321.928369,60.7330645 323.74485,60.7354839 L326.536087,60.7354839 C328.384012,60.7330645 328.514625,60.5685484 328.514625,58.7201613 L328.514625,27.8564516 L328.512206,26.25 C328.505147,24.9709625 328.508372,23.6918889 328.522207,22.4129032 C328.529137,21.8709677 328.415456,21.5008065 328.163906,21.2491935 L328.163906,21.2491935 Z M131.149462,47.6274194 C131.105236,48.5752676 130.978989,49.5175007 130.772137,50.4435484 C130.162612,53.0032258 128.534794,54.6943548 125.934637,55.4685484 C124.989115,55.7472832 124.00819,55.8874503 123.022462,55.8847178 C121.979981,55.8847178 120.869775,55.7346774 119.720869,55.4395161 C119.02185,55.2604839 118.816256,54.9943548 118.838025,54.3024194 C118.8864,52.5701613 118.879144,50.8064516 118.869469,49.1008065 C118.864631,48.4185484 118.862212,47.733871 118.862212,47.0491935 L118.862212,45.1596774 C118.864631,43.3717742 118.86705,41.5862903 118.854956,39.7983871 C118.852537,39.1524194 118.896075,39 119.33145,38.9975806 C119.868412,38.9927419 120.407794,38.9685484 120.947175,38.9419355 C121.527675,38.9153226 122.105756,38.8887097 122.679,38.8887097 C123.380437,38.8887097 123.960937,38.9274194 124.495481,39.0169355 C128.89035,39.7354839 131.437294,43.0330645 131.149462,47.6298387 L131.149462,47.6274194 Z M128.9484,34.6209677 C126.682031,33.8153226 124.253606,33.4258065 121.518,33.4258065 C118.688062,33.4258065 115.8291,33.8516129 113.405512,34.2725806 C112.86855,34.3645161 112.375125,35.2064516 112.317075,35.7072581 C112.227581,36.4935484 112.244512,37.2967742 112.261444,38.0733871 C112.2687,38.3830645 112.275956,38.6927419 112.275956,39.0024194 L112.275956,46.1201613 C112.275956,54.8395161 112.278375,63.5612903 112.259025,72.2806452 C112.259025,72.8395161 112.3074,73.4080645 112.670212,73.7685484 C112.912087,74.0104839 113.262806,74.1290323 113.7393,74.1290323 L116.85465,74.1290323 C118.685644,74.1241935 118.862212,73.9403226 118.862212,72.15 L118.862212,60.8951613 C119.474156,60.9290323 120.076425,60.9701613 120.671437,61.0137097 C121.871137,61.0983871 123.003112,61.1830645 124.1496,61.1830645 C124.480969,61.1830645 124.814756,61.1733871 125.146125,61.158871 C128.498512,60.9967742 131.374406,59.808871 133.68915,57.6266129 C136.712587,54.7790323 138.0042,51.0169355 137.641387,46.1298387 C137.213269,40.391129 134.289,36.5201613 128.9484,34.6209677 L128.9484,34.6209677 Z M160.447781,47.6274194 C160.375219,48.7862903 160.259119,49.6548387 160.070456,50.4435484 C159.46335,53.0032258 157.835531,54.6943548 155.232956,55.4685484 C154.287434,55.7472832 153.306509,55.8874503 152.320781,55.8847178 C151.280719,55.8847178 150.168094,55.7346774 149.019187,55.4395161 C148.322587,55.2604839 148.114575,54.9943548 148.136344,54.3024194 C148.187137,52.5701613 148.177462,50.8064516 148.167787,49.1008065 C148.163486,48.4169434 148.161068,47.7330699 148.160531,47.0491935 L148.160531,45.1596774 C148.16295,43.3717742 148.165369,41.5862903 148.155694,39.7983871 C148.150856,39.1524194 148.194394,39 148.629769,38.9975806 C149.166731,38.9927419 149.706112,38.9685484 150.245494,38.9419355 C150.825994,38.9153226 151.406494,38.8887097 151.979737,38.8887097 C152.681175,38.8887097 153.259256,38.9274194 153.7938,39.0169355 C158.188669,39.7354839 160.738031,43.0330645 160.447781,47.6298387 L160.447781,47.6274194 Z M158.246719,34.6209677 C155.982769,33.8153226 153.551925,33.4258065 150.816319,33.4258065 C147.986381,33.4258065 145.127419,33.8516129 142.703831,34.2725806 C142.169287,34.3645161 141.675862,35.2064516 141.615394,35.7072581 C141.5259,36.4935484 141.542831,37.2967742 141.559762,38.0733871 C141.567019,38.3830645 141.574275,38.6927419 141.574275,39.0024194 L141.574275,46.1201613 C141.574275,54.8395161 141.579112,63.5612903 141.559762,72.2806452 C141.559762,72.8395161 141.608137,73.4080645 141.97095,73.7685484 C142.212825,74.0104839 142.561125,74.1290323 143.037619,74.1290323 L146.152969,74.1290323 C147.986381,74.1241935 148.160531,73.9403226 148.160531,72.15 L148.160531,60.8951613 C148.772475,60.9290323 149.377162,60.9701613 149.969756,61.0137097 C151.169456,61.0983871 152.30385,61.1830645 153.447919,61.1830645 C153.781706,61.1830645 154.113075,61.1733871 154.444444,61.158871 C157.79925,60.9967742 160.672725,59.808871 162.989887,57.6266129 C166.013325,54.7790323 167.304937,51.0169355 166.939706,46.1298387 C166.511587,40.391129 163.587319,36.5201613 158.246719,34.6209677 L158.246719,34.6209677 Z M84.8618437,46.0669355 L91.0973812,29.6395161 L95.5841625,41.5620968 L97.2772875,46.0669355 L84.8642625,46.0669355 L84.8618437,46.0669355 Z M108.928406,58.3766129 L108.865519,58.2072581 C108.865519,58.2072581 99.1445625,32.2887097 96.082425,24.1862903 C95.8453875,23.5572581 95.676075,23.0491935 95.5382062,22.6379032 C94.9818937,20.9806452 94.8416062,20.7048387 93.1436437,20.7048387 L89.8855875,20.7048387 C87.6917812,20.7048387 87.5781,20.7870968 86.8379625,22.7395161 C84.3442312,29.3443548 73.1478375,58.8024194 73.1478375,58.8024194 C72.8745187,59.5185484 72.7705125,59.9685484 72.997875,60.3 C73.2324937,60.633871 73.7210812,60.7354839 74.5313625,60.7354839 L78.1111125,60.7354839 C79.27695,60.7354839 79.97355,60.191129 80.370225,58.9669355 C80.7620625,57.7475806 81.2313,56.5258065 81.686025,55.3475806 C82.0319062,54.4427419 82.3802062,53.5403226 82.6994812,52.6282258 C82.9026562,52.0475806 83.1203437,51.8879032 83.7129375,51.8879032 C86.1679687,51.9048387 95.9227875,51.9048387 98.3608875,51.8903226 C98.9994375,51.8903226 99.2219625,52.0451613 99.4130437,52.6016129 C99.8411625,53.8354839 100.307981,55.0814516 100.757869,56.283871 C101.147287,57.3217742 101.536706,58.3596774 101.906775,59.4048387 C102.22605,60.3072581 102.755756,60.7354839 103.626506,60.7354839 L108.202781,60.7354839 C108.768769,60.7354839 109.0953,60.5830645 109.271869,60.3217742 C109.450856,60.0580645 109.4436,59.6975806 109.2501,59.2185484 C109.138837,58.9403226 109.032412,58.6620968 108.928406,58.3790323 L108.928406,58.3766129 Z M42.9739312,20.1169355 C41.4969629,19.0483672 39.4346375,19.3725434 38.3565375,20.8427419 L27.7890187,35.2862903 L22.1001187,29.5596774 C20.8152477,28.268608 18.7305353,28.2534976 17.4270937,29.5258065 C16.803231,30.1338969 16.4485761,30.966405 16.4421276,31.8376873 C16.4358532,32.7089696 16.7783142,33.5465701 17.3932312,34.1637097 L25.8201562,42.6459677 C26.5031679,43.3343574 27.453342,43.6889859 28.4202336,43.6163811 C29.3871253,43.5437763 30.2737155,43.0512234 30.8463187,42.2685484 L43.7043937,24.6967742 C44.219492,23.9942094 44.4321352,23.1146995 44.2949122,22.2543411 C44.1576891,21.3939826 43.6820094,20.6243118 42.9739312,20.1169355 L42.9739312,20.1169355 Z M53.8244437,53.4217742 L30.2174437,53.4217742 C17.1997312,53.4217742 6.61044375,42.9096774 6.61044375,29.9903226 C6.61044375,17.0709677 17.1997312,6.55887097 30.2174437,6.55887097 C43.2351562,6.55887097 53.8244437,17.0709677 53.8244437,29.9903226 L53.8244437,53.4217742 Z M30.2174437,0 C13.5280687,0 0,13.4274194 0,29.9903226 C0,46.5532258 13.5280687,59.9806564 30.2174437,59.9806564 L58.0088812,59.9806564 C59.3424454,59.9846615 60.4271352,58.9072801 60.4324687,57.5733871 L60.4324687,29.9927419 C60.4324687,13.4274194 46.9044,0 30.2174437,0 Z"></path>
                                </g>
                            </g>
                        </g>
                    </g>
                </g>
            </g>
        </g>
    </g>
</svg>