<?xml version="1.0" encoding="UTF-8"?>
<svg width="100px" height="100px" viewBox="0 0 100 100" version="1.1" xmlns="http://www.w3.org/2000/svg" xmlns:xlink="http://www.w3.org/1999/xlink">
    <!-- Generator: Sketch 63.1 (92452) - https://sketch.com -->
    <title>Logotype</title>
    <desc>Created with Sketch.</desc>
    <g id="Website" stroke="none" stroke-width="1" fill="none" fill-rule="evenodd">
        <g id="Products-D-XL-2.-—-Product" transform="translate(-100.000000, -196.000000)">
            <g id="Page-Header" transform="translate(-0.000000, 112.000000)">
                <g id="Title" transform="translate(100.000000, 84.000000)">
                    <g id="Atoms/Logotypes/Products/Xero">
                        <g id="Xero">
                            <path d="M50.0011133,100 C77.6144992,100 100,77.6128027 100,50 C100,22.3827517 77.6167258,0 50.0011133,0 C22.3855009,0 0,22.3827517 0,50 C0,77.6128027 22.3855009,100 50.0011133,100" id="Path" fill="#1FC0E7" fill-rule="nonzero"></path>
                            <path d="M24.3622222,49.9874074 L32.8777778,41.431852 C33.16,41.1474074 33.3177778,40.7651852 33.3177778,40.3607406 C33.3177778,39.5162965 32.6333333,38.8318518 31.7911111,38.8318518 C31.38,38.8318518 30.9955555,38.9918518 30.7066667,39.2874074 L22.1955555,47.8051852 L13.6511111,39.271852 C13.3622222,38.9874074 12.98,38.8318518 12.5733333,38.8318518 C11.7288889,38.8318518 11.0466667,39.5162965 11.0466667,40.3585184 C11.0466667,40.7696297 11.2111111,41.1585184 11.5044445,41.4474074 L20.02,49.9740742 L11.5088889,58.5074074 C11.2111111,58.8051852 11.0466667,59.191852 11.0466667,59.6029629 C11.0466667,60.4474074 11.7311111,61.131852 12.5733333,61.131852 C12.98,61.131852 13.3622222,60.9762965 13.6511111,60.6874074 L22.1844445,52.1496297 L30.6844445,60.6540742 C30.9866667,60.9651852 31.3733333,61.131852 31.7911111,61.131852 C32.6311111,61.131852 33.3155555,60.4474074 33.3155555,59.6029629 C33.3155555,59.1962965 33.16,58.8140742 32.8711111,58.5251852 L24.36,49.9785184 L24.3622222,49.9874074 Z M74.9866668,49.9851852 C74.9866668,51.5185184 76.2311109,52.7629629 77.7644445,52.7629629 C79.2888891,52.7629629 80.5333332,51.5185184 80.5333332,49.9851852 C80.5333332,48.451852 79.2888891,47.2074074 77.7622223,47.2074074 C76.2355555,47.2074074 74.9933332,48.451852 74.9933332,49.9851852 L74.9866668,49.9851852 Z M69.7311109,49.9851852 C69.7311109,45.551852 73.3311109,41.9407406 77.7622223,41.9407406 C82.1844445,41.9407406 85.7911109,45.551852 85.7911109,49.9851852 C85.7911109,54.4185184 82.1866668,58.0296297 77.7622223,58.0296297 C73.3333332,58.0296297 69.7311109,54.4229629 69.7311109,49.9851852 L69.7311109,49.9851852 Z M66.5711109,49.9851852 C66.5711109,56.1629629 71.5933332,61.1940742 77.7622223,61.1940742 C83.9311109,61.1940742 88.9533332,56.1674074 88.9533332,49.9874074 C88.9533332,43.8096297 83.9311109,38.7785185 77.7622223,38.7785185 C71.5911109,38.7785185 66.5711109,43.8074074 66.5711109,49.9874074 L66.5711109,49.9851852 Z M65.7777777,38.9696296 L65.3111109,38.9696296 C63.9,38.9696296 62.54,39.4140742 61.4044445,40.291852 C61.2488891,39.611852 60.6355555,39.091852 59.9066668,39.091852 C59.0688891,39.091852 58.3955555,39.7696297 58.3955555,40.611852 L58.4,59.4896297 C58.4,60.3274074 59.0888891,61.0096297 59.9222223,61.0096297 C60.7622223,61.0096297 61.4466668,60.3274074 61.4488891,59.4851852 L61.4488891,47.8762965 C61.4488891,44.0096297 61.8044445,42.4451852 65.1111109,42.031852 C65.4222223,41.9940742 65.7511109,42.0007406 65.7555555,42.0007406 C66.6577777,41.9674074 67.3022223,41.3429629 67.3022223,40.5007406 C67.3022223,39.6562965 66.6133332,38.9718518 65.7688891,38.9718518 L65.7777777,38.9696296 Z M36.4755555,48.1429629 C36.4755555,48.0985184 36.48,48.0540742 36.4822222,48.0140742 C37.3666667,44.5029629 40.54,41.9096297 44.3155555,41.9096297 C48.1377777,41.9096297 51.3377777,44.5629629 52.1822223,48.1362965 L36.4733333,48.1362965 L36.4755555,48.1429629 Z M55.3044445,47.8540742 C54.6466668,44.7362965 52.9422223,42.1740742 50.3488891,40.5296297 C46.5533332,38.1162963 41.5444445,38.2496296 37.8822222,40.8629629 C34.8911111,42.9896297 33.1644445,46.4740742 33.1644445,50.0629629 C33.1644445,50.9629629 33.2755555,51.871852 33.4977778,52.7674074 C34.6266667,57.211852 38.4444445,60.5807406 42.9955555,61.1385184 C44.3466668,61.3029629 45.6622223,61.2274074 47.0177777,60.871852 C48.1911109,60.5829629 49.3222223,60.111852 50.3644445,59.4407406 C51.4466668,58.7451852 52.3511109,57.8251852 53.2311109,56.7251852 C53.2444445,56.7029629 53.2622223,56.6874074 53.28,56.6651852 C53.8888891,55.9096297 53.7755555,54.8296297 53.1088891,54.3185184 C52.5444445,53.8851852 51.5977777,53.7096297 50.8555555,54.6651852 C50.6955555,54.8962965 50.5155555,55.131852 50.3222223,55.3651852 C49.7288891,56.0207406 48.9933332,56.6540742 48.1133332,57.1474074 C46.9888891,57.7474074 45.7133332,58.0874074 44.3577777,58.0962965 C39.9177777,58.0451852 37.5444445,54.9407406 36.6977778,52.7274074 C36.5511111,52.311852 36.4377778,51.8829629 36.3577778,51.4385184 L36.3355555,51.2051852 L52.2688891,51.2051852 C54.4511109,51.1562965 55.6244445,49.611852 55.3,47.8496297 L55.3044445,47.8540742 Z" id="Shape" fill="#FFFFFF" fill-rule="nonzero"></path>
                        </g>
                    </g>
                </g>
            </g>
        </g>
    </g>
</svg>