<?xml version="1.0" encoding="UTF-8"?>
<svg width="445px" height="64px" viewBox="0 0 445 64" version="1.1" xmlns="http://www.w3.org/2000/svg" xmlns:xlink="http://www.w3.org/1999/xlink">
    <!-- Generator: Sketch 63.1 (92452) - https://sketch.com -->
    <title>Logotype</title>
    <desc>Created with Sketch.</desc>
    <g id="Website" stroke="none" stroke-width="1" fill="none" fill-rule="evenodd">
        <g id="Products-D-XL-1.-—-List" transform="translate(-746.000000, -423.000000)">
            <g id="Content" transform="translate(20.000000, 324.000000)">
                <g id="Row-1">
                    <g id="2" transform="translate(640.000000, 0.000000)">
                        <g id="Image" transform="translate(60.000000, 0.000000)">
                            <g id="Atoms/Logotypes/Products/RingCentral" transform="translate(26.000000, 99.000000)">
                                <g id="RingCentral">
                                    <path d="M19.9529412,33.8823529 L16.9411765,51.9529412 L0,51.9529412 L9.03529412,0.376470588 L33.5058824,0.376470588 C37.2705882,0.376470588 40.6588235,0.752941176 43.2941176,1.12941176 C45.9294118,1.50588235 48.1882353,2.25882353 49.6941176,3.38823529 C51.2,4.14117647 52.7058824,5.64705882 53.4588235,6.77647059 C54.2117647,8.28235294 54.5882353,9.78823529 54.5882353,11.6705882 C54.5882353,12.8 54.5882353,13.9294118 54.2117647,15.0588235 C53.8352941,18.0705882 52.7058824,20.7058824 50.8235294,22.9647059 C48.9411765,25.2235294 46.6823529,26.7294118 43.2941176,27.8588235 C44.4235294,28.2352941 45.1764706,28.6117647 46.3058824,28.9882353 C47.0588235,29.3647059 47.8117647,29.7411765 48.5647059,30.4941176 C49.3176471,31.2470588 49.6941176,32 50.0705882,32.7529412 C50.4470588,33.5058824 50.4470588,35.0117647 50.4470588,36.1411765 C50.4470588,37.6470588 50.4470588,39.5294118 50.0705882,41.4117647 C49.6941176,43.2941176 49.3176471,44.8 49.3176471,45.9294118 C48.9411765,47.0588235 48.9411765,48.1882353 48.9411765,48.5647059 C48.9411765,49.6941176 49.3176471,50.4470588 50.0705882,50.4470588 L49.6941176,51.9529412 L32,51.9529412 C32,51.5764706 32,50.8235294 32,50.4470588 C32,49.6941176 32,48.5647059 32,47.4352941 C32,46.3058824 32.3764706,44.8 32.7529412,43.2941176 C33.1294118,41.7882353 33.1294118,40.2823529 33.1294118,39.1529412 C33.1294118,37.2705882 32.3764706,36.1411765 31.2470588,35.3882353 C30.4941176,34.2588235 28.2352941,33.8823529 25.2235294,33.8823529 L19.9529412,33.8823529 Z M22.2117647,22.5882353 L28.9882353,22.5882353 C31.6235294,22.5882353 33.5058824,22.2117647 35.0117647,21.4588235 C36.5176471,20.7058824 37.2705882,19.5764706 37.6470588,17.6941176 C37.6470588,17.3176471 37.6470588,16.9411765 37.6470588,16.5647059 C37.6470588,15.0588235 37.2705882,13.9294118 36.1411765,13.5529412 C35.0117647,12.8 33.5058824,12.4235294 31.6235294,12.4235294 L23.7176471,12.4235294 L22.2117647,22.5882353 Z" id="Shape" fill="#0074AE"></path>
                                    <path d="M77.9294118,14.3058824 L91.4823529,14.3058824 L90.3529412,20.3294118 C92.6117647,18.0705882 94.4941176,16.1882353 96.7529412,15.0588235 C99.0117647,13.9294118 101.270588,13.1764706 104.282353,13.1764706 C108.423529,13.1764706 111.435294,14.3058824 113.694118,16.1882353 C115.576471,18.0705882 116.705882,21.0823529 116.705882,24.8470588 C116.705882,26.3529412 116.705882,27.8588235 116.329412,29.3647059 L112.564706,51.9529412 L97.5058824,51.9529412 L100.894118,32 C100.894118,31.2470588 101.270588,30.1176471 101.270588,29.3647059 C101.270588,28.2352941 100.894118,27.1058824 100.517647,25.9764706 C99.7647059,25.2235294 98.6352941,24.8470588 97.1294118,24.8470588 C94.8705882,24.8470588 92.9882353,25.6 92.2352941,26.7294118 C91.1058824,28.2352941 90.3529412,30.1176471 89.9764706,32.3764706 L86.5882353,51.9529412 L71.5294118,51.9529412 L77.9294118,14.3058824 Z" id="Path" fill="#0074AE"></path>
                                    <path d="M131.011765,53.0823529 L131.011765,53.0823529 C131.011765,53.8352941 131.388235,54.2117647 131.764706,54.5882353 C132.141176,55.3411765 133.270588,55.3411765 134.776471,55.3411765 C137.035294,55.3411765 138.541176,54.9647059 139.670588,53.8352941 C140.8,52.7058824 141.552941,50.8235294 141.929412,48.1882353 L142.682353,45.1764706 C141.552941,46.3058824 140.047059,47.0588235 138.164706,48.1882353 C136.282353,48.9411765 134.023529,49.3176471 131.388235,49.3176471 C129.129412,49.3176471 127.247059,48.9411765 125.364706,48.1882353 C123.482353,47.4352941 122.352941,46.3058824 121.223529,45.1764706 C120.094118,44.0470588 119.341176,42.5411765 118.588235,40.6588235 C117.835294,38.7764706 117.835294,37.2705882 117.835294,35.0117647 C117.835294,34.2588235 117.835294,33.8823529 117.835294,33.1294118 C117.835294,32.3764706 117.835294,32 118.211765,31.2470588 C118.588235,28.9882353 119.341176,26.7294118 120.094118,24.4705882 C121.223529,22.2117647 122.352941,19.9529412 124.235294,18.4470588 C125.741176,16.5647059 128,15.0588235 130.258824,13.9294118 C132.517647,12.8 135.152941,12.4235294 138.541176,12.4235294 C140.8,12.4235294 143.058824,12.8 144.564706,13.9294118 C146.447059,15.0588235 147.952941,16.5647059 148.705882,18.4470588 L149.458824,13.5529412 L162.635294,13.5529412 L157.364706,44.0470588 C156.988235,46.6823529 156.235294,49.6941176 155.482353,51.9529412 C154.729412,54.2117647 153.6,56.4705882 152.094118,58.3529412 C150.588235,60.2352941 148.329412,61.7411765 145.317647,62.4941176 C142.305882,63.6235294 138.917647,64 134.023529,64 C130.635294,64 128,63.6235294 125.741176,63.2470588 C123.482353,62.4941176 121.6,61.7411765 120.094118,60.9882353 C118.588235,59.8588235 117.835294,59.1058824 117.082353,57.6 C116.329412,56.4705882 115.952941,54.9647059 115.952941,53.8352941 L115.952941,53.4588235 L131.011765,53.4588235 L131.011765,53.0823529 Z M140.047059,22.9647059 C138.917647,22.9647059 138.164706,23.3411765 137.035294,23.7176471 C136.282353,24.0941176 135.529412,24.8470588 134.776471,25.6 C134.023529,26.3529412 133.647059,27.1058824 133.270588,28.2352941 C132.894118,29.3647059 132.517647,30.4941176 132.517647,31.6235294 C132.517647,32 132.517647,32.3764706 132.517647,32.7529412 C132.517647,33.1294118 132.517647,33.5058824 132.517647,33.5058824 C132.517647,35.0117647 132.894118,36.1411765 133.647059,37.2705882 C134.4,38.4 135.529412,38.7764706 137.411765,39.1529412 L137.788235,39.1529412 C138.917647,39.1529412 139.670588,38.7764706 140.8,38.4 C141.552941,38.0235294 142.305882,37.2705882 143.058824,36.5176471 C143.811765,35.7647059 144.188235,35.0117647 144.564706,33.8823529 C144.941176,33.1294118 145.317647,32 145.317647,30.8705882 C145.317647,30.1176471 145.694118,29.3647059 145.694118,28.6117647 C145.694118,27.1058824 145.317647,25.6 144.564706,24.4705882 C143.435294,23.7176471 141.929412,22.9647059 140.047059,22.9647059 L140.047059,22.9647059 Z" id="Shape" fill="#0074AE"></path>
                                    <path d="M197.647059,20.3294118 C197.647059,20.3294118 197.647059,19.9529412 197.647059,19.9529412 C197.647059,19.9529412 197.647059,19.5764706 197.647059,19.5764706 C197.647059,17.3176471 196.894118,15.4352941 195.764706,14.3058824 C194.635294,13.1764706 192.752941,12.4235294 190.117647,12.4235294 C187.105882,12.4235294 184.847059,13.5529412 182.964706,15.8117647 C181.082353,18.0705882 179.576471,21.8352941 178.823529,26.3529412 C178.823529,27.1058824 178.447059,28.2352941 178.447059,28.9882353 C178.447059,29.7411765 178.447059,30.4941176 178.447059,31.2470588 C178.447059,32.3764706 178.447059,33.5058824 178.823529,34.6352941 C179.2,35.7647059 179.576471,36.5176471 179.952941,37.2705882 C180.705882,38.0235294 181.458824,38.7764706 182.211765,39.1529412 C183.341176,39.5294118 184.470588,39.9058824 185.976471,39.9058824 C188.611765,39.9058824 190.494118,39.1529412 192.376471,37.6470588 C193.882353,36.1411765 195.011765,34.2588235 195.764706,31.6235294 L211.2,31.6235294 C210.447059,34.6352941 208.941176,37.6470588 207.435294,40.2823529 C205.552941,42.9176471 203.670588,44.8 201.411765,46.6823529 C199.152941,48.5647059 196.517647,49.6941176 193.505882,50.8235294 C190.494118,51.5764706 187.482353,52.3294118 184.470588,52.3294118 C181.082353,52.3294118 177.694118,51.9529412 175.058824,50.8235294 C172.423529,50.0705882 170.164706,48.5647059 168.282353,47.0588235 C166.4,45.1764706 164.894118,43.2941176 164.141176,40.6588235 C163.011765,38.0235294 162.635294,35.3882353 162.635294,32.3764706 C162.635294,31.6235294 162.635294,30.4941176 162.635294,29.3647059 C162.635294,28.2352941 163.011765,27.4823529 163.011765,26.3529412 C163.764706,22.5882353 164.894118,18.8235294 166.776471,15.8117647 C168.658824,12.8 170.917647,9.78823529 173.552941,7.52941176 C176.188235,5.27058824 179.2,3.76470588 182.211765,2.25882353 C185.6,1.12941176 188.611765,0.376470588 192,0.376470588 C199.152941,0.376470588 204.423529,1.88235294 207.811765,4.89411765 C211.2,7.90588235 213.082353,12.4235294 213.082353,18.0705882 C213.082353,18.4470588 213.082353,18.8235294 213.082353,19.2 C213.082353,19.5764706 213.082353,19.9529412 213.082353,20.3294118 L197.647059,20.3294118 L197.647059,20.3294118 Z" id="Path" fill="#FF8800"></path>
                                    <path d="M228.517647,35.3882353 C228.517647,35.7647059 228.517647,35.7647059 228.517647,36.1411765 C228.517647,36.5176471 228.517647,36.5176471 228.517647,36.8941176 C228.517647,38.7764706 229.270588,40.2823529 230.4,41.4117647 C231.529412,42.5411765 233.035294,42.9176471 234.917647,42.9176471 C236.047059,42.9176471 237.176471,42.5411765 238.305882,42.1647059 C239.435294,41.7882353 240.188235,40.6588235 240.941176,39.5294118 L255.247059,39.5294118 C254.117647,41.7882353 252.988235,43.6705882 251.105882,45.5529412 C249.223529,47.0588235 247.341176,48.5647059 245.458824,49.3176471 C243.576471,50.4470588 241.317647,50.8235294 239.058824,51.5764706 C236.8,51.9529412 234.541176,52.3294118 232.282353,52.3294118 C229.647059,52.3294118 227.011765,51.9529412 224.752941,51.2 C222.494118,50.4470588 220.611765,49.6941176 219.105882,48.1882353 C217.6,46.6823529 216.094118,45.1764706 215.341176,43.2941176 C214.588235,41.4117647 213.835294,39.1529412 213.835294,36.5176471 C213.835294,35.7647059 213.835294,35.3882353 213.835294,34.6352941 C213.835294,33.8823529 213.835294,33.5058824 214.211765,32.7529412 C214.588235,29.7411765 215.717647,26.7294118 217.223529,24.4705882 C218.729412,21.8352941 220.611765,19.9529412 222.870588,18.0705882 C225.129412,16.1882353 227.764706,15.0588235 230.4,13.9294118 C233.035294,12.8 236.047059,12.4235294 239.058824,12.4235294 C242.070588,12.4235294 244.705882,12.8 246.964706,13.5529412 C249.223529,14.3058824 251.105882,15.4352941 252.988235,17.3176471 C254.494118,18.8235294 255.623529,20.7058824 256.752941,22.9647059 C257.505882,25.2235294 257.882353,27.4823529 257.882353,30.1176471 C257.882353,31.6235294 257.505882,33.5058824 257.129412,35.7647059 L228.517647,35.7647059 L228.517647,35.3882353 Z M243.2,27.8588235 C243.2,27.4823529 243.2,27.1058824 243.2,26.7294118 C243.2,25.2235294 242.823529,23.7176471 241.694118,22.9647059 C240.564706,21.8352941 239.435294,21.4588235 237.552941,21.4588235 C235.294118,21.4588235 233.411765,22.2117647 231.905882,23.3411765 C230.4,24.4705882 229.647059,25.9764706 229.270588,28.2352941 L243.2,28.2352941 L243.2,27.8588235 Z" id="Shape" fill="#FF8800"></path>
                                    <path d="M262.4,14.3058824 L275.952941,14.3058824 L274.823529,20.3294118 C277.082353,18.0705882 278.964706,16.1882353 281.223529,15.0588235 C283.482353,13.9294118 285.741176,13.1764706 288.752941,13.1764706 C292.894118,13.1764706 295.905882,14.3058824 298.164706,16.1882353 C300.047059,18.0705882 301.176471,21.0823529 301.176471,24.8470588 C301.176471,26.3529412 301.176471,27.8588235 300.8,29.3647059 L297.035294,51.9529412 L281.976471,51.9529412 L285.364706,32 C285.364706,31.2470588 285.741176,30.1176471 285.741176,29.3647059 C285.741176,28.2352941 285.364706,27.1058824 284.988235,25.9764706 C284.235294,25.2235294 283.105882,24.8470588 281.6,24.8470588 C279.341176,24.8470588 277.458824,25.6 276.705882,26.7294118 C275.576471,28.2352941 274.823529,30.1176471 274.447059,32.3764706 L271.058824,51.9529412 L256,51.9529412 L262.4,14.3058824 Z" id="Path" fill="#FF8800"></path>
                                    <path d="M324.894118,51.9529412 C323.388235,51.9529412 321.505882,51.9529412 320.376471,52.3294118 C318.870588,52.3294118 317.741176,52.3294118 316.611765,52.3294118 C314.352941,52.3294118 312.470588,52.3294118 310.964706,51.9529412 C309.458824,51.5764706 308.329412,51.2 307.2,50.8235294 C306.447059,50.4470588 305.694118,49.6941176 305.317647,48.5647059 C304.941176,47.8117647 304.564706,46.6823529 304.564706,45.1764706 C304.564706,44.4235294 304.564706,43.2941176 304.564706,42.1647059 C304.564706,41.0352941 304.941176,39.9058824 304.941176,38.7764706 L307.576471,22.5882353 L302.305882,22.5882353 L303.811765,13.9294118 L309.458824,13.9294118 L311.717647,2.25882353 L326.4,2.25882353 L324.141176,13.9294118 L331.294118,13.9294118 L329.788235,22.5882353 L322.635294,22.5882353 L320.376471,36.5176471 C320.376471,36.8941176 320.376471,37.2705882 320,37.6470588 C320,38.0235294 320,38.4 320,38.7764706 C320,39.5294118 320.376471,40.2823529 320.752941,40.6588235 C321.505882,41.0352941 322.258824,41.4117647 324.141176,41.4117647 L326.4,41.4117647 L324.894118,51.9529412 Z" id="Path" fill="#FF8800"></path>
                                    <path d="M334.305882,14.3058824 L347.858824,14.3058824 L346.729412,21.8352941 L346.729412,21.8352941 C349.741176,16.1882353 354.258824,13.1764706 359.905882,13.1764706 C360.282353,13.1764706 360.658824,13.1764706 361.035294,13.1764706 C361.411765,13.1764706 361.788235,13.1764706 362.164706,13.1764706 L359.529412,28.2352941 C359.152941,28.2352941 358.4,27.8588235 358.023529,27.8588235 C357.647059,27.8588235 356.894118,27.8588235 356.517647,27.8588235 C353.505882,27.8588235 350.870588,28.6117647 349.364706,30.4941176 C347.482353,32 346.352941,35.0117647 345.6,39.1529412 L343.341176,52.3294118 L328.282353,52.3294118 L334.305882,14.3058824 Z" id="Path" fill="#FF8800"></path>
                                    <path d="M382.117647,52.3294118 L382.117647,47.0588235 C379.858824,48.9411765 377.223529,50.4470588 374.964706,51.2 C372.705882,51.9529412 370.070588,52.3294118 367.058824,52.3294118 C365.552941,52.3294118 364.047059,52.3294118 362.541176,51.9529412 C361.035294,51.5764706 359.905882,51.2 358.776471,50.0705882 C357.647059,49.3176471 356.894118,48.1882353 356.141176,47.0588235 C355.388235,45.9294118 355.388235,44.4235294 355.388235,42.9176471 C355.388235,42.1647059 355.388235,41.4117647 355.764706,40.6588235 C356.141176,37.6470588 357.270588,35.7647059 358.776471,33.8823529 C360.282353,32.3764706 362.164706,31.2470588 364.423529,30.1176471 C366.682353,29.3647059 368.941176,28.6117647 371.2,28.2352941 C373.458824,27.8588235 375.717647,27.4823529 377.976471,27.4823529 C379.858824,27.1058824 381.741176,26.7294118 383.247059,26.3529412 C384.752941,25.9764706 385.505882,25.2235294 385.505882,23.7176471 C385.505882,23.7176471 385.505882,23.7176471 385.505882,23.3411765 C385.505882,23.3411765 385.505882,23.3411765 385.505882,22.9647059 C385.505882,22.2117647 385.505882,21.8352941 385.129412,21.4588235 C384.752941,21.0823529 384.376471,20.7058824 384,20.7058824 C383.623529,20.7058824 383.247059,20.3294118 382.494118,20.3294118 C382.117647,20.3294118 381.364706,20.3294118 381.364706,20.3294118 C380.988235,20.3294118 380.235294,20.3294118 379.858824,20.3294118 C379.105882,20.3294118 378.729412,20.7058824 378.352941,20.7058824 C377.976471,21.0823529 377.223529,21.4588235 376.847059,21.8352941 C376.470588,22.2117647 376.094118,22.9647059 375.717647,23.7176471 L361.411765,23.7176471 C361.788235,21.8352941 362.541176,19.9529412 363.294118,18.4470588 C364.423529,16.9411765 365.552941,15.4352941 367.435294,14.3058824 C369.317647,13.1764706 371.576471,12.4235294 374.211765,11.6705882 C376.847059,10.9176471 380.235294,10.9176471 384,10.9176471 C387.388235,10.9176471 390.023529,11.2941176 392.282353,11.6705882 C394.541176,12.0470588 396.047059,12.8 397.552941,13.5529412 C398.682353,14.3058824 399.811765,15.4352941 400.188235,16.5647059 C400.564706,17.6941176 400.941176,19.2 400.941176,20.7058824 C400.941176,21.4588235 400.941176,22.5882353 400.941176,23.3411765 C400.941176,24.4705882 400.564706,25.2235294 400.564706,26.3529412 L397.552941,44.0470588 C397.552941,44.8 397.176471,45.5529412 397.176471,45.9294118 C397.176471,46.3058824 397.176471,47.0588235 397.552941,47.4352941 C397.929412,47.8117647 397.929412,48.1882353 398.682353,48.9411765 L398.682353,50.8235294 L382.117647,50.8235294 L382.117647,52.3294118 Z M374.964706,43.6705882 C376.094118,43.6705882 377.223529,43.2941176 378.352941,42.9176471 C379.482353,42.5411765 380.235294,41.7882353 380.988235,41.0352941 C381.741176,40.2823529 382.117647,39.1529412 382.494118,38.0235294 C382.870588,36.8941176 383.247059,35.7647059 383.247059,34.2588235 C381.741176,35.0117647 380.611765,35.3882353 379.105882,35.3882353 C377.6,35.7647059 376.470588,35.7647059 375.341176,36.1411765 C374.211765,36.5176471 373.082353,36.8941176 372.329412,37.6470588 C371.576471,38.4 370.823529,39.1529412 370.823529,40.2823529 L370.823529,40.6588235 C370.823529,41.4117647 371.2,42.1647059 371.952941,42.5411765 C372.705882,43.2941176 373.835294,43.6705882 374.964706,43.6705882 Z" id="Shape" fill="#FF8800"></path>
                                    <polygon id="Path" fill="#FF8800" points="400.188235 51.9529412 409.223529 0.376470588 424.282353 0.376470588 415.247059 51.9529412"></polygon>
                                    <polygon id="Path" fill="#0074AE" points="52.3294118 51.9529412 60.6117647 21.4588235 71.5294118 21.4588235 67.0117647 51.9529412"></polygon>
                                    <path d="M76.8,7.90588235 C76.8,7.90588235 76.8,7.90588235 76.8,7.90588235 C76.8,7.52941176 76.8,7.52941176 76.8,7.90588235 C76.4235294,7.15294118 76.0470588,6.77647059 75.2941176,6.4 C74.1647059,5.64705882 72.6588235,4.51764706 69.6470588,3.76470588 C68.1411765,3.38823529 67.0117647,3.38823529 66.2588235,3.76470588 C64,4.14117647 62.4941176,4.89411765 61.7411765,5.27058824 C61.7411765,5.27058824 61.3647059,5.27058824 61.3647059,5.27058824 L61.3647059,5.27058824 C60.6117647,6.02352941 59.4823529,6.02352941 58.7294118,5.27058824 C57.9764706,4.51764706 57.9764706,3.38823529 58.7294118,2.63529412 C58.7294118,2.63529412 60.9882353,0.376470588 65.5058824,1.67186526e-15 C67.0117647,1.67186526e-15 68.5176471,1.67186526e-15 70.0235294,0.376470588 C76.8,1.50588235 79.4352941,6.02352941 79.4352941,6.4 L79.4352941,6.4 C79.8117647,7.15294118 79.4352941,8.28235294 78.6823529,8.65882353 C78.3058824,8.65882353 78.3058824,8.65882353 77.9294118,8.65882353 C77.9294118,8.65882353 77.1764706,8.28235294 76.8,7.90588235 Z" id="Path" fill="#FF8800"></path>
                                    <path d="M72.6588235,11.6705882 C72.6588235,11.6705882 72.6588235,11.6705882 72.6588235,11.6705882 C72.2823529,11.2941176 72.2823529,11.2941176 71.9058824,10.9176471 C71.5294118,10.5411765 70.4,9.78823529 68.8941176,9.41176471 C68.1411765,9.41176471 67.3882353,9.41176471 67.0117647,9.41176471 C65.5058824,9.41176471 64.7529412,10.1647059 64.7529412,10.1647059 C64.7529412,10.1647059 64.7529412,10.1647059 64.7529412,10.1647059 C64,10.9176471 63.2470588,10.9176471 62.4941176,10.1647059 C61.7411765,9.41176471 61.7411765,8.65882353 62.4941176,7.90588235 C62.4941176,7.90588235 64,6.4 66.6352941,6.02352941 C67.3882353,6.02352941 68.5176471,6.02352941 69.2705882,6.02352941 L69.2705882,6.02352941 C73.4117647,6.77647059 74.9176471,9.41176471 75.2941176,9.78823529 C75.6705882,10.5411765 75.2941176,11.2941176 74.5411765,11.6705882 C74.5411765,11.6705882 74.1647059,11.6705882 74.1647059,11.6705882 C73.4117647,12.8 72.6588235,12.4235294 72.6588235,11.6705882 Z" id="Path" fill="#FF8800"></path>
                                    <path d="M71.1529412,15.4352941 C71.1529412,17.3176471 69.2705882,18.8235294 67.3882353,18.8235294 C65.1294118,18.8235294 63.6235294,17.3176471 63.6235294,15.4352941 C63.6235294,13.5529412 65.5058824,12.0470588 67.3882353,12.0470588 C69.6470588,12.0470588 71.1529412,13.5529412 71.1529412,15.4352941" id="Path" fill="#FF8800"></path>
                                    <path d="M428.423529,6.02352941 C428.8,4.89411765 429.552941,4.14117647 430.305882,3.38823529 C431.058824,2.63529412 431.811765,1.88235294 432.941176,1.50588235 C434.070588,1.12941176 435.2,0.752941176 436.329412,0.752941176 C437.458824,0.752941176 438.588235,1.12941176 439.717647,1.50588235 C440.847059,1.88235294 441.6,2.63529412 442.352941,3.38823529 C443.105882,4.14117647 443.858824,4.89411765 444.235294,6.02352941 C444.611765,7.15294118 444.988235,8.28235294 444.988235,9.41176471 C444.988235,10.5411765 444.611765,11.6705882 444.235294,12.8 C443.858824,13.9294118 443.105882,14.6823529 442.352941,15.4352941 C441.6,16.1882353 440.847059,16.9411765 439.717647,17.3176471 C438.588235,17.6941176 437.458824,18.0705882 436.329412,18.0705882 C435.2,18.0705882 434.070588,17.6941176 432.941176,17.3176471 C431.811765,16.9411765 431.058824,16.1882353 430.305882,15.4352941 C429.552941,14.6823529 428.8,13.9294118 428.423529,12.8 C428.047059,11.6705882 427.670588,10.5411765 427.670588,9.41176471 C427.670588,7.90588235 428.047059,7.15294118 428.423529,6.02352941 Z M429.552941,12.0470588 C429.929412,12.8 430.305882,13.5529412 431.058824,14.3058824 C431.811765,15.0588235 432.564706,15.4352941 433.317647,15.8117647 C434.070588,16.1882353 435.2,16.1882353 435.952941,16.1882353 C437.082353,16.1882353 437.835294,16.1882353 438.588235,15.8117647 C439.341176,15.4352941 440.094118,15.0588235 440.847059,14.3058824 C441.6,13.5529412 441.976471,12.8 442.352941,12.0470588 C442.729412,11.2941176 442.729412,10.1647059 442.729412,9.03529412 C442.729412,7.90588235 442.729412,7.15294118 442.352941,6.4 C441.976471,5.64705882 441.6,4.89411765 440.847059,4.14117647 C440.094118,3.38823529 439.341176,3.01176471 438.588235,2.63529412 C437.835294,2.25882353 436.705882,2.25882353 435.952941,2.25882353 C434.823529,2.25882353 434.070588,2.25882353 433.317647,2.63529412 C432.564706,3.01176471 431.811765,3.38823529 431.058824,4.14117647 C430.305882,4.89411765 429.929412,5.64705882 429.552941,6.4 C429.176471,7.15294118 429.176471,8.28235294 429.176471,9.41176471 C429.176471,10.1647059 429.176471,11.2941176 429.552941,12.0470588 Z M436.705882,4.51764706 C437.835294,4.51764706 438.588235,4.89411765 439.341176,5.27058824 C439.717647,5.64705882 440.094118,6.4 440.094118,7.52941176 C440.094118,8.28235294 439.717647,9.03529412 439.341176,9.41176471 C438.964706,9.78823529 438.211765,10.1647059 437.458824,10.1647059 L440.094118,14.6823529 L438.588235,14.6823529 L435.952941,10.5411765 L434.447059,10.5411765 L434.447059,14.6823529 L432.941176,14.6823529 L432.941176,4.51764706 L436.705882,4.51764706 Z M435.952941,8.65882353 C436.329412,8.65882353 436.705882,8.65882353 437.082353,8.65882353 C437.458824,8.65882353 437.835294,8.65882353 437.835294,8.28235294 C438.211765,8.28235294 438.211765,7.90588235 438.588235,7.90588235 C438.588235,7.52941176 438.964706,7.52941176 438.964706,7.15294118 C438.964706,6.77647059 438.964706,6.4 438.588235,6.4 C438.588235,6.02352941 438.211765,6.02352941 438.211765,6.02352941 C437.835294,6.02352941 437.835294,6.02352941 437.458824,5.64705882 C437.082353,5.64705882 437.082353,5.64705882 436.705882,5.64705882 L434.823529,5.64705882 L434.823529,8.65882353 L435.952941,8.65882353 Z" id="Shape" fill="#FF8800" fill-rule="nonzero"></path>
                                </g>
                            </g>
                        </g>
                    </g>
                </g>
            </g>
        </g>
    </g>
</svg>