<?xml version="1.0" encoding="UTF-8"?>
<svg width="332px" height="95px" viewBox="0 0 332 95" version="1.1" xmlns="http://www.w3.org/2000/svg" xmlns:xlink="http://www.w3.org/1999/xlink">
    <!-- Generator: Sketch 63.1 (92452) - https://sketch.com -->
    <title>Logotype</title>
    <desc>Created with Sketch.</desc>
    <g id="Website" stroke="none" stroke-width="1" fill="none" fill-rule="evenodd">
        <g id="Products-D-XL-1.-—-List" transform="translate(-1424.000000, -408.000000)">
            <g id="Content" transform="translate(20.000000, 324.000000)">
                <g id="Row-1">
                    <g id="3" transform="translate(1280.000000, 0.000000)">
                        <g id="Image" transform="translate(40.000000, 0.000000)">
                            <g id="Atoms/Logotypes/Products/Shopify" transform="translate(84.000000, 84.000000)">
                                <g id="Shopify">
                                    <path d="M71.7618271,18.2982955 C71.7076672,17.8125 71.2743883,17.5965909 70.949429,17.5965909 C70.6244698,17.5965909 63.5295269,17.0568182 63.5295269,17.0568182 C63.5295269,17.0568182 58.6009788,12.1448864 58.0052202,11.6590909 C57.4636215,11.1193182 56.434584,11.28125 56.0013051,11.3892045 C55.9471452,11.3892045 54.9181077,11.7130682 53.2391517,12.2528409 C51.5601958,7.44886364 48.6897227,3.07670455 43.5445351,3.07670455 L43.0570962,3.07670455 C41.6489396,1.24147727 39.8075041,0.377840909 38.2910277,0.377840909 C26.3758564,0.377840909 20.6349103,15.2215909 18.8476346,22.7784091 C14.1898858,24.2357955 10.8861338,25.2073864 10.5070147,25.3693182 C7.90734095,26.1789773 7.85318108,26.2329545 7.52822186,28.6619318 C7.25742251,30.4971591 0.487438825,82.6931818 0.487438825,82.6931818 L53.1849918,92.5170455 L81.7816217,86.3636364 C81.8355628,86.2556818 71.8159869,18.7840909 71.7618271,18.2982955 Z M50.3145188,13.0085227 C49.0146819,13.3863636 47.4440457,13.8721591 45.8734095,14.4119318 L45.8734095,13.4403409 C45.8734095,10.5255682 45.4942904,8.15056818 44.7902121,6.26136364 C47.4982055,6.58522727 49.1771615,9.55397727 50.3145188,13.0085227 Z M41.48646,6.85511364 C42.1905383,8.69034091 42.6779772,11.28125 42.6779772,14.84375 L42.6779772,15.3835227 C39.7533442,16.3011364 36.6662316,17.21875 33.4707993,18.2443182 C35.258075,11.4431818 38.6701468,8.09659091 41.48646,6.85511364 Z M38.0202284,3.50852273 C38.5618271,3.50852273 39.1034258,3.72443182 39.5367047,4.04829545 C35.691354,5.82954545 31.6293638,10.3096591 29.9504078,19.3778409 C27.404894,20.1875 24.9676998,20.8892045 22.6388254,21.6448864 C24.5885808,14.7357955 29.462969,3.50852273 38.0202284,3.50852273 L38.0202284,3.50852273 Z" id="Shape" fill="#95BF47" fill-rule="nonzero"></path>
                                    <path d="M70.949429,17.4886364 C70.6244698,17.4886364 63.5295269,16.9488636 63.5295269,16.9488636 C63.5295269,16.9488636 58.6009788,12.0369318 58.0052202,11.5511364 C57.7885808,11.3352273 57.5177814,11.2272727 57.3011419,11.2272727 L53.3474715,92.5170455 L81.9438825,86.3636364 C81.9438825,86.3636364 71.9243067,18.7840909 71.8701468,18.2982955 C71.6535073,17.8125 71.2743883,17.5965909 70.949429,17.4886364 L70.949429,17.4886364 Z" id="Path" fill="#5E8E3E" fill-rule="nonzero"></path>
                                    <path d="M43.5445351,33.25 L40.0783034,43.6676136 C40.0783034,43.6676136 36.937031,41.9943182 33.2,41.9943182 C27.6215334,41.9943182 27.3507341,45.5028409 27.3507341,46.3664773 C27.3507341,51.1164773 39.8075041,52.9517045 39.8075041,64.125 C39.8075041,72.9232955 34.2290375,78.5909091 26.7008157,78.5909091 C17.6019576,78.5909091 13.0525285,72.9772727 13.0525285,72.9772727 L15.4897227,64.9886364 C15.4897227,64.9886364 20.2557912,69.0909091 24.2636215,69.0909091 C26.9174551,69.0909091 28.0006525,67.0397727 28.0006525,65.5284091 C28.0006525,59.3210227 17.8185971,59.0511364 17.8185971,48.7954545 C17.8185971,40.2130682 23.9928222,31.9005682 36.503752,31.9005682 C41.1615008,31.8465909 43.5445351,33.25 43.5445351,33.25 L43.5445351,33.25 Z" id="Path" fill="#FFFFFF" fill-rule="nonzero"></path>
                                    <path d="M115.143883,52.84375 C112.273409,51.3323864 110.811093,49.9829545 110.811093,48.2017045 C110.811093,45.9346591 112.869168,44.4772727 116.0646,44.4772727 C119.801631,44.4772727 123.105383,45.9886364 123.105383,45.9886364 L125.705057,38.0539773 C125.705057,38.0539773 123.322023,36.21875 116.28124,36.21875 C106.478303,36.21875 99.6541599,41.8323864 99.6541599,49.7130682 C99.6541599,54.1931818 102.849592,57.59375 107.074062,60.0227273 C110.540294,61.9119318 111.731811,63.3153409 111.731811,65.3664773 C111.731811,67.4715909 109.998695,69.1988636 106.803263,69.1988636 C102.091354,69.1988636 97.5960848,66.7698864 97.5960848,66.7698864 L94.8339315,74.7045455 C94.8339315,74.7045455 98.9500816,77.4573864 105.882545,77.4573864 C115.956281,77.4573864 123.267863,72.4914773 123.267863,63.5852273 C123.159543,58.7272727 119.530832,55.3806818 115.143883,52.84375 L115.143883,52.84375 Z M155.330506,36.1107955 C150.347798,36.1107955 146.448287,38.4857955 143.469494,42.0482955 L143.361175,41.9943182 L147.693964,19.5397727 L136.482871,19.5397727 L125.542577,76.7556818 L136.75367,76.7556818 L140.490701,57.2159091 C141.953018,49.8210227 145.798369,45.2329545 149.37292,45.2329545 C151.918434,45.2329545 152.893312,46.9602273 152.893312,49.3892045 C152.893312,50.9005682 152.784992,52.84375 152.405873,54.3551136 L148.181403,76.7556818 L159.392496,76.7556818 L163.779445,53.6534091 C164.266884,51.2244318 164.591843,48.3096591 164.591843,46.3125 C164.537684,39.8892045 161.233931,36.1107955 155.330506,36.1107955 L155.330506,36.1107955 Z M189.938662,36.1107955 C176.398695,36.1107955 167.462316,48.2556818 167.462316,61.8039773 C167.462316,70.4403409 172.824144,77.4573864 182.897879,77.4573864 C196.167047,77.4573864 205.103426,65.6363636 205.103426,51.7642045 C205.157586,43.7215909 200.499837,36.1107955 189.938662,36.1107955 Z M184.414356,68.9289773 C180.569005,68.9289773 178.998369,65.6903409 178.998369,61.5880682 C178.998369,55.1647727 182.302121,44.7471591 188.422186,44.7471591 C192.375856,44.7471591 193.729853,48.2017045 193.729853,51.4943182 C193.729853,58.3494318 190.317781,68.9289773 184.414356,68.9289773 Z M233.862316,36.1107955 C226.279935,36.1107955 222.001305,42.8039773 222.001305,42.8039773 L221.892985,42.8039773 L222.542904,36.8125 L212.577488,36.8125 C212.090049,40.8607955 211.169331,47.0681818 210.302773,51.65625 L202.557912,92.625 L213.769005,92.625 L216.910277,76.0539773 L217.181077,76.0539773 C217.181077,76.0539773 219.509951,77.5113636 223.734421,77.5113636 C236.949429,77.5113636 245.560848,64.0170455 245.560848,50.4147727 C245.506688,42.8579545 242.094617,36.1107955 233.862316,36.1107955 L233.862316,36.1107955 Z M223.138662,69.0369318 C220.214029,69.0369318 218.480914,67.3636364 218.480914,67.3636364 L220.322349,56.9460227 C221.622186,49.9289773 225.305057,45.3409091 229.204568,45.3409091 C232.670799,45.3409091 233.699837,48.5255682 233.699837,51.4943182 C233.753997,58.7272727 229.421207,69.0369318 223.138662,69.0369318 L223.138662,69.0369318 Z M261.53801,20.0795455 C257.963458,20.0795455 255.092985,22.9403409 255.092985,26.5568182 C255.092985,29.8494318 257.20522,32.1704545 260.400653,32.1704545 L260.508972,32.1704545 C264.029364,32.1704545 267.008157,29.7954545 267.062316,25.6931818 C267.116476,22.4005682 264.895922,20.0795455 261.53801,20.0795455 L261.53801,20.0795455 Z M245.831648,76.7017045 L257.042741,76.7017045 L264.625122,36.9744318 L253.359869,36.9744318 M293.221533,36.9204545 L285.422512,36.9204545 L285.801631,35.0852273 C286.45155,31.2528409 288.726264,27.90625 292.517455,27.90625 C294.52137,27.90625 296.092007,28.5 296.092007,28.5 L298.258401,19.7017045 C298.258401,19.7017045 296.362806,18.7301136 292.138336,18.7301136 C288.184666,18.7301136 284.176835,19.8636364 281.143883,22.4545455 C277.298532,25.6931818 275.511256,30.3892045 274.644698,35.1392045 L274.319739,36.9744318 L269.066232,36.9744318 L267.387276,45.4488636 L272.640783,45.4488636 L266.683197,76.7556818 L277.89429,76.7556818 L283.851876,45.4488636 L291.596737,45.4488636 L293.221533,36.9204545 L293.221533,36.9204545 Z M320.247308,36.9744318 C320.247308,36.9744318 313.206525,54.625 310.119413,64.2869318 L310.011093,64.2869318 C309.794454,61.15625 307.24894,36.9744318 307.24894,36.9744318 L295.442088,36.9744318 L302.212072,73.3551136 C302.320392,74.1647727 302.266232,74.6505682 301.941272,75.1903409 C300.641436,77.7272727 298.420881,80.15625 295.821207,81.9375 C293.708972,83.4488636 291.325938,84.4744318 289.430343,85.1221591 L292.571615,94.6221591 C294.84633,94.1363636 299.612398,92.2471591 303.566069,88.5227273 C308.657096,83.7727273 313.423165,76.3778409 318.297553,66.3380682 L332,36.9204545 L320.247308,36.9204545 L320.247308,36.9744318 Z" id="Shape" fill="#000000" fill-rule="nonzero"></path>
                                </g>
                            </g>
                        </g>
                    </g>
                </g>
            </g>
        </g>
    </g>
</svg>