<?xml version="1.0" encoding="UTF-8"?>
<svg width="450px" height="72px" viewBox="0 0 450 72" version="1.1" xmlns="http://www.w3.org/2000/svg" xmlns:xlink="http://www.w3.org/1999/xlink">
    <!-- Generator: Sketch 63.1 (92452) - https://sketch.com -->
    <title>Logotype</title>
    <desc>Created with Sketch.</desc>
    <g id="Website" stroke="none" stroke-width="1" fill="none" fill-rule="evenodd">
        <g id="Products-D-XL-1.-—-List" transform="translate(-125.000000, -440.000000)">
            <g id="Content" transform="translate(20.000000, 324.000000)">
                <g id="Row-1">
                    <g id="1-Hover" transform="translate(60.000000, 0.000000)">
                        <g id="1">
                            <g id="Image" transform="translate(20.000000, 20.000000)">
                                <g id="Atoms/Logotypes/Products/Receipt-Bank" transform="translate(25.000000, 96.000000)">
                                    <g id="Receipt-Bank">
                                        <g id="Group" transform="translate(224.923333, 35.642554) scale(-1, 1) rotate(-180.000000) translate(-224.923333, -35.642554) translate(0.000000, 0.000002)" fill-rule="nonzero">
                                            <path d="M81.9677663,40.2989607 L90.1560795,40.2989607 C92.706335,40.2989607 94.6794866,40.94645 96.0761475,42.2421436 C97.4756705,43.5371223 98.1771696,45.3239478 98.1771696,47.6010882 C98.1771696,49.9216328 97.5148187,51.7471647 96.1967608,53.0780923 C94.8755343,54.4093263 92.8523997,55.074688 90.120611,55.074688 L81.9677663,55.074688 L81.9677663,40.2989607 Z M90.0567269,32.0856503 L81.9677663,32.0856503 L81.9677663,14.0641018 L71.8165229,14.0641018 L71.8165229,63.2884069 L90.120611,63.2884069 C95.9404065,63.2884069 100.431923,61.9927133 103.590457,59.4023475 C106.746846,56.8076922 108.328106,53.1459051 108.328106,48.4124924 C108.328106,45.0534116 107.598294,42.2525606 106.144801,40.0105522 C104.688243,37.7684416 102.483473,35.9820246 99.530696,34.6547736 L110.187391,14.5368507 L110.187391,14.0641018 L99.2923314,14.0641018 L90.0567269,32.0856503" id="Shape" fill="#F25929"></path>
                                            <path d="M129.306641,43.444901 C127.365585,43.444901 125.791479,42.7866883 124.58739,41.4730202 C123.380235,40.1600671 122.607493,38.2811224 122.269162,35.8360842 L135.871888,35.8360842 L135.871888,36.6191991 C135.824869,38.7901267 135.241223,40.4732926 134.111751,41.6620585 C132.982279,42.8505181 131.383642,43.444901 129.306641,43.444901 L129.306641,43.444901 Z M130.424869,13.3879146 C125.054511,13.3879146 120.683813,15.0315571 117.31073,18.3239485 C113.938668,21.6159314 112.253149,26.0002717 112.253149,31.4732928 L112.253149,32.4195056 C112.253149,36.0957948 112.965585,39.3806288 114.383302,42.277684 C115.808174,45.1707563 117.819759,47.4023478 120.424188,48.9714371 C123.031683,50.5372583 126.002041,51.3203732 129.342416,51.3203732 C134.349911,51.3203732 138.289264,49.7433179 141.167628,46.5869605 C144.041904,43.4306032 145.481087,38.9573097 145.481087,33.1671821 L145.481087,29.1737865 L122.168992,29.1737865 C122.482791,26.786144 123.436453,24.872476 125.025891,23.4303313 C126.617373,21.9861441 128.62998,21.266859 131.066777,21.266859 C134.834409,21.266859 137.777169,22.6304675 139.899145,25.3559483 L144.701189,19.9783144 C143.237475,17.9078804 141.253489,16.2881358 138.746163,15.1284762 C136.244971,13.968306 133.466777,13.3879146 130.424869,13.3879146" id="Shape" fill="#F25929"></path>
                                            <path d="M166.260302,21.266859 C168.062347,21.266859 169.530149,21.7615654 170.655532,22.7541441 C171.783982,23.7434547 172.371716,25.0639653 172.414646,26.7084249 L181.586367,26.7084249 C181.564902,24.2281526 180.888241,21.9570377 179.556384,19.8965101 C178.224527,17.8332251 176.404084,16.231557 174.091989,15.0965103 C171.776827,13.9575826 169.223505,13.3879146 166.427935,13.3879146 C161.195567,13.3879146 157.067117,15.0494294 154.043608,18.3737868 C151.019076,21.6977356 149.509366,26.2915398 149.509366,32.14948 L149.509366,32.7937013 C149.509366,38.427165 151.008855,42.9251734 154.007833,46.2845605 C157.009877,49.6404754 161.128105,51.3203732 166.359451,51.3203732 C170.940711,51.3203732 174.608173,50.017837 177.373079,47.4163392 C180.136963,44.811267 181.54037,41.3449522 181.586367,37.0181097 L172.414646,37.0181097 C172.371716,38.9217692 171.783982,40.4697181 170.655532,41.6580756 C169.530149,42.8469436 168.040882,43.444901 166.188752,43.444901 C163.913454,43.444901 162.193182,42.6119479 161.031001,40.953599 C159.866776,39.2952501 159.286197,36.6052076 159.286197,32.87908 L159.286197,31.864646 C159.286197,28.0926631 159.86371,25.3839313 161.013625,23.7363058 C162.164562,22.0886803 163.913454,21.266859 166.260302,21.266859" id="Path" fill="#F25929"></path>
                                            <path d="M202.903232,43.444901 C200.962176,43.444901 199.38807,42.7866883 198.183981,41.4730202 C196.976826,40.1600671 196.203062,38.2811224 195.864731,35.8360842 L209.467456,35.8360842 L209.467456,36.6191991 C209.42146,38.7901267 208.836792,40.4732926 207.708342,41.6620585 C206.57887,42.8505181 204.979211,43.444901 202.903232,43.444901 Z M204.02146,13.3879146 C198.65008,13.3879146 194.280404,15.0315571 190.907321,18.3239485 C187.534237,21.6159314 185.84974,26.0002717 185.84974,31.4732928 L185.84974,32.4195056 C185.84974,36.0957948 186.562176,39.3806288 187.979893,42.277684 C189.404765,45.1707563 191.41635,47.4023478 194.020779,48.9714371 C196.627252,50.5372583 199.59761,51.3203732 202.939007,51.3203732 C207.946502,51.3203732 211.885855,49.7433179 214.76422,46.5869605 C217.638495,43.4306032 219.076656,38.9573097 219.076656,33.1671821 L219.076656,29.1737865 L195.765583,29.1737865 C196.079382,26.786144 197.033044,24.872476 198.622482,23.4303313 C200.213964,21.9861441 202.226571,21.266859 204.662346,21.266859 C208.431,21.266859 211.372737,22.6304675 213.495736,25.3559483 L218.296758,19.9783144 C216.833044,17.9078804 214.849058,16.2881358 212.341732,15.1284762 C209.841562,13.968306 207.063368,13.3879146 204.02146,13.3879146" id="Shape" fill="#F25929"></path>
                                            <polyline id="Path" fill="#F25929" points="234.948546 13.4358124 225.13594 13.4358124 225.13594 50.644186 234.948546 50.644186 234.948546 13.4358124"></polyline>
                                            <path d="M265.051782,32.7258885 C265.051782,36.1280672 264.446671,38.7542799 263.242583,40.6049352 C262.035428,42.452016 260.27938,43.3735138 257.978528,43.3735138 C254.911067,43.3735138 252.803401,42.2026202 251.652464,39.8573607 L251.652464,24.8824845 C252.849397,22.4697186 254.979551,21.266859 258.050079,21.266859 C262.715155,21.266859 265.051782,25.0859228 265.051782,32.7258885 L265.051782,32.7258885 Z M274.832702,32.014263 C274.832702,26.380493 273.55093,21.8684931 270.989431,18.4763229 C268.428954,15.0813954 264.974099,13.3879146 260.620777,13.3879146 C256.920607,13.3879146 253.931851,14.6724762 251.652464,17.2415996 L251.652464,-0.00039893616 L241.872566,-0.00039893616 L241.872566,50.644186 L250.94105,50.644186 L251.282447,47.060935 C253.647694,49.9000839 256.739687,51.3203732 260.550249,51.3203732 C265.063026,51.3203732 268.571032,49.6511988 271.075291,46.3165265 C273.578528,42.9821606 274.832702,38.3844756 274.832702,32.5228588 L274.832702,32.014263" id="Shape" fill="#F25929"></path>
                                            <path d="M292.599652,59.6369347 L292.599652,50.644186 L298.857233,50.644186 L298.857233,43.476867 L292.599652,43.476867 L292.599652,25.2203228 C292.599652,23.8679483 292.855189,22.900493 293.374439,22.313259 C293.894712,21.7256165 294.885172,21.4344505 296.351952,21.4344505 C297.435427,21.4344505 298.393178,21.5122718 299.231338,21.6730207 L299.231338,14.266723 C297.310725,13.6790805 295.337982,13.3879146 293.307999,13.3879146 C286.451441,13.3879146 282.953656,16.8466719 282.81771,23.7654122 L282.81771,43.476867 L277.471884,43.476867 L277.471884,50.644186 L282.81771,50.644186 L282.81771,59.6369347 L292.599652,59.6369347" id="Path" fill="#F25929"></path>
                                            <path d="M310.196926,37.6942969 L310.196926,17.5799485 L322.684489,17.5799485 C326.249736,17.5799485 329.074949,18.4842889 331.162172,20.2955229 C333.245307,22.1066548 334.288918,24.6231824 334.288918,27.8393865 C334.288918,30.8788077 333.291303,33.2808502 331.297096,35.0461268 C329.298799,36.8114033 326.543092,37.6942969 323.02282,37.6942969 L310.196926,37.6942969 Z M310.196926,41.2097351 L321.566261,41.2097351 C325.042581,41.2811224 327.731849,42.0957947 329.63713,43.6651904 C331.542411,45.2349946 332.498118,47.5228584 332.498118,50.5264328 C332.498118,53.6868753 331.510724,56.0178369 329.536959,57.5194198 C327.56115,59.0214113 324.580571,59.7722538 320.587045,59.7722538 L310.196926,59.7722538 L310.196926,41.2097351 Z M306.03679,14.0641018 L306.03679,63.2884069 L320.587045,63.2884069 C325.865409,63.2884069 329.868135,62.1993176 332.600332,60.0247134 C335.328441,57.8469432 336.693007,54.6403391 336.693007,50.3983647 C336.693007,47.8503818 335.998969,45.6370712 334.612939,43.7509776 C333.224864,41.8687649 331.325716,40.5195564 328.910384,39.7081522 C331.774438,39.0786373 334.082445,37.672748 335.830315,35.4873183 C337.576141,33.3023992 338.453143,30.7791311 338.453143,27.9183312 C338.453143,23.5699398 337.049736,20.1737867 334.238833,17.7295655 C331.433041,15.2848337 327.522309,14.0641018 322.513791,14.0641018 L306.03679,14.0641018" id="Shape" fill="#F25929"></path>
                                            <path d="M354.576482,16.971574 C357.284148,16.971574 359.705613,17.6266208 361.835766,18.9323229 C363.968986,20.238842 365.517538,21.9861441 366.487555,24.1711654 L366.487555,32.2208673 L359.249735,32.2208673 C355.210213,32.1746035 352.05178,31.4345864 349.77546,30.0035737 C347.496073,28.572561 346.35638,26.6046632 346.35638,24.1065185 C346.35638,22.0528335 347.117879,20.3525101 348.639855,19.0001357 C350.163875,17.6477613 352.140707,16.971574 354.576482,16.971574 L354.576482,16.971574 Z M367.300161,14.0641018 C366.893347,15.2130379 366.636788,16.9144847 366.52333,19.1677272 C365.101524,17.3206464 363.292325,15.8932081 361.090621,14.893072 C358.894029,13.8897699 356.564557,13.3879146 354.106294,13.3879146 C350.588066,13.3879146 347.738322,14.3704847 345.562172,16.3272507 C343.381933,18.2919825 342.296414,20.7681697 342.296414,23.7654122 C342.296414,27.3279312 343.777504,30.1464503 346.743773,32.2208673 C349.712087,34.2917098 353.845647,35.3309608 359.146499,35.3309608 L366.487555,35.3309608 L366.487555,39.4874543 C366.487555,42.1033521 365.683125,44.1562202 364.068134,45.6582116 C362.455187,47.1562201 360.105272,47.9074711 357.013279,47.9074711 C354.195221,47.9074711 351.858594,47.1850201 350.010553,45.7435903 C348.162513,44.2990968 347.236448,42.5621096 347.236448,40.5335479 L343.17546,40.5693947 C343.17546,43.476867 344.528782,45.9965606 347.236448,48.1244924 C349.943092,50.2564073 353.269156,51.3203732 357.219753,51.3203732 C361.301183,51.3203732 364.520945,50.2990966 366.879037,48.2601179 C369.23304,46.2203222 370.448372,43.3735138 370.515834,39.7220416 L370.515834,22.4130377 C370.515834,18.8752336 370.888917,16.2275741 371.630996,14.4702635 L371.630996,14.0641018 L367.300161,14.0641018" id="Shape" fill="#F25929"></path>
                                            <path d="M381.236106,50.644186 L381.372052,44.3912159 C382.746839,46.6444584 384.464045,48.3626541 386.514471,49.5446796 C388.565919,50.7295647 390.835084,51.3203732 393.314811,51.3203732 C397.239854,51.3203732 400.163193,50.2172924 402.079717,48.0071477 C403.996242,45.7971052 404.968303,42.4838798 404.989768,38.0676756 L404.989768,14.0641018 L400.964556,14.0641018 L400.964556,38.0996416 C400.940024,41.3696671 400.244964,43.8043904 398.881421,45.4021776 C397.516855,47.0034371 395.333551,47.804118 392.334573,47.804118 C389.831336,47.804118 387.616345,47.0214116 385.68551,45.4555904 C383.757742,43.8861946 382.329803,41.7758287 381.403738,39.1172416 L381.403738,14.0641018 L377.379548,14.0641018 L377.379548,50.644186 L381.236106,50.644186" id="Path" fill="#F25929"></path>
                                            <polyline id="Path" fill="#F25929" points="420.494708 32.4909949 415.856208 28.0288333 415.856208 14.0641018 411.796242 14.0641018 411.796242 63.2884069 415.856208 63.2884069 415.856208 32.761429 419.682102 36.8824842 433.686531 50.644186 438.798285 50.644186 423.265748 35.2277098 440.151607 14.0641018 435.310722 14.0641018 420.494708 32.4909949"></polyline>
                                            <path d="M234.948546,58.4333602 C234.948546,55.7261603 232.751953,53.5312327 230.041221,53.5312327 C227.332533,53.5312327 225.13594,55.7261603 225.13594,58.4333602 C225.13594,61.1409687 227.332533,63.3358963 230.041221,63.3358963 C232.751953,63.3358963 234.948546,61.1409687 234.948546,58.4333602" id="Path" fill="#F25929"></path>
                                            <path d="M448.844963,61.2347219 L448.78159,61.2558623 L447.201352,57.6238964 L446.663703,57.6238964 L445.020091,61.4034368 L444.956718,61.3822963 L444.956718,57.6238964 L443.97648,57.6238964 L443.97648,63.277275 L445.198967,63.277275 L446.89573,59.1714368 L446.959103,59.1714368 L448.666088,63.277275 L449.825202,63.277275 L449.825202,57.6238964 L448.844963,57.6238964 L448.844963,61.2347219 Z M443.154674,62.4143984 L441.626565,62.4143984 L441.626565,57.6238964 L440.637127,57.6238964 L440.637127,62.4143984 L439.109018,62.4143984 L439.109018,63.277275 L443.154674,63.277275 L443.154674,62.4143984" id="Shape" fill="#040606"></path>
                                            <polyline id="Path" fill="#040606" points="42.4973754 47.6397946 35.3423501 47.6397946 35.3423501 50.7036243 42.4973754 50.7036243 42.4973754 47.6397946"></polyline>
                                            <polyline id="Path" fill="#040606" points="30.4871543 47.6397946 15.3250422 47.6397946 15.3250422 50.7036243 30.4871543 50.7036243 30.4871543 47.6397946"></polyline>
                                            <polyline id="Path" fill="#040606" points="27.0321969 31.9803566 15.3250422 31.9803566 15.3250422 35.0441864 27.0321969 35.0441864 27.0321969 31.9803566"></polyline>
                                            <polyline id="Path" fill="#040606" points="34.3577163 39.8106884 15.3250422 39.8106884 15.3250422 42.8745181 34.3577163 42.8745181 34.3577163 39.8106884"></polyline>
                                            <polyline id="Path" fill="#040606" points="56.7091979 54.471522 29.0229294 67.875777 1.33677339 54.471522 -0.00039927597 57.2281518 29.0229294 71.2807131 58.0459611 57.2281518 56.7091979 54.471522"></polyline>
                                            <path d="M46.2433379,15.5681358 L44.0006463,17.11394 L40.2246327,14.5109103 L36.4491303,17.11394 L32.6731167,14.5109103 L28.8976143,17.11394 L25.1216007,14.5109103 L21.3460983,17.11394 L17.5697781,14.5109103 L13.7941734,17.11394 L11.5518907,15.5681358 L11.5518907,55.3639135 L8.48541035,53.8001348 L8.48541035,9.73165252 L13.7941734,13.3918975 L17.5697781,10.7888678 L21.3460983,13.3918975 L25.1216007,10.7888678 L28.8976143,13.3918975 L32.6731167,10.7888678 L36.4491303,13.3918975 L40.2246327,10.7888678 L44.0006463,13.3918975 L49.3097773,9.73165252 L49.3097773,29.3066546 C48.2756717,28.0280163 47.2466768,26.632544 46.2433379,25.1198292 L46.2433379,15.5681358" id="Path" fill="#040606"></path>
                                            <path d="M49.3097773,54.2509263 L46.2433379,55.7633348 L46.2433379,43.9687138 C47.3253821,44.9756925 48.3567279,45.8732925 49.3097773,46.6543648 L49.3097773,54.2509263" id="Path" fill="#040606"></path>
                                            <path d="M39.4448372,19.6273016 L29.4805444,31.1684418 L34.1241559,35.1718459 L38.4957742,30.1073354 C46.5719579,42.3698032 56.3274262,47.9776328 56.7770684,48.2310116 L59.7955692,42.8971904 L58.2858588,45.5640499 L59.8007822,42.9003564 C59.6945811,42.8393862 49.0961487,36.6897693 41.5894027,23.4183824 L39.4448372,19.6273016" id="Path" fill="#F25929"></path>
                                        </g>
                                    </g>
                                </g>
                            </g>
                        </g>
                    </g>
                </g>
            </g>
        </g>
    </g>
</svg>