<?xml version="1.0" encoding="UTF-8"?>
<svg width="186px" height="111px" viewBox="0 0 186 111" version="1.1" xmlns="http://www.w3.org/2000/svg" xmlns:xlink="http://www.w3.org/1999/xlink">
    <!-- Generator: Sketch 63.1 (92452) - https://sketch.com -->
    <title>Logo Purple</title>
    <desc>Created with Sketch.</desc>
    <g id="Symbols" stroke="none" stroke-width="1" fill="none" fill-rule="evenodd">
        <g id="Organisms/CTA/Products-&amp;-Services-—-XL" transform="translate(-177.000000, -86.000000)" fill="#7632D2">
            <g id="CTA">
                <g id="Design-Tokens/Logotype/Sign-Purple" transform="translate(177.000000, 50.000000)">
                    <g id="Design-Tokens/Logotype/Original/Sign-—-Purple" transform="translate(0.000000, 36.000000)">
                        <path d="M106.533103,2.09393363e-14 C130.366759,2.09393363e-14 150.082265,18.767252 151.751332,42.323634 L151.751332,42.323634 L152.306672,42.3281668 C170.598515,42.6269539 185.448019,57.6592057 185.946223,76.2387851 C185.946223,95.0060371 170.798324,110.152456 152.030578,110.152456 L152.030578,110.152456 L23.556382,110.152456 C10.5802918,110.152456 7.99464238e-13,99.5716711 7.99464238e-13,86.5960743 C7.99464238e-13,73.6199841 10.5802918,63.0391989 23.556382,63.0391989 L23.556382,63.0391989 L25.728191,63.0391989 C30.2938249,47.8375225 43.9946737,37.0332414 60.5901167,37.0332414 L60.5901167,37.0332414 L62.0371671,37.0332414 C65.8800159,15.8706844 84.4237719,2.09393363e-14 106.533103,2.09393363e-14 Z M65.188313,54.1763236 L58.4316286,54.1763236 C56.96287,54.1763236 55.688992,55.4502016 55.688992,56.9184668 L55.688992,59.6611034 C54.4170875,60.1002016 53.3395703,60.933008 52.3104032,61.765321 L49.7646207,60.2970557 C49.3235491,60.1002016 48.9323077,59.8554907 48.2963554,59.8554907 L47.6604032,59.8554907 C47.0224775,60.0523448 46.3865252,60.491443 45.9449602,61.1293687 L42.5663714,67.0537401 C41.7340584,68.327618 42.3719841,69.9907639 43.6438886,70.8734005 L46.1896711,72.3421592 C46.1896711,72.9781114 45.9952838,73.6160371 45.9952838,74.2519894 C45.9952838,74.8879416 46.1896711,75.5238939 46.1896711,76.1618196 L43.6438886,77.6305782 C42.3719841,78.4628912 41.9304191,80.1763607 42.5663714,81.4502387 L45.9449602,87.3746101 C46.3865252,88.0125358 47.0224775,88.451634 47.6604032,88.6484881 L48.2963554,88.6484881 C48.7354536,88.6484881 49.3733793,88.451634 49.7646207,88.2069231 L52.3104032,86.7386578 C53.3879204,87.5709708 54.4170875,88.2069231 55.688992,88.8428753 L55.688992,91.7818727 C55.688992,93.2506313 56.96287,94.5245093 58.4316286,94.5245093 L65.188313,94.5245093 C66.6585517,94.7188966 67.9309496,93.446992 67.9309496,91.9787268 L67.9309496,89.0397294 C69.2048276,88.5981645 70.2818515,87.7658515 71.3090451,86.9330451 L73.8548276,88.4037772 C74.2963926,88.5981645 74.687634,88.8428753 75.3255597,88.8428753 L75.9615119,88.8428753 C76.5974642,88.6484881 77.2353899,88.2069231 77.6749814,87.5709708 L81.0530769,81.644626 C81.8858833,80.3727215 81.249931,78.7076021 79.9760531,77.826939 L77.4297772,76.3586737 C77.4297772,75.720748 77.6266313,75.0847958 77.6266313,74.4483501 C77.6266313,73.8104244 77.4297772,73.1744721 77.4297772,72.5385199 L79.9760531,71.0702546 C80.6139788,70.6286897 81.0530769,69.9907639 81.249931,69.3548117 C81.4462918,68.7188594 81.249931,67.8865464 81.0530769,67.2505942 L77.6749814,61.3262228 C77.2353899,60.491443 76.2062228,59.8554907 75.3255597,59.8554907 C74.8839947,59.8554907 74.4927533,60.0523448 73.8548276,60.2970557 L71.3090451,61.765321 C70.2320212,60.933008 69.2048276,60.2970557 67.9309496,59.6611034 L67.9309496,56.9184668 C67.9309496,55.4502016 66.6585517,54.1763236 65.188313,54.1763236 Z M61.8600477,66.8090292 C66.1192997,66.8090292 69.4973952,70.187618 69.4973952,74.4483501 C69.4973952,78.7076021 66.1192997,82.086191 61.8600477,82.086191 C57.5988223,82.0378408 54.2202334,78.6597454 54.2202334,74.4483501 C54.2202334,70.2374483 57.5988223,66.8090292 61.8600477,66.8090292 Z M96.817687,21.3342493 L88.1166366,25.9714218 C86.2240743,26.979374 85.4588594,29.4921008 86.4668117,31.3826897 L88.3475332,34.9157029 C87.0100106,36.3553528 86.1949655,38.1665093 85.4415915,39.9455968 L81.1532308,39.8010398 C80.4516605,39.8493899 79.7791989,39.8030133 78.9602069,40.2401379 C78.7076021,40.375321 78.3918462,40.5430663 78.1412149,40.6757825 C77.454939,41.3660053 76.9364085,42.3700106 76.8076393,43.4914377 L76.5204987,53.4397241 C76.3216711,55.6524828 78.2837984,57.3600318 80.5291194,57.6200371 L84.8150133,57.7665676 C85.2526313,58.5855597 85.4376446,59.5397347 85.8732891,60.3587268 C86.3104138,61.1796923 86.9986631,61.8639947 87.4362812,62.6849602 L85.1657984,66.3235544 C84.0961751,68.2679204 84.7054854,70.7791671 86.3972467,71.9815066 L94.8136233,77.2931141 C95.8196021,77.8116446 96.9410292,77.9409072 97.8952042,77.757374 C98.147809,77.6226844 98.4615915,77.454939 98.7141963,77.3202493 C99.282557,77.017321 99.9688329,76.329565 100.304324,75.743443 L102.574313,72.1048488 C104.534467,72.438366 106.29382,72.5523342 108.371395,72.4980637 L110.3873,76.2831883 C111.395252,78.1737772 113.908472,78.9409655 115.801034,77.9330133 L124.502578,73.2958408 C126.52983,72.5404934 127.295045,70.0277666 126.287093,68.1366844 L124.271188,64.3520531 C125.608711,62.9124032 126.423756,61.1007533 127.17713,59.3216658 L131.465491,59.4662228 C132.167061,59.418366 132.839523,59.4642493 133.658515,59.0271247 C133.911119,58.8919416 134.226875,58.7241963 134.477507,58.5895066 C135.163782,57.9012573 135.682313,56.897252 135.811082,55.7758249 L136.098223,45.825565 C136.29705,43.6147798 134.334923,41.9072308 132.089602,41.6472255 L127.803708,41.500695 C127.36609,40.6817029 127.181077,39.7275279 126.745432,38.9085358 C126.308308,38.0875703 125.620058,37.4032679 125.18244,36.5823024 L127.454897,32.9437082 C127.971454,31.9397029 128.102196,30.8182759 127.917183,29.8641008 C127.73217,28.9104191 126.909231,27.9715385 126.221475,27.285756 L117.805098,21.9741485 C116.666403,21.2049867 114.904584,21.0895385 113.769836,21.6949019 C113.200981,21.9973369 112.830955,22.5178408 112.179708,23.2692414 L109.909225,26.909809 C107.951538,26.5762918 106.189719,26.462817 104.112143,26.5146207 L102.231422,22.9840743 C101.223469,21.0934854 98.7102493,20.3262971 96.817687,21.3342493 Z M116.277135,44.4840955 C119.200345,49.9708488 117.167172,56.6411936 111.680419,59.5629231 C106.161103,62.4224881 99.4907586,60.3893156 96.6020849,54.9662069 C93.7129178,49.5450716 95.7115544,42.8110822 101.198308,39.8878727 C106.685061,36.9661432 113.355406,38.9993156 116.277135,44.4840955 Z" id="Sign"></path>
                    </g>
                </g>
            </g>
        </g>
    </g>
</svg>