<?xml version="1.0" encoding="UTF-8"?>
<svg width="336px" height="73px" viewBox="0 0 336 73" version="1.1" xmlns="http://www.w3.org/2000/svg" xmlns:xlink="http://www.w3.org/1999/xlink">
    <!-- Generator: Sketch 63.1 (92452) - https://sketch.com -->
    <title>Logotype</title>
    <desc>Created with Sketch.</desc>
    <g id="Website" stroke="none" stroke-width="1" fill="none" fill-rule="evenodd">
        <g id="Products-D-XL-1.-—-List" transform="translate(-182.000000, -1016.000000)">
            <g id="Content" transform="translate(20.000000, 324.000000)">
                <g id="Row-2" transform="translate(0.000000, 597.000000)">
                    <g id="1">
                        <g id="Image" transform="translate(80.000000, 0.000000)">
                            <g id="Atoms/Logotypes/Products/Fathom" transform="translate(82.000000, 95.000000)">
                                <g id="Fathom">
                                    <g id="Group" transform="translate(99.801980, 8.295455)" fill="#0F2043" fill-rule="nonzero">
                                        <path d="M156.788911,18.25 C151.736307,18.3021098 146.914307,20.3669483 143.396477,23.9848016 C139.878647,27.602655 137.957013,32.4731938 138.059406,37.5120455 C137.856317,44.2980537 141.369958,50.6571006 147.230438,54.109932 C153.090919,57.5627635 160.370468,57.5627635 166.230948,54.109932 C172.091428,50.6571006 175.60507,44.2980537 175.40198,37.5120455 C175.504385,32.4930533 173.598638,27.6400176 170.105943,24.0255433 C166.613247,20.4110691 161.821195,18.332775 156.788911,18.25 Z M156.788911,47.2675 C152.824525,47.4095362 149.170578,45.1369975 147.55378,41.5237961 C145.936983,37.9105947 146.681056,33.6801794 149.434381,30.8316778 C152.187706,27.9831761 156.399001,27.0869259 160.078174,28.5664596 C163.757347,30.0459933 166.16774,33.6050731 166.170297,37.5618182 C166.218034,42.8123055 162.050633,47.1385048 156.788911,47.3006818 L156.788911,47.2675 Z" id="Shape"></path>
                                        <path d="M61.5445545,18.9136364 L60.7461386,23.1111364 C60.7461386,23.1111364 58.0015842,18.25 50.4665347,18.25 C40.8190099,18.25 32.7516832,25.0688636 32.7516832,37.2134091 C32.7516832,48.9265909 41.4510891,56.575 49.6847525,56.575 C54.2255289,56.569737 58.4357652,54.2059946 60.7960396,50.3368182 L61.5445545,55.8947727 L70.0443564,55.8947727 L70.0443564,18.9136364 L61.5445545,18.9136364 Z M51.4146535,47.2343182 C47.4502679,47.3763544 43.7963206,45.1038157 42.179523,41.4906143 C40.5627254,37.8774129 41.3067989,33.6469976 44.0601236,30.798496 C46.8134483,27.9499943 51.0247433,27.0537441 54.7039164,28.5332778 C58.3830895,30.0128115 60.7934829,33.5718913 60.7960396,37.5286364 C60.8795645,42.7876475 56.6867477,47.1254015 51.4146535,47.2343182 L51.4146535,47.2343182 Z" id="Shape"></path>
                                        <path d="M85.8629703,43.9161364 L85.8629703,28.2045455 L95.2443564,28.2045455 L95.2443564,18.8306818 L85.8629703,18.8306818 L85.8629703,9.55636364 L76.5148515,12.0947727 L76.5148515,43.9990909 C76.5148515,46.8859091 76.5148515,56.8570455 87.8091089,56.8570455 C90.3981802,56.9910098 92.9747871,56.4173526 95.2609901,55.1979545 L95.2609901,47.3338636 C95.2443564,47.2343182 85.8629703,51.0004545 85.8629703,43.9161364 Z" id="Path"></path>
                                        <path d="M223.573069,18.25 C218.874202,18.0986281 214.431414,20.3833561 211.829703,24.2890909 C211.829703,24.2890909 209.467723,18.25 201.267327,18.25 C196.847786,18.0647472 192.562494,19.7877583 189.507327,22.9784091 L188.725545,18.7809091 L180.225743,18.7809091 L180.225743,56.1104545 L189.507327,56.1104545 L189.507327,37.4456818 C189.507327,32.6343182 191.436832,27.8229545 196.87604,27.8229545 C201.6,27.8229545 203.529505,30.6268182 203.529505,35.2556818 L203.529505,56.1602273 L212.910891,56.1602273 L212.910891,35.5211364 C212.910891,32.9827273 214.324752,27.9225 220.096634,27.9225 C225.868515,27.9225 226.849901,32.12 226.849901,35.1727273 L226.849901,56.1602273 L236.19802,56.1602273 L236.19802,32.2029545 C236.19802,28.5363636 234.70099,18.25 223.573069,18.25 Z" id="Path"></path>
                                        <polygon id="Path" points="0.0499009901 0.199090909 0.0499009901 56.1602273 10.3128713 56.1602273 10.3128713 32.8168182 28.1108911 32.8168182 28.1108911 23.5425 10.3128713 23.5425 10.3128713 9.55636364 37.3924752 9.55636364 37.3924752 0.199090909"></polygon>
                                        <path d="M120.760396,18.25 C116.715644,18.1130753 112.845654,19.8984218 110.331089,23.0613636 L110.331089,0.265454545 L100.949703,2.80386364 L100.949703,56.2265909 L110.331089,56.2265909 L110.331089,34.8409091 C110.331089,32.3025 111.37901,27.9390909 116.984554,27.9390909 C122.590099,27.9390909 124.00396,32.7504545 124.00396,35.9856818 L124.00396,56.2265909 L133.385347,56.2265909 L133.385347,34.3763636 C133.468515,25.6329545 128.212277,18.25 120.760396,18.25 Z" id="Path"></path>
                                    </g>
                                    <g id="Group" fill="#4ABEA7" fill-rule="nonzero">
                                        <rect id="Rectangle" x="0" y="54.75" width="18.2970297" height="18.25"></rect>
                                        <polygon id="Path" points="36.5940594 36.5 36.5940594 18.25 0 18.25 0 36.5 18.2970297 36.5 18.2970297 54.75 73.1881188 54.75 73.1881188 36.5"></polygon>
                                        <rect id="Rectangle" x="36.5940594" y="0" width="36.5940594" height="18.25"></rect>
                                    </g>
                                </g>
                            </g>
                        </g>
                    </g>
                </g>
            </g>
        </g>
    </g>
</svg>