<?xml version="1.0" encoding="UTF-8"?>
<svg width="382px" height="83px" viewBox="0 0 382 83" version="1.1" xmlns="http://www.w3.org/2000/svg" xmlns:xlink="http://www.w3.org/1999/xlink">
    <!-- Generator: Sketch 63.1 (92452) - https://sketch.com -->
    <title>Logotype</title>
    <desc>Created with Sketch.</desc>
    <g id="Website" stroke="none" stroke-width="1" fill="none" fill-rule="evenodd">
        <g id="Products-D-XL-1.-—-List" transform="translate(-779.000000, -1011.000000)" fill="#393939">
            <g id="Content" transform="translate(20.000000, 324.000000)">
                <g id="Row-2" transform="translate(0.000000, 597.000000)">
                    <g id="2" transform="translate(640.000000, 0.000000)">
                        <g id="Image" transform="translate(60.000000, 0.000000)">
                            <g id="Atoms/Logotypes/Products/Wagepoint" transform="translate(59.000000, 90.000000)">
                                <g id="Wagepoint">
                                    <path d="M0.432126697,3.02604167 C0.0864253394,1.815625 0.777828054,0.951041667 1.98778281,0.951041667 L12.0995475,0.951041667 C12.7909502,0.951041667 13.4823529,1.55625 13.6552036,2.16145833 L21.0877828,31.64375 L21.4334842,31.64375 L34.9158371,1.0375 C35.1751131,0.51875 35.6936652,0.0864583333 36.3850679,0.0864583333 L37.940724,0.0864583333 C38.718552,0.0864583333 39.2371041,0.51875 39.4099548,1.0375 L52.8923077,31.64375 L53.238009,31.64375 L60.6705882,2.16145833 C60.8434389,1.55625 61.5348416,0.951041667 62.2262443,0.951041667 L72.4244344,0.951041667 C73.6343891,0.951041667 74.3257919,1.815625 73.9800905,3.02604167 L57.559276,61.3854167 C57.3864253,62.0770833 56.6950226,62.5958333 56.0036199,62.5958333 L54.6208145,62.5958333 C54.0158371,62.5958333 53.4108597,62.1635417 53.1515837,61.6447917 L37.2493213,26.1104167 L36.9900452,26.1104167 L21.1742081,61.6447917 C20.9149321,62.1635417 20.3099548,62.5958333 19.7049774,62.5958333 L18.3221719,62.5958333 C17.6307692,62.5958333 16.9393665,62.0770833 16.7665158,61.3854167 L0.432126697,3.02604167 Z" id="XMLID_26_" fill-rule="nonzero"></path>
                                    <path d="M84.5239819,36.1395833 C89.0180995,36.1395833 92.3886878,37.86875 92.3886878,37.86875 C92.3886878,33.978125 91.5244344,31.7302083 86.8574661,31.7302083 C84.0918552,31.7302083 79.4248869,32.3354167 76.7457014,33.1135417 C75.1900452,33.6322917 74.4986425,32.5083333 74.3257919,31.0385417 L73.3751131,24.9 C73.1158371,23.1708333 74.0665158,22.3927083 74.9307692,22.1333333 C75.881448,21.7875 82.8819005,20.8364583 88.3266968,20.8364583 C100.771946,20.8364583 105.093213,25.8510417 105.093213,37.7822917 L105.093213,59.915625 C105.093213,60.953125 104.142534,61.8177083 103.191855,61.8177083 L98.9570136,61.8177083 C98.3520362,61.8177083 97.6606335,61.6447917 97.1420814,60.5208333 L96.7963801,59.915625 C96.2778281,58.878125 94.981448,58.61875 94.1171946,59.3104167 C91.7837104,61.0395833 88.6723982,62.8552083 83.6597285,62.8552083 C75.7950226,62.8552083 69.7452489,57.6677083 69.7452489,49.6270833 C69.8316742,41.759375 75.4493213,36.1395833 84.5239819,36.1395833 Z M85.30181,52.653125 C88.4131222,54.0364583 91.6972851,51.615625 91.6972851,48.5895833 C91.6972851,46.2552083 89.6230769,44.1802083 87.2031674,44.1802083 C83.6597285,44.1802083 80.980543,48.6760417 84.2647059,51.875 C84.5239819,52.134375 84.8696833,52.39375 85.30181,52.653125 Z" id="XMLID_23_" fill-rule="nonzero"></path>
                                    <path d="M151.849321,60.5208333 C151.849321,75.0458333 142.428959,81.8760417 130.415837,81.8760417 C124.452489,81.8760417 117.452036,79.1958333 115.464253,77.553125 C114.859276,77.034375 114.686425,76.1697917 115.032127,75.3052083 L118.057014,68.0427083 C118.402715,67.2645833 119.526244,66.7458333 120.390498,67.2645833 C122.291855,68.3885417 125.576018,70.4635417 130.156561,70.4635417 C135.082805,70.4635417 138.626244,68.5614583 138.626244,62.509375 C138.626244,61.6447917 137.761991,60.953125 136.897738,61.2989583 C134.99638,62.0770833 131.971493,62.76875 129.292308,62.76875 C118.575566,62.76875 109.41448,55.8520833 109.41448,41.6729167 C109.41448,30.1739583 117.884163,20.8364583 129.205882,20.8364583 C136.033484,20.8364583 140.441176,24.5541667 141.996833,26.196875 C142.342534,26.5427083 142.947511,26.3697917 143.120362,25.9375 L143.89819,23.6895833 C144.243891,22.6520833 145.021719,21.7010417 145.972398,21.7010417 L149.861538,21.7010417 C150.898643,21.7010417 151.762896,22.6520833 151.762896,23.603125 L151.762896,60.5208333 L151.849321,60.5208333 Z M131.28009,50.31875 C136.206335,50.31875 139.749774,46.6010417 139.749774,41.759375 C139.749774,37.0041667 136.206335,33.2 131.28009,33.2 C126.526697,33.2 122.810407,37.0041667 122.810407,41.759375 C122.810407,46.6010417 126.526697,50.31875 131.28009,50.31875 Z" id="XMLID_20_" fill-rule="nonzero"></path>
                                    <path d="M176.307692,20.75 C186.505882,20.75 195.321267,28.4447917 195.321267,39.5114583 C195.321267,40.1166667 195.234842,41.5 195.148416,42.1052083 C195.061991,43.1427083 194.111312,43.834375 193.247059,43.834375 L169.825792,43.834375 C169.047964,43.834375 168.442986,44.5260417 168.702262,45.3041667 C169.48009,48.0708333 172.245701,50.7510417 176.826244,50.7510417 C179.419005,50.7510417 182.703167,49.4541667 184.431674,48.24375 C185.295928,47.465625 186.333032,47.465625 186.938009,48.24375 L191.345701,54.0364583 C191.950679,54.8145833 192.123529,56.025 191.259276,56.8895833 C187.802262,60.434375 182.789593,62.5958333 176.394118,62.5958333 C164.380995,62.5958333 155.39276,54.0364583 155.39276,41.5864583 C155.479186,30.4333333 164.380995,20.75 176.307692,20.75 Z M181.752489,36.2260417 C181.579638,33.5458333 179.332579,31.2979167 175.961991,31.2979167 C172.677828,31.2979167 170.517195,33.5458333 169.998643,36.2260417 L181.752489,36.2260417 Z" id="XMLID_17_" fill-rule="nonzero"></path>
                                    <path d="M212.51991,80.5791667 C212.51991,81.6166667 211.655656,82.48125 210.618552,82.48125 L201.19819,82.48125 C200.161086,82.48125 199.296833,81.6166667 199.296833,80.5791667 L199.296833,23.603125 C199.296833,22.6520833 200.161086,21.7010417 201.19819,21.7010417 L205.08733,21.7010417 C206.038009,21.7010417 206.815837,22.6520833 207.161538,23.6895833 L207.852941,25.5916667 C208.025792,26.196875 208.80362,26.3697917 209.235747,25.9375 C211.050679,24.2083333 215.28552,20.8364583 221.853846,20.8364583 C233.175566,20.8364583 241.558824,30.2604167 241.558824,41.6729167 C241.558824,55.8520833 232.397738,62.76875 221.767421,62.76875 C218.742534,62.76875 215.717647,61.990625 213.81629,61.1260417 C213.211312,60.8666667 212.433484,61.2989583 212.433484,61.990625 L212.433484,80.5791667 L212.51991,80.5791667 Z M219.952489,50.31875 C224.705882,50.31875 228.422172,46.6010417 228.422172,41.759375 C228.422172,37.0041667 224.705882,33.2 219.952489,33.2 C215.026244,33.2 211.482805,37.0041667 211.482805,41.759375 C211.39638,46.6010417 215.026244,50.31875 219.952489,50.31875 Z" id="XMLID_14_" fill-rule="nonzero"></path>
                                    <path d="M266.10362,20.75 C277.59819,20.75 286.932127,30.346875 286.932127,41.5864583 C286.932127,53.0854167 277.511765,62.6822917 266.10362,62.6822917 C254.60905,62.6822917 245.188688,52.9989583 245.188688,41.5864583 C245.188688,30.346875 254.695475,20.75 266.10362,20.75 Z M266.10362,50.31875 C270.684163,50.31875 274.400452,46.3416667 274.400452,41.5864583 C274.400452,37.0041667 270.684163,33.1135417 266.10362,33.1135417 C261.436652,33.1135417 257.720362,37.0041667 257.720362,41.5864583 C257.720362,46.3416667 261.436652,50.31875 266.10362,50.31875 Z" id="XMLID_11_" fill-rule="nonzero"></path>
                                    <path d="M290.38914,8.64583333 C290.38914,4.49583333 293.673303,1.0375 297.821719,1.0375 C301.970136,1.0375 305.340724,4.49583333 305.340724,8.64583333 C305.340724,12.709375 301.970136,16.08125 297.821719,16.08125 C293.673303,16.08125 290.38914,12.709375 290.38914,8.64583333 Z M291.339819,23.5166667 C291.339819,22.3927083 292.204072,21.6145833 293.241176,21.6145833 L302.661538,21.6145833 C303.698643,21.6145833 304.562896,22.3927083 304.562896,23.5166667 L304.562896,59.8291667 C304.562896,60.8666667 303.698643,61.73125 302.661538,61.73125 L293.241176,61.73125 C292.204072,61.73125 291.339819,60.8666667 291.339819,59.8291667 L291.339819,23.5166667 Z" id="XMLID_8_" fill-rule="nonzero"></path>
                                    <path d="M310.094118,23.5166667 C310.094118,22.3927083 310.958371,21.6145833 311.995475,21.6145833 L315.884615,21.6145833 C316.489593,21.6145833 317.267421,22.046875 317.699548,22.825 L318.736652,25.5916667 C318.909502,26.196875 319.68733,26.2833333 320.119457,25.8510417 C322.28009,23.5166667 325.391403,20.75 331.700452,20.75 C344.232127,20.75 348.466968,29.6552083 348.466968,40.6354167 L348.466968,59.8291667 C348.466968,60.8666667 347.602715,61.73125 346.652036,61.73125 L337.145249,61.73125 C336.021719,61.73125 335.243891,60.8666667 335.243891,59.8291667 L335.243891,40.4625 C335.243891,36.6583333 333.947511,33.1135417 329.453394,33.1135417 C325.477828,33.1135417 323.40362,35.8802083 323.40362,39.94375 L323.40362,59.8291667 C323.40362,60.69375 322.971493,61.73125 321.588688,61.73125 L311.995475,61.73125 C310.958371,61.73125 310.094118,60.8666667 310.094118,59.8291667 L310.094118,23.5166667 Z" id="XMLID_6_" fill-rule="nonzero"></path>
                                    <path d="M357.109502,34.6697917 C357.109502,34.0645833 356.59095,33.5458333 355.985973,33.5458333 L353.825339,33.5458333 C352.874661,33.5458333 352.096833,32.68125 352.096833,31.64375 L352.096833,23.603125 C352.096833,22.4791667 352.874661,21.7010417 353.825339,21.7010417 L355.985973,21.7010417 C356.59095,21.7010417 357.109502,21.1822917 357.109502,20.5770833 L357.109502,10.634375 C357.109502,9.596875 357.973756,8.73229167 359.01086,8.73229167 L368.604072,8.73229167 C369.554751,8.73229167 370.332579,9.596875 370.332579,10.634375 L370.332579,20.5770833 C370.332579,21.1822917 370.851131,21.7010417 371.456109,21.7010417 L378.370136,21.7010417 C379.40724,21.7010417 380.271493,22.4791667 380.271493,23.603125 L380.271493,31.64375 C380.271493,32.68125 379.40724,33.5458333 378.370136,33.5458333 L371.456109,33.5458333 C370.851131,33.5458333 370.332579,34.0645833 370.332579,34.6697917 L370.332579,47.5520833 C370.332579,49.4541667 371.283258,50.31875 373.011765,50.31875 C374.39457,50.31875 376.98733,49.7135417 377.938009,49.4541667 C378.975113,49.1947917 379.925792,49.6270833 380.185068,50.6645833 L381.913575,58.1864583 C382.172851,59.396875 381.740724,59.915625 380.617195,60.434375 C377.938009,61.5583333 373.443891,62.6822917 369.122624,62.6822917 C361.517195,62.6822917 357.023077,57.840625 357.023077,48.6760417 L357.023077,34.6697917 L357.109502,34.6697917 Z" id="XMLID_4_" fill-rule="nonzero"></path>
                                </g>
                            </g>
                        </g>
                    </g>
                </g>
            </g>
        </g>
    </g>
</svg>